G04 #@! TF.GenerationSoftware,KiCad,Pcbnew,8.0.4*
G04 #@! TF.CreationDate,2024-09-24T23:47:46-04:00*
G04 #@! TF.ProjectId,CommonSlotAdapter,436f6d6d-6f6e-4536-9c6f-744164617074,rev?*
G04 #@! TF.SameCoordinates,Original*
G04 #@! TF.FileFunction,Copper,L1,Top*
G04 #@! TF.FilePolarity,Positive*
%FSLAX46Y46*%
G04 Gerber Fmt 4.6, Leading zero omitted, Abs format (unit mm)*
G04 Created by KiCad (PCBNEW 8.0.4) date 2024-09-24 23:47:46*
%MOMM*%
%LPD*%
G01*
G04 APERTURE LIST*
G04 Aperture macros list*
%AMRoundRect*
0 Rectangle with rounded corners*
0 $1 Rounding radius*
0 $2 $3 $4 $5 $6 $7 $8 $9 X,Y pos of 4 corners*
0 Add a 4 corners polygon primitive as box body*
4,1,4,$2,$3,$4,$5,$6,$7,$8,$9,$2,$3,0*
0 Add four circle primitives for the rounded corners*
1,1,$1+$1,$2,$3*
1,1,$1+$1,$4,$5*
1,1,$1+$1,$6,$7*
1,1,$1+$1,$8,$9*
0 Add four rect primitives between the rounded corners*
20,1,$1+$1,$2,$3,$4,$5,0*
20,1,$1+$1,$4,$5,$6,$7,0*
20,1,$1+$1,$6,$7,$8,$9,0*
20,1,$1+$1,$8,$9,$2,$3,0*%
G04 Aperture macros list end*
G04 #@! TA.AperFunction,ComponentPad*
%ADD10C,2.000000*%
G04 #@! TD*
G04 #@! TA.AperFunction,ComponentPad*
%ADD11R,2.000000X2.000000*%
G04 #@! TD*
G04 #@! TA.AperFunction,ComponentPad*
%ADD12C,1.650000*%
G04 #@! TD*
G04 #@! TA.AperFunction,ComponentPad*
%ADD13C,5.716000*%
G04 #@! TD*
G04 #@! TA.AperFunction,ComponentPad*
%ADD14C,8.000000*%
G04 #@! TD*
G04 #@! TA.AperFunction,ComponentPad*
%ADD15C,8.600000*%
G04 #@! TD*
G04 #@! TA.AperFunction,ComponentPad*
%ADD16C,1.875000*%
G04 #@! TD*
G04 #@! TA.AperFunction,ComponentPad*
%ADD17C,2.500000*%
G04 #@! TD*
G04 #@! TA.AperFunction,SMDPad,CuDef*
%ADD18RoundRect,0.250000X0.262500X0.450000X-0.262500X0.450000X-0.262500X-0.450000X0.262500X-0.450000X0*%
G04 #@! TD*
G04 #@! TA.AperFunction,SMDPad,CuDef*
%ADD19RoundRect,0.250000X-0.262500X-0.450000X0.262500X-0.450000X0.262500X0.450000X-0.262500X0.450000X0*%
G04 #@! TD*
G04 #@! TA.AperFunction,SMDPad,CuDef*
%ADD20RoundRect,0.243750X-0.243750X-0.456250X0.243750X-0.456250X0.243750X0.456250X-0.243750X0.456250X0*%
G04 #@! TD*
G04 #@! TA.AperFunction,Conductor*
%ADD21C,0.200000*%
G04 #@! TD*
G04 APERTURE END LIST*
D10*
X89281000Y-82550000D03*
X89281000Y-80010000D03*
D11*
X89281000Y-77470000D03*
D12*
X178054000Y-72544600D03*
X175514000Y-72544600D03*
X172974000Y-72544600D03*
X170434000Y-72544600D03*
X167894000Y-72544600D03*
X165354000Y-72544600D03*
X162814000Y-72544600D03*
X160274000Y-72544600D03*
X157734000Y-72544600D03*
X155194000Y-72544600D03*
X152654000Y-72544600D03*
X150114000Y-72544600D03*
X147574000Y-72544600D03*
X145034000Y-72544600D03*
X142494000Y-72544600D03*
X139954000Y-72544600D03*
X137414000Y-72544600D03*
X134874000Y-72544600D03*
X132334000Y-72544600D03*
X129794000Y-72544600D03*
X127254000Y-72544600D03*
X124714000Y-72544600D03*
X122174000Y-72544600D03*
X119634000Y-72544600D03*
X117094000Y-72544600D03*
X114554000Y-72544600D03*
X112014000Y-72544600D03*
X109474000Y-72544600D03*
X106934000Y-72544600D03*
X104394000Y-72544600D03*
X101854000Y-72544600D03*
X99314000Y-72544600D03*
X99314000Y-76344600D03*
X101854000Y-76344600D03*
X104394000Y-76344600D03*
X106934000Y-76344600D03*
X109474000Y-76344600D03*
X112014000Y-76344600D03*
X114554000Y-76344600D03*
X117094000Y-76344600D03*
X119634000Y-76344600D03*
X122174000Y-76344600D03*
X124714000Y-76344600D03*
X127254000Y-76344600D03*
X129794000Y-76344600D03*
X132334000Y-76344600D03*
X134874000Y-76344600D03*
X137414000Y-76344600D03*
X139954000Y-76344600D03*
X142494000Y-76344600D03*
X145034000Y-76344600D03*
X147574000Y-76344600D03*
X150114000Y-76344600D03*
X152654000Y-76344600D03*
X155194000Y-76344600D03*
X157734000Y-76344600D03*
X160274000Y-76344600D03*
X162814000Y-76344600D03*
X165354000Y-76344600D03*
X167894000Y-76344600D03*
X170434000Y-76344600D03*
X172974000Y-76344600D03*
X175514000Y-76344600D03*
X178054000Y-76344600D03*
D13*
X139065000Y-91020000D03*
X139065000Y-83820000D03*
X127635000Y-91020000D03*
X127635000Y-83820000D03*
D14*
X104990000Y-86360000D03*
X115990000Y-86360000D03*
D15*
X187960000Y-91440000D03*
X88900000Y-91440000D03*
X187960000Y-68580000D03*
X88900000Y-68580000D03*
D16*
X172720000Y-81280000D03*
X172720000Y-88900000D03*
X175260000Y-81280000D03*
X175260000Y-88900000D03*
X177800000Y-81280000D03*
X177800000Y-88900000D03*
X180340000Y-81280000D03*
X180340000Y-88900000D03*
X147320000Y-81280000D03*
X147320000Y-88900000D03*
X149860000Y-81280000D03*
X149860000Y-88900000D03*
X152400000Y-81280000D03*
X152400000Y-88900000D03*
X154940000Y-81280000D03*
X154940000Y-88900000D03*
D17*
X167640000Y-93980000D03*
X167640000Y-83820000D03*
X160020000Y-93980000D03*
X160020000Y-83820000D03*
D18*
X114657500Y-93980000D03*
X116482500Y-93980000D03*
D19*
X95273500Y-77470000D03*
X93448500Y-77470000D03*
D20*
X111427500Y-93980000D03*
X109552500Y-93980000D03*
D21*
X95273500Y-77470000D02*
X98188600Y-77470000D01*
X98188600Y-77470000D02*
X99314000Y-76344600D01*
X89281000Y-77470000D02*
X93448500Y-77470000D01*
X96520000Y-78105000D02*
X105173600Y-78105000D01*
X94615000Y-80010000D02*
X96520000Y-78105000D01*
X105173600Y-78105000D02*
X106934000Y-76344600D01*
X89281000Y-80010000D02*
X94615000Y-80010000D01*
X109552500Y-90922500D02*
X104990000Y-86360000D01*
X109552500Y-93980000D02*
X109552500Y-90922500D01*
X114657500Y-93980000D02*
X111427500Y-93980000D01*
G04 #@! TA.AperFunction,Conductor*
G36*
X192482539Y-61480185D02*
G01*
X192528294Y-61532989D01*
X192539500Y-61584500D01*
X192539500Y-66474422D01*
X192519815Y-66541461D01*
X192467011Y-66587216D01*
X192397853Y-66597160D01*
X192334297Y-66568135D01*
X192301479Y-66523158D01*
X192289462Y-66495044D01*
X192278365Y-66474422D01*
X192085137Y-66115345D01*
X192085132Y-66115337D01*
X191847605Y-65755498D01*
X191847595Y-65755485D01*
X191578774Y-65418392D01*
X191578762Y-65418379D01*
X191280794Y-65106730D01*
X191280793Y-65106729D01*
X191280790Y-65106726D01*
X190956080Y-64823035D01*
X190779416Y-64694681D01*
X190607256Y-64569599D01*
X190607251Y-64569596D01*
X190607247Y-64569593D01*
X190237100Y-64348440D01*
X190237095Y-64348437D01*
X190237093Y-64348436D01*
X189848627Y-64161360D01*
X189848613Y-64161354D01*
X189444944Y-64009855D01*
X189444919Y-64009847D01*
X189029295Y-63895142D01*
X188605043Y-63818151D01*
X188605040Y-63818150D01*
X188605036Y-63818150D01*
X188175591Y-63779500D01*
X187744409Y-63779500D01*
X187314964Y-63818150D01*
X187314960Y-63818150D01*
X187314956Y-63818151D01*
X186890704Y-63895142D01*
X186475080Y-64009847D01*
X186475055Y-64009855D01*
X186071386Y-64161354D01*
X186071372Y-64161360D01*
X185682906Y-64348436D01*
X185682904Y-64348437D01*
X185312743Y-64569599D01*
X184963931Y-64823026D01*
X184963914Y-64823039D01*
X184639210Y-65106726D01*
X184639205Y-65106730D01*
X184341237Y-65418379D01*
X184341225Y-65418392D01*
X184072404Y-65755485D01*
X184072394Y-65755498D01*
X183834867Y-66115337D01*
X183834867Y-66115338D01*
X183630537Y-66495044D01*
X183630533Y-66495052D01*
X183461076Y-66891519D01*
X183461073Y-66891527D01*
X183327830Y-67301608D01*
X183231885Y-67721972D01*
X183174006Y-68149253D01*
X183174005Y-68149262D01*
X183154661Y-68579996D01*
X183154661Y-68580003D01*
X183174005Y-69010737D01*
X183174006Y-69010746D01*
X183231885Y-69438027D01*
X183327830Y-69858391D01*
X183461073Y-70268472D01*
X183461076Y-70268480D01*
X183630533Y-70664947D01*
X183630537Y-70664955D01*
X183698647Y-70791523D01*
X183834863Y-71044655D01*
X183834867Y-71044661D01*
X183834867Y-71044662D01*
X184072394Y-71404501D01*
X184072404Y-71404514D01*
X184341225Y-71741607D01*
X184341237Y-71741620D01*
X184532911Y-71942095D01*
X184639210Y-72053274D01*
X184963920Y-72336965D01*
X185312753Y-72590407D01*
X185682900Y-72811560D01*
X185682903Y-72811561D01*
X185682904Y-72811562D01*
X185682906Y-72811563D01*
X186071372Y-72998639D01*
X186071386Y-72998645D01*
X186475055Y-73150144D01*
X186475059Y-73150145D01*
X186475069Y-73150149D01*
X186890711Y-73264859D01*
X187314964Y-73341850D01*
X187744409Y-73380500D01*
X187744416Y-73380500D01*
X188175584Y-73380500D01*
X188175591Y-73380500D01*
X188605036Y-73341850D01*
X189029289Y-73264859D01*
X189444931Y-73150149D01*
X189848619Y-72998643D01*
X190237100Y-72811560D01*
X190607247Y-72590407D01*
X190956080Y-72336965D01*
X191280790Y-72053274D01*
X191578764Y-71741619D01*
X191847601Y-71404507D01*
X192085137Y-71044655D01*
X192289461Y-70664958D01*
X192301478Y-70636841D01*
X192345927Y-70582934D01*
X192412464Y-70561614D01*
X192479966Y-70579652D01*
X192527000Y-70631320D01*
X192539500Y-70685577D01*
X192539500Y-89334422D01*
X192519815Y-89401461D01*
X192467011Y-89447216D01*
X192397853Y-89457160D01*
X192334297Y-89428135D01*
X192301479Y-89383158D01*
X192289462Y-89355044D01*
X192252286Y-89285959D01*
X192085137Y-88975345D01*
X192035406Y-88900005D01*
X191847605Y-88615498D01*
X191847595Y-88615485D01*
X191578774Y-88278392D01*
X191578762Y-88278379D01*
X191280794Y-87966730D01*
X191280793Y-87966729D01*
X191280790Y-87966726D01*
X191052387Y-87767176D01*
X190956085Y-87683039D01*
X190956068Y-87683026D01*
X190607256Y-87429599D01*
X190607251Y-87429596D01*
X190607247Y-87429593D01*
X190237100Y-87208440D01*
X190237095Y-87208437D01*
X190237093Y-87208436D01*
X189848627Y-87021360D01*
X189848613Y-87021354D01*
X189444944Y-86869855D01*
X189444919Y-86869847D01*
X189029295Y-86755142D01*
X188605043Y-86678151D01*
X188605040Y-86678150D01*
X188605036Y-86678150D01*
X188175591Y-86639500D01*
X187744409Y-86639500D01*
X187314964Y-86678150D01*
X187314960Y-86678150D01*
X187314956Y-86678151D01*
X186890704Y-86755142D01*
X186475080Y-86869847D01*
X186475055Y-86869855D01*
X186071386Y-87021354D01*
X186071372Y-87021360D01*
X185682906Y-87208436D01*
X185682904Y-87208437D01*
X185312743Y-87429599D01*
X184963931Y-87683026D01*
X184963914Y-87683039D01*
X184639210Y-87966726D01*
X184639205Y-87966730D01*
X184341237Y-88278379D01*
X184341225Y-88278392D01*
X184072404Y-88615485D01*
X184072394Y-88615498D01*
X183834867Y-88975337D01*
X183834867Y-88975338D01*
X183630537Y-89355044D01*
X183630533Y-89355052D01*
X183461076Y-89751519D01*
X183461073Y-89751527D01*
X183327830Y-90161608D01*
X183231885Y-90581972D01*
X183174006Y-91009253D01*
X183174005Y-91009262D01*
X183154661Y-91439996D01*
X183154661Y-91440003D01*
X183174005Y-91870737D01*
X183174006Y-91870746D01*
X183231885Y-92298027D01*
X183327830Y-92718391D01*
X183461073Y-93128472D01*
X183461076Y-93128480D01*
X183630533Y-93524947D01*
X183630537Y-93524955D01*
X183698647Y-93651523D01*
X183834863Y-93904655D01*
X183834867Y-93904661D01*
X183834867Y-93904662D01*
X184072394Y-94264501D01*
X184072404Y-94264514D01*
X184341225Y-94601607D01*
X184341237Y-94601620D01*
X184627478Y-94901004D01*
X184639210Y-94913274D01*
X184869891Y-95114814D01*
X184933154Y-95170086D01*
X184963920Y-95196965D01*
X185312753Y-95450407D01*
X185682900Y-95671560D01*
X185682903Y-95671561D01*
X185682904Y-95671562D01*
X185682906Y-95671563D01*
X185915926Y-95783780D01*
X185967785Y-95830602D01*
X185986098Y-95898030D01*
X185965050Y-95964653D01*
X185911324Y-96009322D01*
X185862124Y-96019500D01*
X90997876Y-96019500D01*
X90930837Y-95999815D01*
X90885082Y-95947011D01*
X90875138Y-95877853D01*
X90904163Y-95814297D01*
X90944074Y-95783780D01*
X91135916Y-95691393D01*
X91177100Y-95671560D01*
X91547247Y-95450407D01*
X91896080Y-95196965D01*
X92220790Y-94913274D01*
X92518764Y-94601619D01*
X92529804Y-94587776D01*
X92787595Y-94264514D01*
X92787601Y-94264507D01*
X93025137Y-93904655D01*
X93229461Y-93524958D01*
X93241479Y-93496842D01*
X93291944Y-93378772D01*
X93398926Y-93128475D01*
X93532168Y-92718397D01*
X93628115Y-92298026D01*
X93685994Y-91870747D01*
X93705339Y-91440000D01*
X93685994Y-91009253D01*
X93628115Y-90581974D01*
X93532168Y-90161603D01*
X93398926Y-89751525D01*
X93273632Y-89458385D01*
X93229466Y-89355052D01*
X93229462Y-89355044D01*
X93192286Y-89285959D01*
X93025137Y-88975345D01*
X92975406Y-88900005D01*
X92787605Y-88615498D01*
X92787595Y-88615485D01*
X92518774Y-88278392D01*
X92518762Y-88278379D01*
X92220794Y-87966730D01*
X92220793Y-87966729D01*
X92220790Y-87966726D01*
X91992387Y-87767176D01*
X91896085Y-87683039D01*
X91896068Y-87683026D01*
X91547256Y-87429599D01*
X91547251Y-87429596D01*
X91547247Y-87429593D01*
X91177100Y-87208440D01*
X91177095Y-87208437D01*
X91177093Y-87208436D01*
X90788627Y-87021360D01*
X90788613Y-87021354D01*
X90384944Y-86869855D01*
X90384919Y-86869847D01*
X89969295Y-86755142D01*
X89545043Y-86678151D01*
X89545040Y-86678150D01*
X89545036Y-86678150D01*
X89115591Y-86639500D01*
X88684409Y-86639500D01*
X88254964Y-86678150D01*
X88254960Y-86678150D01*
X88254956Y-86678151D01*
X87830704Y-86755142D01*
X87415080Y-86869847D01*
X87415055Y-86869855D01*
X87011386Y-87021354D01*
X87011372Y-87021360D01*
X86622906Y-87208436D01*
X86622904Y-87208437D01*
X86252743Y-87429599D01*
X85903931Y-87683026D01*
X85903914Y-87683039D01*
X85579210Y-87966726D01*
X85579205Y-87966730D01*
X85281237Y-88278379D01*
X85281225Y-88278392D01*
X85012404Y-88615485D01*
X85012394Y-88615498D01*
X84774867Y-88975337D01*
X84774867Y-88975338D01*
X84570537Y-89355044D01*
X84558521Y-89383158D01*
X84514072Y-89437066D01*
X84447534Y-89458385D01*
X84380033Y-89440347D01*
X84333000Y-89388678D01*
X84320500Y-89334422D01*
X84320500Y-86360000D01*
X100484693Y-86360000D01*
X100503912Y-86775697D01*
X100503912Y-86775702D01*
X100503913Y-86775707D01*
X100561403Y-87187845D01*
X100561405Y-87187853D01*
X100656679Y-87592933D01*
X100788929Y-87987514D01*
X100957010Y-88368177D01*
X100957020Y-88368198D01*
X101159506Y-88731731D01*
X101159509Y-88731735D01*
X101159511Y-88731739D01*
X101394687Y-89075054D01*
X101394689Y-89075056D01*
X101394696Y-89075066D01*
X101650533Y-89383158D01*
X101660538Y-89395206D01*
X101954794Y-89689462D01*
X101954805Y-89689471D01*
X102274933Y-89955303D01*
X102274939Y-89955307D01*
X102274946Y-89955313D01*
X102618261Y-90190489D01*
X102618267Y-90190492D01*
X102618268Y-90190493D01*
X102809404Y-90296955D01*
X102981812Y-90392985D01*
X103172153Y-90477029D01*
X103362485Y-90561070D01*
X103362488Y-90561071D01*
X103362495Y-90561074D01*
X103757064Y-90693320D01*
X104162152Y-90788596D01*
X104574303Y-90846088D01*
X104990000Y-90865307D01*
X105405697Y-90846088D01*
X105817848Y-90788596D01*
X106222936Y-90693320D01*
X106617505Y-90561074D01*
X106998188Y-90392985D01*
X107361739Y-90190489D01*
X107638519Y-90000890D01*
X107704949Y-89979245D01*
X107772538Y-89996950D01*
X107796275Y-90015510D01*
X108915681Y-91134916D01*
X108949166Y-91196239D01*
X108952000Y-91222597D01*
X108952000Y-92800149D01*
X108932315Y-92867188D01*
X108893099Y-92905686D01*
X108843998Y-92935972D01*
X108720971Y-93059000D01*
X108629642Y-93207066D01*
X108629637Y-93207077D01*
X108574913Y-93372223D01*
X108564500Y-93474144D01*
X108564500Y-94485855D01*
X108574913Y-94587776D01*
X108629637Y-94752922D01*
X108629642Y-94752933D01*
X108720971Y-94900999D01*
X108720974Y-94901003D01*
X108843996Y-95024025D01*
X108844000Y-95024028D01*
X108992066Y-95115357D01*
X108992069Y-95115358D01*
X108992075Y-95115362D01*
X109157225Y-95170087D01*
X109259152Y-95180500D01*
X109259157Y-95180500D01*
X109845843Y-95180500D01*
X109845848Y-95180500D01*
X109947775Y-95170087D01*
X110112925Y-95115362D01*
X110261003Y-95024026D01*
X110384026Y-94901003D01*
X110384458Y-94900301D01*
X110384881Y-94899921D01*
X110388507Y-94895336D01*
X110389290Y-94895955D01*
X110436402Y-94853575D01*
X110505364Y-94842349D01*
X110569448Y-94870188D01*
X110591342Y-94895455D01*
X110591493Y-94895336D01*
X110594143Y-94898687D01*
X110595540Y-94900299D01*
X110595972Y-94900999D01*
X110595975Y-94901004D01*
X110718996Y-95024025D01*
X110719000Y-95024028D01*
X110867066Y-95115357D01*
X110867069Y-95115358D01*
X110867075Y-95115362D01*
X111032225Y-95170087D01*
X111134152Y-95180500D01*
X111134157Y-95180500D01*
X111720843Y-95180500D01*
X111720848Y-95180500D01*
X111822775Y-95170087D01*
X111987925Y-95115362D01*
X112136003Y-95024026D01*
X112259026Y-94901003D01*
X112350362Y-94752925D01*
X112379333Y-94665496D01*
X112419106Y-94608051D01*
X112483622Y-94581228D01*
X112497039Y-94580500D01*
X113564699Y-94580500D01*
X113631738Y-94600185D01*
X113677493Y-94652989D01*
X113682403Y-94665492D01*
X113710186Y-94749334D01*
X113802288Y-94898656D01*
X113926344Y-95022712D01*
X114075666Y-95114814D01*
X114242203Y-95169999D01*
X114344991Y-95180500D01*
X114970008Y-95180499D01*
X114970016Y-95180498D01*
X114970019Y-95180498D01*
X115033815Y-95173981D01*
X115072797Y-95169999D01*
X115239334Y-95114814D01*
X115388656Y-95022712D01*
X115512712Y-94898656D01*
X115604814Y-94749334D01*
X115659999Y-94582797D01*
X115670500Y-94480009D01*
X115670499Y-93479992D01*
X115670350Y-93478538D01*
X115659999Y-93377203D01*
X115659998Y-93377200D01*
X115645361Y-93333030D01*
X115604814Y-93210666D01*
X115512712Y-93061344D01*
X115388656Y-92937288D01*
X115239334Y-92845186D01*
X115072797Y-92790001D01*
X115072795Y-92790000D01*
X114970010Y-92779500D01*
X114344998Y-92779500D01*
X114344980Y-92779501D01*
X114242203Y-92790000D01*
X114242200Y-92790001D01*
X114075668Y-92845185D01*
X114075663Y-92845187D01*
X113926342Y-92937289D01*
X113802289Y-93061342D01*
X113710187Y-93210663D01*
X113710185Y-93210668D01*
X113682405Y-93294504D01*
X113642632Y-93351949D01*
X113578116Y-93378772D01*
X113564699Y-93379500D01*
X112497039Y-93379500D01*
X112430000Y-93359815D01*
X112384245Y-93307011D01*
X112379333Y-93294504D01*
X112377216Y-93288117D01*
X112350362Y-93207075D01*
X112350358Y-93207069D01*
X112350357Y-93207066D01*
X112259028Y-93059000D01*
X112259025Y-93058996D01*
X112136003Y-92935974D01*
X112135999Y-92935971D01*
X111987933Y-92844642D01*
X111987927Y-92844639D01*
X111987925Y-92844638D01*
X111987922Y-92844637D01*
X111822776Y-92789913D01*
X111720855Y-92779500D01*
X111720848Y-92779500D01*
X111134152Y-92779500D01*
X111134144Y-92779500D01*
X111032223Y-92789913D01*
X110867077Y-92844637D01*
X110867066Y-92844642D01*
X110719000Y-92935971D01*
X110718996Y-92935974D01*
X110595974Y-93058996D01*
X110595971Y-93059000D01*
X110595538Y-93059703D01*
X110595114Y-93060083D01*
X110591493Y-93064664D01*
X110590710Y-93064045D01*
X110543590Y-93106428D01*
X110474628Y-93117649D01*
X110410546Y-93089806D01*
X110388657Y-93064544D01*
X110388507Y-93064664D01*
X110385859Y-93061315D01*
X110384462Y-93059703D01*
X110384028Y-93059000D01*
X110384027Y-93058999D01*
X110384026Y-93058997D01*
X110261003Y-92935974D01*
X110261002Y-92935973D01*
X110261001Y-92935972D01*
X110211901Y-92905686D01*
X110165178Y-92853738D01*
X110153000Y-92800149D01*
X110153000Y-91019997D01*
X124271567Y-91019997D01*
X124271567Y-91020002D01*
X124291283Y-91383648D01*
X124350203Y-91743044D01*
X124350204Y-91743047D01*
X124447629Y-92093943D01*
X124447630Y-92093945D01*
X124582426Y-92432259D01*
X124582435Y-92432277D01*
X124753021Y-92754036D01*
X124753023Y-92754040D01*
X124957393Y-93055462D01*
X125193162Y-93333030D01*
X125457558Y-93583480D01*
X125457559Y-93583481D01*
X125629672Y-93714317D01*
X125747485Y-93803876D01*
X126059540Y-93991634D01*
X126059544Y-93991635D01*
X126059548Y-93991638D01*
X126390054Y-94144546D01*
X126390065Y-94144551D01*
X126735186Y-94260836D01*
X127090857Y-94339125D01*
X127452907Y-94378500D01*
X127452913Y-94378500D01*
X127817087Y-94378500D01*
X127817093Y-94378500D01*
X128179143Y-94339125D01*
X128534814Y-94260836D01*
X128879935Y-94144551D01*
X129210460Y-93991634D01*
X129522515Y-93803876D01*
X129812440Y-93583481D01*
X130076837Y-93333031D01*
X130312606Y-93055463D01*
X130516982Y-92754031D01*
X130687569Y-92432269D01*
X130822368Y-92093949D01*
X130919798Y-91743039D01*
X130978716Y-91383651D01*
X130998433Y-91020000D01*
X130998433Y-91019997D01*
X135701567Y-91019997D01*
X135701567Y-91020002D01*
X135721283Y-91383648D01*
X135780203Y-91743044D01*
X135780204Y-91743047D01*
X135877629Y-92093943D01*
X135877630Y-92093945D01*
X136012426Y-92432259D01*
X136012435Y-92432277D01*
X136183021Y-92754036D01*
X136183023Y-92754040D01*
X136387393Y-93055462D01*
X136623162Y-93333030D01*
X136887558Y-93583480D01*
X136887559Y-93583481D01*
X137059672Y-93714317D01*
X137177485Y-93803876D01*
X137489540Y-93991634D01*
X137489544Y-93991635D01*
X137489548Y-93991638D01*
X137820054Y-94144546D01*
X137820065Y-94144551D01*
X138165186Y-94260836D01*
X138520857Y-94339125D01*
X138882907Y-94378500D01*
X138882913Y-94378500D01*
X139247087Y-94378500D01*
X139247093Y-94378500D01*
X139609143Y-94339125D01*
X139964814Y-94260836D01*
X140309935Y-94144551D01*
X140640460Y-93991634D01*
X140659804Y-93979995D01*
X165884592Y-93979995D01*
X165884592Y-93980004D01*
X165904196Y-94241620D01*
X165904197Y-94241625D01*
X165962576Y-94497402D01*
X165962578Y-94497411D01*
X165962580Y-94497416D01*
X166058432Y-94741643D01*
X166189614Y-94968857D01*
X166306009Y-95114812D01*
X166353198Y-95173985D01*
X166534753Y-95342441D01*
X166545521Y-95352433D01*
X166762296Y-95500228D01*
X166762301Y-95500230D01*
X166762302Y-95500231D01*
X166762303Y-95500232D01*
X166887843Y-95560688D01*
X166998673Y-95614061D01*
X166998674Y-95614061D01*
X166998677Y-95614063D01*
X167249385Y-95691396D01*
X167508818Y-95730500D01*
X167771182Y-95730500D01*
X168030615Y-95691396D01*
X168281323Y-95614063D01*
X168517704Y-95500228D01*
X168734479Y-95352433D01*
X168883733Y-95213945D01*
X168926801Y-95173985D01*
X168926801Y-95173983D01*
X168926805Y-95173981D01*
X169090386Y-94968857D01*
X169221568Y-94741643D01*
X169317420Y-94497416D01*
X169375802Y-94241630D01*
X169383077Y-94144551D01*
X169395408Y-93980004D01*
X169395408Y-93979995D01*
X169375803Y-93718379D01*
X169375802Y-93718374D01*
X169375802Y-93718370D01*
X169317420Y-93462584D01*
X169221568Y-93218357D01*
X169090386Y-92991143D01*
X168926805Y-92786019D01*
X168926804Y-92786018D01*
X168926801Y-92786014D01*
X168734479Y-92607567D01*
X168517704Y-92459772D01*
X168517700Y-92459770D01*
X168517697Y-92459768D01*
X168517696Y-92459767D01*
X168281325Y-92345938D01*
X168281327Y-92345938D01*
X168030623Y-92268606D01*
X168030619Y-92268605D01*
X168030615Y-92268604D01*
X167905823Y-92249794D01*
X167771187Y-92229500D01*
X167771182Y-92229500D01*
X167508818Y-92229500D01*
X167508812Y-92229500D01*
X167347247Y-92253853D01*
X167249385Y-92268604D01*
X167249382Y-92268605D01*
X167249376Y-92268606D01*
X166998673Y-92345938D01*
X166762303Y-92459767D01*
X166762302Y-92459768D01*
X166545520Y-92607567D01*
X166353198Y-92786014D01*
X166189614Y-92991143D01*
X166058432Y-93218356D01*
X165962582Y-93462578D01*
X165962576Y-93462597D01*
X165904197Y-93718374D01*
X165904196Y-93718379D01*
X165884592Y-93979995D01*
X140659804Y-93979995D01*
X140952515Y-93803876D01*
X141242440Y-93583481D01*
X141506837Y-93333031D01*
X141742606Y-93055463D01*
X141946982Y-92754031D01*
X142117569Y-92432269D01*
X142252368Y-92093949D01*
X142349798Y-91743039D01*
X142408716Y-91383651D01*
X142428433Y-91020000D01*
X142408716Y-90656349D01*
X142349798Y-90296961D01*
X142297325Y-90107971D01*
X142252370Y-89946056D01*
X142252369Y-89946054D01*
X142117573Y-89607740D01*
X142117564Y-89607722D01*
X142105261Y-89584516D01*
X141946982Y-89285969D01*
X141946978Y-89285963D01*
X141946976Y-89285959D01*
X141742606Y-88984537D01*
X141670794Y-88899994D01*
X171277072Y-88899994D01*
X171277072Y-88900005D01*
X171296751Y-89137494D01*
X171355254Y-89368518D01*
X171450982Y-89586757D01*
X171581322Y-89786259D01*
X171581325Y-89786263D01*
X171581327Y-89786265D01*
X171742731Y-89961597D01*
X171742734Y-89961599D01*
X171742737Y-89961602D01*
X171930784Y-90107965D01*
X171930790Y-90107969D01*
X171930793Y-90107971D01*
X172140382Y-90221395D01*
X172350214Y-90293430D01*
X172360480Y-90296955D01*
X172365782Y-90298775D01*
X172600844Y-90338000D01*
X172600845Y-90338000D01*
X172839155Y-90338000D01*
X172839156Y-90338000D01*
X173074218Y-90298775D01*
X173299618Y-90221395D01*
X173509207Y-90107971D01*
X173697269Y-89961597D01*
X173858673Y-89786265D01*
X173858677Y-89786259D01*
X173886191Y-89744146D01*
X173939338Y-89698789D01*
X174008569Y-89689365D01*
X174071905Y-89718867D01*
X174093809Y-89744146D01*
X174121322Y-89786259D01*
X174121325Y-89786263D01*
X174121327Y-89786265D01*
X174282731Y-89961597D01*
X174282734Y-89961599D01*
X174282737Y-89961602D01*
X174470784Y-90107965D01*
X174470790Y-90107969D01*
X174470793Y-90107971D01*
X174680382Y-90221395D01*
X174890214Y-90293430D01*
X174900480Y-90296955D01*
X174905782Y-90298775D01*
X175140844Y-90338000D01*
X175140845Y-90338000D01*
X175379155Y-90338000D01*
X175379156Y-90338000D01*
X175614218Y-90298775D01*
X175839618Y-90221395D01*
X176049207Y-90107971D01*
X176237269Y-89961597D01*
X176398673Y-89786265D01*
X176398677Y-89786259D01*
X176426191Y-89744146D01*
X176479338Y-89698789D01*
X176548569Y-89689365D01*
X176611905Y-89718867D01*
X176633809Y-89744146D01*
X176661322Y-89786259D01*
X176661325Y-89786263D01*
X176661327Y-89786265D01*
X176822731Y-89961597D01*
X176822734Y-89961599D01*
X176822737Y-89961602D01*
X177010784Y-90107965D01*
X177010790Y-90107969D01*
X177010793Y-90107971D01*
X177220382Y-90221395D01*
X177430214Y-90293430D01*
X177440480Y-90296955D01*
X177445782Y-90298775D01*
X177680844Y-90338000D01*
X177680845Y-90338000D01*
X177919155Y-90338000D01*
X177919156Y-90338000D01*
X178154218Y-90298775D01*
X178379618Y-90221395D01*
X178589207Y-90107971D01*
X178777269Y-89961597D01*
X178938673Y-89786265D01*
X178938677Y-89786259D01*
X178966191Y-89744146D01*
X179019338Y-89698789D01*
X179088569Y-89689365D01*
X179151905Y-89718867D01*
X179173809Y-89744146D01*
X179201322Y-89786259D01*
X179201325Y-89786263D01*
X179201327Y-89786265D01*
X179362731Y-89961597D01*
X179362734Y-89961599D01*
X179362737Y-89961602D01*
X179550784Y-90107965D01*
X179550790Y-90107969D01*
X179550793Y-90107971D01*
X179760382Y-90221395D01*
X179970214Y-90293430D01*
X179980480Y-90296955D01*
X179985782Y-90298775D01*
X180220844Y-90338000D01*
X180220845Y-90338000D01*
X180459155Y-90338000D01*
X180459156Y-90338000D01*
X180694218Y-90298775D01*
X180919618Y-90221395D01*
X181129207Y-90107971D01*
X181317269Y-89961597D01*
X181478673Y-89786265D01*
X181609017Y-89586758D01*
X181704746Y-89368518D01*
X181763248Y-89137498D01*
X181782928Y-88900000D01*
X181763248Y-88662502D01*
X181704746Y-88431482D01*
X181609017Y-88213242D01*
X181535824Y-88101211D01*
X181478677Y-88013740D01*
X181478674Y-88013737D01*
X181478673Y-88013735D01*
X181317269Y-87838403D01*
X181317264Y-87838399D01*
X181317262Y-87838397D01*
X181129215Y-87692034D01*
X181129209Y-87692030D01*
X180919619Y-87578605D01*
X180919610Y-87578602D01*
X180694220Y-87501225D01*
X180537510Y-87475075D01*
X180459156Y-87462000D01*
X180220844Y-87462000D01*
X180162078Y-87471806D01*
X179985779Y-87501225D01*
X179760389Y-87578602D01*
X179760380Y-87578605D01*
X179550790Y-87692030D01*
X179550784Y-87692034D01*
X179362737Y-87838397D01*
X179362734Y-87838400D01*
X179201322Y-88013740D01*
X179173809Y-88055854D01*
X179120662Y-88101211D01*
X179051431Y-88110635D01*
X178988095Y-88081133D01*
X178966191Y-88055854D01*
X178938677Y-88013740D01*
X178938674Y-88013737D01*
X178938673Y-88013735D01*
X178777269Y-87838403D01*
X178777264Y-87838399D01*
X178777262Y-87838397D01*
X178589215Y-87692034D01*
X178589209Y-87692030D01*
X178379619Y-87578605D01*
X178379610Y-87578602D01*
X178154220Y-87501225D01*
X177997510Y-87475075D01*
X177919156Y-87462000D01*
X177680844Y-87462000D01*
X177622078Y-87471806D01*
X177445779Y-87501225D01*
X177220389Y-87578602D01*
X177220380Y-87578605D01*
X177010790Y-87692030D01*
X177010784Y-87692034D01*
X176822737Y-87838397D01*
X176822734Y-87838400D01*
X176661322Y-88013740D01*
X176633809Y-88055854D01*
X176580662Y-88101211D01*
X176511431Y-88110635D01*
X176448095Y-88081133D01*
X176426191Y-88055854D01*
X176398677Y-88013740D01*
X176398674Y-88013737D01*
X176398673Y-88013735D01*
X176237269Y-87838403D01*
X176237264Y-87838399D01*
X176237262Y-87838397D01*
X176049215Y-87692034D01*
X176049209Y-87692030D01*
X175839619Y-87578605D01*
X175839610Y-87578602D01*
X175614220Y-87501225D01*
X175457510Y-87475075D01*
X175379156Y-87462000D01*
X175140844Y-87462000D01*
X175082078Y-87471806D01*
X174905779Y-87501225D01*
X174680389Y-87578602D01*
X174680380Y-87578605D01*
X174470790Y-87692030D01*
X174470784Y-87692034D01*
X174282737Y-87838397D01*
X174282734Y-87838400D01*
X174121322Y-88013740D01*
X174093809Y-88055854D01*
X174040662Y-88101211D01*
X173971431Y-88110635D01*
X173908095Y-88081133D01*
X173886191Y-88055854D01*
X173858677Y-88013740D01*
X173858674Y-88013737D01*
X173858673Y-88013735D01*
X173697269Y-87838403D01*
X173697264Y-87838399D01*
X173697262Y-87838397D01*
X173509215Y-87692034D01*
X173509209Y-87692030D01*
X173299619Y-87578605D01*
X173299610Y-87578602D01*
X173074220Y-87501225D01*
X172917510Y-87475075D01*
X172839156Y-87462000D01*
X172600844Y-87462000D01*
X172542078Y-87471806D01*
X172365779Y-87501225D01*
X172140389Y-87578602D01*
X172140380Y-87578605D01*
X171930790Y-87692030D01*
X171930784Y-87692034D01*
X171742737Y-87838397D01*
X171742734Y-87838400D01*
X171581322Y-88013740D01*
X171450982Y-88213242D01*
X171355254Y-88431481D01*
X171296751Y-88662505D01*
X171277072Y-88899994D01*
X141670794Y-88899994D01*
X141506837Y-88706969D01*
X141242441Y-88456519D01*
X141242440Y-88456518D01*
X140952512Y-88236122D01*
X140640464Y-88048368D01*
X140640451Y-88048361D01*
X140309945Y-87895453D01*
X140309940Y-87895451D01*
X140309935Y-87895449D01*
X140140611Y-87838397D01*
X139964813Y-87779163D01*
X139609141Y-87700874D01*
X139247094Y-87661500D01*
X139247093Y-87661500D01*
X138882907Y-87661500D01*
X138882905Y-87661500D01*
X138520858Y-87700874D01*
X138165186Y-87779163D01*
X137898399Y-87869055D01*
X137820065Y-87895449D01*
X137820062Y-87895450D01*
X137820054Y-87895453D01*
X137489548Y-88048361D01*
X137489535Y-88048368D01*
X137177487Y-88236122D01*
X136887559Y-88456518D01*
X136887558Y-88456519D01*
X136623162Y-88706969D01*
X136387393Y-88984537D01*
X136183023Y-89285959D01*
X136183021Y-89285963D01*
X136012435Y-89607722D01*
X136012426Y-89607740D01*
X135877630Y-89946054D01*
X135877629Y-89946056D01*
X135780204Y-90296952D01*
X135780203Y-90296955D01*
X135721283Y-90656351D01*
X135701567Y-91019997D01*
X130998433Y-91019997D01*
X130978716Y-90656349D01*
X130919798Y-90296961D01*
X130867325Y-90107971D01*
X130822370Y-89946056D01*
X130822369Y-89946054D01*
X130687573Y-89607740D01*
X130687564Y-89607722D01*
X130675261Y-89584516D01*
X130516982Y-89285969D01*
X130516978Y-89285963D01*
X130516976Y-89285959D01*
X130312606Y-88984537D01*
X130076837Y-88706969D01*
X129812441Y-88456519D01*
X129812440Y-88456518D01*
X129522512Y-88236122D01*
X129210464Y-88048368D01*
X129210451Y-88048361D01*
X128879945Y-87895453D01*
X128879940Y-87895451D01*
X128879935Y-87895449D01*
X128710611Y-87838397D01*
X128534813Y-87779163D01*
X128179141Y-87700874D01*
X127817094Y-87661500D01*
X127817093Y-87661500D01*
X127452907Y-87661500D01*
X127452905Y-87661500D01*
X127090858Y-87700874D01*
X126735186Y-87779163D01*
X126468399Y-87869055D01*
X126390065Y-87895449D01*
X126390062Y-87895450D01*
X126390054Y-87895453D01*
X126059548Y-88048361D01*
X126059535Y-88048368D01*
X125747487Y-88236122D01*
X125457559Y-88456518D01*
X125457558Y-88456519D01*
X125193162Y-88706969D01*
X124957393Y-88984537D01*
X124753023Y-89285959D01*
X124753021Y-89285963D01*
X124582435Y-89607722D01*
X124582426Y-89607740D01*
X124447630Y-89946054D01*
X124447629Y-89946056D01*
X124350204Y-90296952D01*
X124350203Y-90296955D01*
X124291283Y-90656351D01*
X124271567Y-91019997D01*
X110153000Y-91019997D01*
X110153000Y-90843445D01*
X110153000Y-90843443D01*
X110112077Y-90690716D01*
X110092237Y-90656351D01*
X110033024Y-90553790D01*
X110033021Y-90553786D01*
X110033020Y-90553784D01*
X109921216Y-90441980D01*
X109921215Y-90441979D01*
X109916885Y-90437649D01*
X109916874Y-90437639D01*
X108645510Y-89166275D01*
X108612025Y-89104952D01*
X108617009Y-89035260D01*
X108630888Y-89008522D01*
X108820489Y-88731739D01*
X109022985Y-88368188D01*
X109191074Y-87987505D01*
X109323320Y-87592936D01*
X109418596Y-87187848D01*
X109476088Y-86775697D01*
X109495307Y-86360000D01*
X109476088Y-85944303D01*
X109418596Y-85532152D01*
X109323320Y-85127064D01*
X109191074Y-84732495D01*
X109022985Y-84351812D01*
X108872489Y-84081620D01*
X108820493Y-83988268D01*
X108820492Y-83988267D01*
X108820489Y-83988261D01*
X108705224Y-83819995D01*
X165884592Y-83819995D01*
X165884592Y-83820004D01*
X165904196Y-84081620D01*
X165904197Y-84081625D01*
X165962576Y-84337402D01*
X165962578Y-84337411D01*
X165962580Y-84337416D01*
X166058432Y-84581643D01*
X166189614Y-84808857D01*
X166321736Y-84974533D01*
X166353198Y-85013985D01*
X166475072Y-85127066D01*
X166545521Y-85192433D01*
X166762296Y-85340228D01*
X166762301Y-85340230D01*
X166762302Y-85340231D01*
X166762303Y-85340232D01*
X166887843Y-85400688D01*
X166998673Y-85454061D01*
X166998674Y-85454061D01*
X166998677Y-85454063D01*
X167249385Y-85531396D01*
X167508818Y-85570500D01*
X167771182Y-85570500D01*
X168030615Y-85531396D01*
X168281323Y-85454063D01*
X168517704Y-85340228D01*
X168734479Y-85192433D01*
X168926805Y-85013981D01*
X169090386Y-84808857D01*
X169221568Y-84581643D01*
X169317420Y-84337416D01*
X169375802Y-84081630D01*
X169381202Y-84009570D01*
X169395408Y-83820004D01*
X169395408Y-83819995D01*
X169375803Y-83558379D01*
X169375802Y-83558374D01*
X169375802Y-83558370D01*
X169317420Y-83302584D01*
X169221568Y-83058357D01*
X169090386Y-82831143D01*
X168926805Y-82626019D01*
X168926804Y-82626018D01*
X168926801Y-82626014D01*
X168734479Y-82447567D01*
X168517704Y-82299772D01*
X168517700Y-82299770D01*
X168517697Y-82299768D01*
X168517696Y-82299767D01*
X168281325Y-82185938D01*
X168281327Y-82185938D01*
X168030623Y-82108606D01*
X168030619Y-82108605D01*
X168030615Y-82108604D01*
X167905823Y-82089794D01*
X167771187Y-82069500D01*
X167771182Y-82069500D01*
X167508818Y-82069500D01*
X167508812Y-82069500D01*
X167347247Y-82093853D01*
X167249385Y-82108604D01*
X167249382Y-82108605D01*
X167249376Y-82108606D01*
X166998673Y-82185938D01*
X166762303Y-82299767D01*
X166762302Y-82299768D01*
X166762296Y-82299771D01*
X166762296Y-82299772D01*
X166758766Y-82302179D01*
X166545520Y-82447567D01*
X166353198Y-82626014D01*
X166189614Y-82831143D01*
X166058432Y-83058356D01*
X165962582Y-83302578D01*
X165962576Y-83302597D01*
X165904197Y-83558374D01*
X165904196Y-83558379D01*
X165884592Y-83819995D01*
X108705224Y-83819995D01*
X108585313Y-83644946D01*
X108585307Y-83644939D01*
X108585303Y-83644933D01*
X108319471Y-83324805D01*
X108319462Y-83324794D01*
X108025206Y-83030538D01*
X108025194Y-83030528D01*
X107705066Y-82764696D01*
X107705056Y-82764689D01*
X107705054Y-82764687D01*
X107361739Y-82529511D01*
X107361735Y-82529509D01*
X107361731Y-82529506D01*
X106998198Y-82327020D01*
X106998177Y-82327010D01*
X106617514Y-82158929D01*
X106222933Y-82026679D01*
X105817853Y-81931405D01*
X105817845Y-81931403D01*
X105405707Y-81873913D01*
X105405702Y-81873912D01*
X105405697Y-81873912D01*
X104990000Y-81854693D01*
X104574303Y-81873912D01*
X104574297Y-81873912D01*
X104574292Y-81873913D01*
X104162154Y-81931403D01*
X104162146Y-81931405D01*
X103757066Y-82026679D01*
X103362485Y-82158929D01*
X102981822Y-82327010D01*
X102981801Y-82327020D01*
X102618268Y-82529506D01*
X102618262Y-82529510D01*
X102274943Y-82764689D01*
X102274933Y-82764696D01*
X101954805Y-83030528D01*
X101954785Y-83030546D01*
X101660546Y-83324785D01*
X101660528Y-83324805D01*
X101394696Y-83644933D01*
X101394689Y-83644943D01*
X101159510Y-83988262D01*
X101159506Y-83988268D01*
X100957020Y-84351801D01*
X100957010Y-84351822D01*
X100788929Y-84732485D01*
X100656679Y-85127066D01*
X100561405Y-85532146D01*
X100561403Y-85532154D01*
X100503913Y-85944292D01*
X100503912Y-85944297D01*
X100503912Y-85944303D01*
X100484693Y-86360000D01*
X84320500Y-86360000D01*
X84320500Y-80009994D01*
X87775357Y-80009994D01*
X87775357Y-80010005D01*
X87795890Y-80257812D01*
X87795892Y-80257824D01*
X87856936Y-80498881D01*
X87956826Y-80726606D01*
X88092833Y-80934782D01*
X88092836Y-80934785D01*
X88261256Y-81117738D01*
X88344008Y-81182147D01*
X88384821Y-81238857D01*
X88388496Y-81308630D01*
X88353864Y-81369313D01*
X88344014Y-81377848D01*
X88285400Y-81423469D01*
X88261257Y-81442261D01*
X88092833Y-81625217D01*
X87956826Y-81833393D01*
X87856936Y-82061118D01*
X87795892Y-82302175D01*
X87795890Y-82302187D01*
X87775357Y-82549994D01*
X87775357Y-82550005D01*
X87795890Y-82797812D01*
X87795892Y-82797824D01*
X87856936Y-83038881D01*
X87956826Y-83266606D01*
X88092833Y-83474782D01*
X88092836Y-83474785D01*
X88261256Y-83657738D01*
X88457491Y-83810474D01*
X88676190Y-83928828D01*
X88911386Y-84009571D01*
X89156665Y-84050500D01*
X89405335Y-84050500D01*
X89650614Y-84009571D01*
X89885810Y-83928828D01*
X90104509Y-83810474D01*
X90300744Y-83657738D01*
X90469164Y-83474785D01*
X90605173Y-83266607D01*
X90705063Y-83038881D01*
X90766108Y-82797821D01*
X90768853Y-82764696D01*
X90786643Y-82550005D01*
X90786643Y-82549994D01*
X90766109Y-82302187D01*
X90766107Y-82302175D01*
X90705063Y-82061118D01*
X90605173Y-81833393D01*
X90469166Y-81625217D01*
X90447557Y-81601744D01*
X90300744Y-81442262D01*
X90217991Y-81377852D01*
X90177179Y-81321143D01*
X90175012Y-81279994D01*
X171277072Y-81279994D01*
X171277072Y-81280005D01*
X171296751Y-81517494D01*
X171355254Y-81748518D01*
X171450982Y-81966757D01*
X171581322Y-82166259D01*
X171581325Y-82166263D01*
X171581327Y-82166265D01*
X171742731Y-82341597D01*
X171742734Y-82341599D01*
X171742737Y-82341602D01*
X171930784Y-82487965D01*
X171930790Y-82487969D01*
X171930793Y-82487971D01*
X172140382Y-82601395D01*
X172365782Y-82678775D01*
X172600844Y-82718000D01*
X172600845Y-82718000D01*
X172839155Y-82718000D01*
X172839156Y-82718000D01*
X173074218Y-82678775D01*
X173299618Y-82601395D01*
X173509207Y-82487971D01*
X173697269Y-82341597D01*
X173858673Y-82166265D01*
X173886191Y-82124146D01*
X173939338Y-82078789D01*
X174008569Y-82069365D01*
X174071905Y-82098867D01*
X174093809Y-82124146D01*
X174121322Y-82166259D01*
X174121325Y-82166263D01*
X174121327Y-82166265D01*
X174282731Y-82341597D01*
X174282734Y-82341599D01*
X174282737Y-82341602D01*
X174470784Y-82487965D01*
X174470790Y-82487969D01*
X174470793Y-82487971D01*
X174680382Y-82601395D01*
X174905782Y-82678775D01*
X175140844Y-82718000D01*
X175140845Y-82718000D01*
X175379155Y-82718000D01*
X175379156Y-82718000D01*
X175614218Y-82678775D01*
X175839618Y-82601395D01*
X176049207Y-82487971D01*
X176237269Y-82341597D01*
X176398673Y-82166265D01*
X176426191Y-82124146D01*
X176479338Y-82078789D01*
X176548569Y-82069365D01*
X176611905Y-82098867D01*
X176633809Y-82124146D01*
X176661322Y-82166259D01*
X176661325Y-82166263D01*
X176661327Y-82166265D01*
X176822731Y-82341597D01*
X176822734Y-82341599D01*
X176822737Y-82341602D01*
X177010784Y-82487965D01*
X177010790Y-82487969D01*
X177010793Y-82487971D01*
X177220382Y-82601395D01*
X177445782Y-82678775D01*
X177680844Y-82718000D01*
X177680845Y-82718000D01*
X177919155Y-82718000D01*
X177919156Y-82718000D01*
X178154218Y-82678775D01*
X178379618Y-82601395D01*
X178589207Y-82487971D01*
X178777269Y-82341597D01*
X178938673Y-82166265D01*
X178966191Y-82124146D01*
X179019338Y-82078789D01*
X179088569Y-82069365D01*
X179151905Y-82098867D01*
X179173809Y-82124146D01*
X179201322Y-82166259D01*
X179201325Y-82166263D01*
X179201327Y-82166265D01*
X179362731Y-82341597D01*
X179362734Y-82341599D01*
X179362737Y-82341602D01*
X179550784Y-82487965D01*
X179550790Y-82487969D01*
X179550793Y-82487971D01*
X179760382Y-82601395D01*
X179985782Y-82678775D01*
X180220844Y-82718000D01*
X180220845Y-82718000D01*
X180459155Y-82718000D01*
X180459156Y-82718000D01*
X180694218Y-82678775D01*
X180919618Y-82601395D01*
X181129207Y-82487971D01*
X181317269Y-82341597D01*
X181478673Y-82166265D01*
X181609017Y-81966758D01*
X181704746Y-81748518D01*
X181763248Y-81517498D01*
X181771994Y-81411943D01*
X181782928Y-81280005D01*
X181782928Y-81279994D01*
X181763248Y-81042505D01*
X181763248Y-81042502D01*
X181704746Y-80811482D01*
X181609017Y-80593242D01*
X181535824Y-80481211D01*
X181478677Y-80393740D01*
X181478674Y-80393737D01*
X181478673Y-80393735D01*
X181317269Y-80218403D01*
X181317264Y-80218399D01*
X181317262Y-80218397D01*
X181129215Y-80072034D01*
X181129209Y-80072030D01*
X180919619Y-79958605D01*
X180919610Y-79958602D01*
X180694220Y-79881225D01*
X180537510Y-79855075D01*
X180459156Y-79842000D01*
X180220844Y-79842000D01*
X180162078Y-79851806D01*
X179985779Y-79881225D01*
X179760389Y-79958602D01*
X179760380Y-79958605D01*
X179550790Y-80072030D01*
X179550784Y-80072034D01*
X179362737Y-80218397D01*
X179362734Y-80218400D01*
X179201322Y-80393740D01*
X179173809Y-80435854D01*
X179120662Y-80481211D01*
X179051431Y-80490635D01*
X178988095Y-80461133D01*
X178966191Y-80435854D01*
X178938677Y-80393740D01*
X178938674Y-80393737D01*
X178938673Y-80393735D01*
X178777269Y-80218403D01*
X178777264Y-80218399D01*
X178777262Y-80218397D01*
X178589215Y-80072034D01*
X178589209Y-80072030D01*
X178379619Y-79958605D01*
X178379610Y-79958602D01*
X178154220Y-79881225D01*
X177997510Y-79855075D01*
X177919156Y-79842000D01*
X177680844Y-79842000D01*
X177622078Y-79851806D01*
X177445779Y-79881225D01*
X177220389Y-79958602D01*
X177220380Y-79958605D01*
X177010790Y-80072030D01*
X177010784Y-80072034D01*
X176822737Y-80218397D01*
X176822734Y-80218400D01*
X176661322Y-80393740D01*
X176633809Y-80435854D01*
X176580662Y-80481211D01*
X176511431Y-80490635D01*
X176448095Y-80461133D01*
X176426191Y-80435854D01*
X176398677Y-80393740D01*
X176398674Y-80393737D01*
X176398673Y-80393735D01*
X176237269Y-80218403D01*
X176237264Y-80218399D01*
X176237262Y-80218397D01*
X176049215Y-80072034D01*
X176049209Y-80072030D01*
X175839619Y-79958605D01*
X175839610Y-79958602D01*
X175614220Y-79881225D01*
X175457510Y-79855075D01*
X175379156Y-79842000D01*
X175140844Y-79842000D01*
X175082078Y-79851806D01*
X174905779Y-79881225D01*
X174680389Y-79958602D01*
X174680380Y-79958605D01*
X174470790Y-80072030D01*
X174470784Y-80072034D01*
X174282737Y-80218397D01*
X174282734Y-80218400D01*
X174121322Y-80393740D01*
X174093809Y-80435854D01*
X174040662Y-80481211D01*
X173971431Y-80490635D01*
X173908095Y-80461133D01*
X173886191Y-80435854D01*
X173858677Y-80393740D01*
X173858674Y-80393737D01*
X173858673Y-80393735D01*
X173697269Y-80218403D01*
X173697264Y-80218399D01*
X173697262Y-80218397D01*
X173509215Y-80072034D01*
X173509209Y-80072030D01*
X173299619Y-79958605D01*
X173299610Y-79958602D01*
X173074220Y-79881225D01*
X172917510Y-79855075D01*
X172839156Y-79842000D01*
X172600844Y-79842000D01*
X172542078Y-79851806D01*
X172365779Y-79881225D01*
X172140389Y-79958602D01*
X172140380Y-79958605D01*
X171930790Y-80072030D01*
X171930784Y-80072034D01*
X171742737Y-80218397D01*
X171742734Y-80218400D01*
X171581322Y-80393740D01*
X171450982Y-80593242D01*
X171355254Y-80811481D01*
X171296751Y-81042505D01*
X171277072Y-81279994D01*
X90175012Y-81279994D01*
X90173504Y-81251370D01*
X90208136Y-81190687D01*
X90217985Y-81182151D01*
X90300744Y-81117738D01*
X90469164Y-80934785D01*
X90605173Y-80726607D01*
X90623560Y-80684689D01*
X90668517Y-80631204D01*
X90735253Y-80610514D01*
X90737116Y-80610500D01*
X94528331Y-80610500D01*
X94528347Y-80610501D01*
X94535943Y-80610501D01*
X94694054Y-80610501D01*
X94694057Y-80610501D01*
X94846785Y-80569577D01*
X94896904Y-80540639D01*
X94983716Y-80490520D01*
X95095520Y-80378716D01*
X95095520Y-80378714D01*
X95105728Y-80368507D01*
X95105729Y-80368504D01*
X96732416Y-78741819D01*
X96793739Y-78708334D01*
X96820097Y-78705500D01*
X105086931Y-78705500D01*
X105086947Y-78705501D01*
X105094543Y-78705501D01*
X105252654Y-78705501D01*
X105252657Y-78705501D01*
X105405385Y-78664577D01*
X105463244Y-78631172D01*
X105463245Y-78631172D01*
X105542309Y-78585524D01*
X105542308Y-78585524D01*
X105542316Y-78585520D01*
X105654120Y-78473716D01*
X105654120Y-78473714D01*
X105664324Y-78463511D01*
X105664327Y-78463506D01*
X106470883Y-77656951D01*
X106532204Y-77623468D01*
X106590654Y-77624858D01*
X106702950Y-77654949D01*
X106867985Y-77669387D01*
X106933998Y-77675163D01*
X106934000Y-77675163D01*
X106934002Y-77675163D01*
X106991762Y-77670109D01*
X107165050Y-77654949D01*
X107389079Y-77594920D01*
X107599282Y-77496901D01*
X107789269Y-77363870D01*
X107953270Y-77199869D01*
X108086301Y-77009882D01*
X108091618Y-76998478D01*
X108137790Y-76946040D01*
X108204984Y-76926888D01*
X108271865Y-76947104D01*
X108316381Y-76998478D01*
X108321699Y-77009882D01*
X108454730Y-77199869D01*
X108618731Y-77363870D01*
X108808718Y-77496901D01*
X109018921Y-77594920D01*
X109242950Y-77654949D01*
X109407985Y-77669387D01*
X109473998Y-77675163D01*
X109474000Y-77675163D01*
X109474002Y-77675163D01*
X109531762Y-77670109D01*
X109705050Y-77654949D01*
X109929079Y-77594920D01*
X110139282Y-77496901D01*
X110329269Y-77363870D01*
X110493270Y-77199869D01*
X110626301Y-77009882D01*
X110631618Y-76998478D01*
X110677790Y-76946040D01*
X110744984Y-76926888D01*
X110811865Y-76947104D01*
X110856381Y-76998478D01*
X110861699Y-77009882D01*
X110994730Y-77199869D01*
X111158731Y-77363870D01*
X111348718Y-77496901D01*
X111558921Y-77594920D01*
X111782950Y-77654949D01*
X111947985Y-77669387D01*
X112013998Y-77675163D01*
X112014000Y-77675163D01*
X112014002Y-77675163D01*
X112071762Y-77670109D01*
X112245050Y-77654949D01*
X112469079Y-77594920D01*
X112679282Y-77496901D01*
X112869269Y-77363870D01*
X113033270Y-77199869D01*
X113166301Y-77009882D01*
X113171618Y-76998478D01*
X113217790Y-76946040D01*
X113284984Y-76926888D01*
X113351865Y-76947104D01*
X113396381Y-76998478D01*
X113401699Y-77009882D01*
X113534730Y-77199869D01*
X113698731Y-77363870D01*
X113888718Y-77496901D01*
X114098921Y-77594920D01*
X114322950Y-77654949D01*
X114487985Y-77669387D01*
X114553998Y-77675163D01*
X114554000Y-77675163D01*
X114554002Y-77675163D01*
X114611762Y-77670109D01*
X114785050Y-77654949D01*
X115009079Y-77594920D01*
X115219282Y-77496901D01*
X115409269Y-77363870D01*
X115573270Y-77199869D01*
X115706301Y-77009882D01*
X115711618Y-76998478D01*
X115757790Y-76946040D01*
X115824984Y-76926888D01*
X115891865Y-76947104D01*
X115936381Y-76998478D01*
X115941699Y-77009882D01*
X116074730Y-77199869D01*
X116238731Y-77363870D01*
X116428718Y-77496901D01*
X116638921Y-77594920D01*
X116862950Y-77654949D01*
X117027985Y-77669387D01*
X117093998Y-77675163D01*
X117094000Y-77675163D01*
X117094002Y-77675163D01*
X117151762Y-77670109D01*
X117325050Y-77654949D01*
X117549079Y-77594920D01*
X117759282Y-77496901D01*
X117949269Y-77363870D01*
X118113270Y-77199869D01*
X118246301Y-77009882D01*
X118251618Y-76998478D01*
X118297790Y-76946040D01*
X118364984Y-76926888D01*
X118431865Y-76947104D01*
X118476381Y-76998478D01*
X118481699Y-77009882D01*
X118614730Y-77199869D01*
X118778731Y-77363870D01*
X118968718Y-77496901D01*
X119178921Y-77594920D01*
X119402950Y-77654949D01*
X119567985Y-77669387D01*
X119633998Y-77675163D01*
X119634000Y-77675163D01*
X119634002Y-77675163D01*
X119691762Y-77670109D01*
X119865050Y-77654949D01*
X120089079Y-77594920D01*
X120299282Y-77496901D01*
X120489269Y-77363870D01*
X120653270Y-77199869D01*
X120786301Y-77009882D01*
X120791618Y-76998478D01*
X120837790Y-76946040D01*
X120904984Y-76926888D01*
X120971865Y-76947104D01*
X121016381Y-76998478D01*
X121021699Y-77009882D01*
X121154730Y-77199869D01*
X121318731Y-77363870D01*
X121508718Y-77496901D01*
X121718921Y-77594920D01*
X121942950Y-77654949D01*
X122107985Y-77669387D01*
X122173998Y-77675163D01*
X122174000Y-77675163D01*
X122174002Y-77675163D01*
X122231762Y-77670109D01*
X122405050Y-77654949D01*
X122629079Y-77594920D01*
X122839282Y-77496901D01*
X123029269Y-77363870D01*
X123193270Y-77199869D01*
X123326301Y-77009882D01*
X123331618Y-76998478D01*
X123377790Y-76946040D01*
X123444984Y-76926888D01*
X123511865Y-76947104D01*
X123556381Y-76998478D01*
X123561699Y-77009882D01*
X123694730Y-77199869D01*
X123858731Y-77363870D01*
X124048718Y-77496901D01*
X124258921Y-77594920D01*
X124482950Y-77654949D01*
X124647985Y-77669387D01*
X124713998Y-77675163D01*
X124714000Y-77675163D01*
X124714002Y-77675163D01*
X124771762Y-77670109D01*
X124945050Y-77654949D01*
X125169079Y-77594920D01*
X125379282Y-77496901D01*
X125569269Y-77363870D01*
X125733270Y-77199869D01*
X125866301Y-77009882D01*
X125871618Y-76998478D01*
X125917790Y-76946040D01*
X125984984Y-76926888D01*
X126051865Y-76947104D01*
X126096381Y-76998478D01*
X126101699Y-77009882D01*
X126234730Y-77199869D01*
X126398731Y-77363870D01*
X126588718Y-77496901D01*
X126798921Y-77594920D01*
X127022950Y-77654949D01*
X127187985Y-77669387D01*
X127253998Y-77675163D01*
X127254000Y-77675163D01*
X127254002Y-77675163D01*
X127311762Y-77670109D01*
X127485050Y-77654949D01*
X127709079Y-77594920D01*
X127919282Y-77496901D01*
X128109269Y-77363870D01*
X128273270Y-77199869D01*
X128406301Y-77009882D01*
X128411618Y-76998478D01*
X128457790Y-76946040D01*
X128524984Y-76926888D01*
X128591865Y-76947104D01*
X128636381Y-76998478D01*
X128641699Y-77009882D01*
X128774730Y-77199869D01*
X128938731Y-77363870D01*
X129128718Y-77496901D01*
X129338921Y-77594920D01*
X129562950Y-77654949D01*
X129727985Y-77669387D01*
X129793998Y-77675163D01*
X129794000Y-77675163D01*
X129794002Y-77675163D01*
X129851762Y-77670109D01*
X130025050Y-77654949D01*
X130249079Y-77594920D01*
X130459282Y-77496901D01*
X130649269Y-77363870D01*
X130813270Y-77199869D01*
X130946301Y-77009882D01*
X130951618Y-76998478D01*
X130997790Y-76946040D01*
X131064984Y-76926888D01*
X131131865Y-76947104D01*
X131176381Y-76998478D01*
X131181699Y-77009882D01*
X131314730Y-77199869D01*
X131478731Y-77363870D01*
X131668718Y-77496901D01*
X131878921Y-77594920D01*
X132102950Y-77654949D01*
X132267985Y-77669387D01*
X132333998Y-77675163D01*
X132334000Y-77675163D01*
X132334002Y-77675163D01*
X132391762Y-77670109D01*
X132565050Y-77654949D01*
X132789079Y-77594920D01*
X132999282Y-77496901D01*
X133189269Y-77363870D01*
X133353270Y-77199869D01*
X133486301Y-77009882D01*
X133491618Y-76998478D01*
X133537790Y-76946040D01*
X133604984Y-76926888D01*
X133671865Y-76947104D01*
X133716381Y-76998478D01*
X133721699Y-77009882D01*
X133854730Y-77199869D01*
X134018731Y-77363870D01*
X134208718Y-77496901D01*
X134418921Y-77594920D01*
X134642950Y-77654949D01*
X134807985Y-77669387D01*
X134873998Y-77675163D01*
X134874000Y-77675163D01*
X134874002Y-77675163D01*
X134931762Y-77670109D01*
X135105050Y-77654949D01*
X135329079Y-77594920D01*
X135539282Y-77496901D01*
X135729269Y-77363870D01*
X135893270Y-77199869D01*
X136026301Y-77009882D01*
X136031618Y-76998478D01*
X136077790Y-76946040D01*
X136144984Y-76926888D01*
X136211865Y-76947104D01*
X136256381Y-76998478D01*
X136261699Y-77009882D01*
X136394730Y-77199869D01*
X136558731Y-77363870D01*
X136748718Y-77496901D01*
X136958921Y-77594920D01*
X137182950Y-77654949D01*
X137347985Y-77669387D01*
X137413998Y-77675163D01*
X137414000Y-77675163D01*
X137414002Y-77675163D01*
X137471762Y-77670109D01*
X137645050Y-77654949D01*
X137869079Y-77594920D01*
X138079282Y-77496901D01*
X138269269Y-77363870D01*
X138433270Y-77199869D01*
X138566301Y-77009882D01*
X138571618Y-76998478D01*
X138617790Y-76946040D01*
X138684984Y-76926888D01*
X138751865Y-76947104D01*
X138796381Y-76998478D01*
X138801699Y-77009882D01*
X138934730Y-77199869D01*
X139098731Y-77363870D01*
X139288718Y-77496901D01*
X139498921Y-77594920D01*
X139722950Y-77654949D01*
X139887985Y-77669387D01*
X139953998Y-77675163D01*
X139954000Y-77675163D01*
X139954002Y-77675163D01*
X140011762Y-77670109D01*
X140185050Y-77654949D01*
X140409079Y-77594920D01*
X140619282Y-77496901D01*
X140809269Y-77363870D01*
X140973270Y-77199869D01*
X141106301Y-77009882D01*
X141111618Y-76998478D01*
X141157790Y-76946040D01*
X141224984Y-76926888D01*
X141291865Y-76947104D01*
X141336381Y-76998478D01*
X141341699Y-77009882D01*
X141474730Y-77199869D01*
X141638731Y-77363870D01*
X141828718Y-77496901D01*
X142038921Y-77594920D01*
X142262950Y-77654949D01*
X142427985Y-77669387D01*
X142493998Y-77675163D01*
X142494000Y-77675163D01*
X142494002Y-77675163D01*
X142551762Y-77670109D01*
X142725050Y-77654949D01*
X142949079Y-77594920D01*
X143159282Y-77496901D01*
X143349269Y-77363870D01*
X143513270Y-77199869D01*
X143646301Y-77009882D01*
X143651618Y-76998478D01*
X143697790Y-76946040D01*
X143764984Y-76926888D01*
X143831865Y-76947104D01*
X143876381Y-76998478D01*
X143881699Y-77009882D01*
X144014730Y-77199869D01*
X144178731Y-77363870D01*
X144368718Y-77496901D01*
X144578921Y-77594920D01*
X144802950Y-77654949D01*
X144967985Y-77669387D01*
X145033998Y-77675163D01*
X145034000Y-77675163D01*
X145034002Y-77675163D01*
X145091762Y-77670109D01*
X145265050Y-77654949D01*
X145489079Y-77594920D01*
X145699282Y-77496901D01*
X145889269Y-77363870D01*
X146053270Y-77199869D01*
X146186301Y-77009882D01*
X146284320Y-76799679D01*
X146344349Y-76575650D01*
X146361675Y-76377607D01*
X146364563Y-76344601D01*
X146364563Y-76344598D01*
X146354333Y-76227669D01*
X146344349Y-76113550D01*
X146284320Y-75889521D01*
X146186301Y-75679319D01*
X146186299Y-75679316D01*
X146186298Y-75679314D01*
X146053273Y-75489335D01*
X146053268Y-75489329D01*
X145889269Y-75325330D01*
X145889263Y-75325326D01*
X145699282Y-75192299D01*
X145489079Y-75094280D01*
X145489076Y-75094279D01*
X145489074Y-75094278D01*
X145265051Y-75034251D01*
X145265044Y-75034250D01*
X145034002Y-75014037D01*
X145033998Y-75014037D01*
X144802955Y-75034250D01*
X144802948Y-75034251D01*
X144578917Y-75094281D01*
X144368718Y-75192299D01*
X144368714Y-75192301D01*
X144178735Y-75325326D01*
X144178729Y-75325331D01*
X144014731Y-75489329D01*
X144014726Y-75489335D01*
X143881701Y-75679314D01*
X143881698Y-75679320D01*
X143876381Y-75690723D01*
X143830207Y-75743162D01*
X143763013Y-75762312D01*
X143696133Y-75742095D01*
X143651619Y-75690723D01*
X143646301Y-75679320D01*
X143646298Y-75679314D01*
X143513273Y-75489335D01*
X143513268Y-75489329D01*
X143349269Y-75325330D01*
X143349263Y-75325326D01*
X143159282Y-75192299D01*
X142949079Y-75094280D01*
X142949076Y-75094279D01*
X142949074Y-75094278D01*
X142725051Y-75034251D01*
X142725044Y-75034250D01*
X142494002Y-75014037D01*
X142493998Y-75014037D01*
X142262955Y-75034250D01*
X142262948Y-75034251D01*
X142038917Y-75094281D01*
X141828718Y-75192299D01*
X141828714Y-75192301D01*
X141638735Y-75325326D01*
X141638729Y-75325331D01*
X141474731Y-75489329D01*
X141474726Y-75489335D01*
X141341701Y-75679314D01*
X141341698Y-75679320D01*
X141336381Y-75690723D01*
X141290207Y-75743162D01*
X141223013Y-75762312D01*
X141156133Y-75742095D01*
X141111619Y-75690723D01*
X141106301Y-75679320D01*
X141106298Y-75679314D01*
X140973273Y-75489335D01*
X140973268Y-75489329D01*
X140809269Y-75325330D01*
X140809263Y-75325326D01*
X140619282Y-75192299D01*
X140409079Y-75094280D01*
X140409076Y-75094279D01*
X140409074Y-75094278D01*
X140185051Y-75034251D01*
X140185044Y-75034250D01*
X139954002Y-75014037D01*
X139953998Y-75014037D01*
X139722955Y-75034250D01*
X139722948Y-75034251D01*
X139498917Y-75094281D01*
X139288718Y-75192299D01*
X139288714Y-75192301D01*
X139098735Y-75325326D01*
X139098729Y-75325331D01*
X138934731Y-75489329D01*
X138934726Y-75489335D01*
X138801701Y-75679314D01*
X138801698Y-75679320D01*
X138796381Y-75690723D01*
X138750207Y-75743162D01*
X138683013Y-75762312D01*
X138616133Y-75742095D01*
X138571619Y-75690723D01*
X138566301Y-75679320D01*
X138566298Y-75679314D01*
X138433273Y-75489335D01*
X138433268Y-75489329D01*
X138269269Y-75325330D01*
X138269263Y-75325326D01*
X138079282Y-75192299D01*
X137869079Y-75094280D01*
X137869076Y-75094279D01*
X137869074Y-75094278D01*
X137645051Y-75034251D01*
X137645044Y-75034250D01*
X137414002Y-75014037D01*
X137413998Y-75014037D01*
X137182955Y-75034250D01*
X137182948Y-75034251D01*
X136958917Y-75094281D01*
X136748718Y-75192299D01*
X136748714Y-75192301D01*
X136558735Y-75325326D01*
X136558729Y-75325331D01*
X136394731Y-75489329D01*
X136394726Y-75489335D01*
X136261701Y-75679314D01*
X136261698Y-75679320D01*
X136256381Y-75690723D01*
X136210207Y-75743162D01*
X136143013Y-75762312D01*
X136076133Y-75742095D01*
X136031619Y-75690723D01*
X136026301Y-75679320D01*
X136026298Y-75679314D01*
X135893273Y-75489335D01*
X135893268Y-75489329D01*
X135729269Y-75325330D01*
X135729263Y-75325326D01*
X135539282Y-75192299D01*
X135329079Y-75094280D01*
X135329076Y-75094279D01*
X135329074Y-75094278D01*
X135105051Y-75034251D01*
X135105044Y-75034250D01*
X134874002Y-75014037D01*
X134873998Y-75014037D01*
X134642955Y-75034250D01*
X134642948Y-75034251D01*
X134418917Y-75094281D01*
X134208718Y-75192299D01*
X134208714Y-75192301D01*
X134018735Y-75325326D01*
X134018729Y-75325331D01*
X133854731Y-75489329D01*
X133854726Y-75489335D01*
X133721701Y-75679314D01*
X133721698Y-75679320D01*
X133716381Y-75690723D01*
X133670207Y-75743162D01*
X133603013Y-75762312D01*
X133536133Y-75742095D01*
X133491619Y-75690723D01*
X133486301Y-75679320D01*
X133486298Y-75679314D01*
X133353273Y-75489335D01*
X133353268Y-75489329D01*
X133189269Y-75325330D01*
X133189263Y-75325326D01*
X132999282Y-75192299D01*
X132789079Y-75094280D01*
X132789076Y-75094279D01*
X132789074Y-75094278D01*
X132565051Y-75034251D01*
X132565044Y-75034250D01*
X132334002Y-75014037D01*
X132333998Y-75014037D01*
X132102955Y-75034250D01*
X132102948Y-75034251D01*
X131878917Y-75094281D01*
X131668718Y-75192299D01*
X131668714Y-75192301D01*
X131478735Y-75325326D01*
X131478729Y-75325331D01*
X131314731Y-75489329D01*
X131314726Y-75489335D01*
X131181701Y-75679314D01*
X131181698Y-75679320D01*
X131176381Y-75690723D01*
X131130207Y-75743162D01*
X131063013Y-75762312D01*
X130996133Y-75742095D01*
X130951619Y-75690723D01*
X130946301Y-75679320D01*
X130946298Y-75679314D01*
X130813273Y-75489335D01*
X130813268Y-75489329D01*
X130649269Y-75325330D01*
X130649263Y-75325326D01*
X130459282Y-75192299D01*
X130249079Y-75094280D01*
X130249076Y-75094279D01*
X130249074Y-75094278D01*
X130025051Y-75034251D01*
X130025044Y-75034250D01*
X129794002Y-75014037D01*
X129793998Y-75014037D01*
X129562955Y-75034250D01*
X129562948Y-75034251D01*
X129338917Y-75094281D01*
X129128718Y-75192299D01*
X129128714Y-75192301D01*
X128938735Y-75325326D01*
X128938729Y-75325331D01*
X128774731Y-75489329D01*
X128774726Y-75489335D01*
X128641701Y-75679314D01*
X128641698Y-75679320D01*
X128636381Y-75690723D01*
X128590207Y-75743162D01*
X128523013Y-75762312D01*
X128456133Y-75742095D01*
X128411619Y-75690723D01*
X128406301Y-75679320D01*
X128406298Y-75679314D01*
X128273273Y-75489335D01*
X128273268Y-75489329D01*
X128109269Y-75325330D01*
X128109263Y-75325326D01*
X127919282Y-75192299D01*
X127709079Y-75094280D01*
X127709076Y-75094279D01*
X127709074Y-75094278D01*
X127485051Y-75034251D01*
X127485044Y-75034250D01*
X127254002Y-75014037D01*
X127253998Y-75014037D01*
X127022955Y-75034250D01*
X127022948Y-75034251D01*
X126798917Y-75094281D01*
X126588718Y-75192299D01*
X126588714Y-75192301D01*
X126398735Y-75325326D01*
X126398729Y-75325331D01*
X126234731Y-75489329D01*
X126234726Y-75489335D01*
X126101701Y-75679314D01*
X126101698Y-75679320D01*
X126096381Y-75690723D01*
X126050207Y-75743162D01*
X125983013Y-75762312D01*
X125916133Y-75742095D01*
X125871619Y-75690723D01*
X125866301Y-75679320D01*
X125866298Y-75679314D01*
X125733273Y-75489335D01*
X125733268Y-75489329D01*
X125569269Y-75325330D01*
X125569263Y-75325326D01*
X125379282Y-75192299D01*
X125169079Y-75094280D01*
X125169076Y-75094279D01*
X125169074Y-75094278D01*
X124945051Y-75034251D01*
X124945044Y-75034250D01*
X124714002Y-75014037D01*
X124713998Y-75014037D01*
X124482955Y-75034250D01*
X124482948Y-75034251D01*
X124258917Y-75094281D01*
X124048718Y-75192299D01*
X124048714Y-75192301D01*
X123858735Y-75325326D01*
X123858729Y-75325331D01*
X123694731Y-75489329D01*
X123694726Y-75489335D01*
X123561701Y-75679314D01*
X123561698Y-75679320D01*
X123556381Y-75690723D01*
X123510207Y-75743162D01*
X123443013Y-75762312D01*
X123376133Y-75742095D01*
X123331619Y-75690723D01*
X123326301Y-75679320D01*
X123326298Y-75679314D01*
X123193273Y-75489335D01*
X123193268Y-75489329D01*
X123029269Y-75325330D01*
X123029263Y-75325326D01*
X122839282Y-75192299D01*
X122629079Y-75094280D01*
X122629076Y-75094279D01*
X122629074Y-75094278D01*
X122405051Y-75034251D01*
X122405044Y-75034250D01*
X122174002Y-75014037D01*
X122173998Y-75014037D01*
X121942955Y-75034250D01*
X121942948Y-75034251D01*
X121718917Y-75094281D01*
X121508718Y-75192299D01*
X121508714Y-75192301D01*
X121318735Y-75325326D01*
X121318729Y-75325331D01*
X121154731Y-75489329D01*
X121154726Y-75489335D01*
X121021701Y-75679314D01*
X121021698Y-75679320D01*
X121016381Y-75690723D01*
X120970207Y-75743162D01*
X120903013Y-75762312D01*
X120836133Y-75742095D01*
X120791619Y-75690723D01*
X120786301Y-75679320D01*
X120786298Y-75679314D01*
X120653273Y-75489335D01*
X120653268Y-75489329D01*
X120489269Y-75325330D01*
X120489263Y-75325326D01*
X120299282Y-75192299D01*
X120089079Y-75094280D01*
X120089076Y-75094279D01*
X120089074Y-75094278D01*
X119865051Y-75034251D01*
X119865044Y-75034250D01*
X119634002Y-75014037D01*
X119633998Y-75014037D01*
X119402955Y-75034250D01*
X119402948Y-75034251D01*
X119178917Y-75094281D01*
X118968718Y-75192299D01*
X118968714Y-75192301D01*
X118778735Y-75325326D01*
X118778729Y-75325331D01*
X118614731Y-75489329D01*
X118614726Y-75489335D01*
X118481701Y-75679314D01*
X118481698Y-75679320D01*
X118476381Y-75690723D01*
X118430207Y-75743162D01*
X118363013Y-75762312D01*
X118296133Y-75742095D01*
X118251619Y-75690723D01*
X118246301Y-75679320D01*
X118246298Y-75679314D01*
X118113273Y-75489335D01*
X118113268Y-75489329D01*
X117949269Y-75325330D01*
X117949263Y-75325326D01*
X117759282Y-75192299D01*
X117549079Y-75094280D01*
X117549076Y-75094279D01*
X117549074Y-75094278D01*
X117325051Y-75034251D01*
X117325044Y-75034250D01*
X117094002Y-75014037D01*
X117093998Y-75014037D01*
X116862955Y-75034250D01*
X116862948Y-75034251D01*
X116638917Y-75094281D01*
X116428718Y-75192299D01*
X116428714Y-75192301D01*
X116238735Y-75325326D01*
X116238729Y-75325331D01*
X116074731Y-75489329D01*
X116074726Y-75489335D01*
X115941701Y-75679314D01*
X115941698Y-75679320D01*
X115936381Y-75690723D01*
X115890207Y-75743162D01*
X115823013Y-75762312D01*
X115756133Y-75742095D01*
X115711619Y-75690723D01*
X115706301Y-75679320D01*
X115706298Y-75679314D01*
X115573273Y-75489335D01*
X115573268Y-75489329D01*
X115409269Y-75325330D01*
X115409263Y-75325326D01*
X115219282Y-75192299D01*
X115009079Y-75094280D01*
X115009076Y-75094279D01*
X115009074Y-75094278D01*
X114785051Y-75034251D01*
X114785044Y-75034250D01*
X114554002Y-75014037D01*
X114553998Y-75014037D01*
X114322955Y-75034250D01*
X114322948Y-75034251D01*
X114098917Y-75094281D01*
X113888718Y-75192299D01*
X113888714Y-75192301D01*
X113698735Y-75325326D01*
X113698729Y-75325331D01*
X113534731Y-75489329D01*
X113534726Y-75489335D01*
X113401701Y-75679314D01*
X113401698Y-75679320D01*
X113396381Y-75690723D01*
X113350207Y-75743162D01*
X113283013Y-75762312D01*
X113216133Y-75742095D01*
X113171619Y-75690723D01*
X113166301Y-75679320D01*
X113166298Y-75679314D01*
X113033273Y-75489335D01*
X113033268Y-75489329D01*
X112869269Y-75325330D01*
X112869263Y-75325326D01*
X112679282Y-75192299D01*
X112469079Y-75094280D01*
X112469076Y-75094279D01*
X112469074Y-75094278D01*
X112245051Y-75034251D01*
X112245044Y-75034250D01*
X112014002Y-75014037D01*
X112013998Y-75014037D01*
X111782955Y-75034250D01*
X111782948Y-75034251D01*
X111558917Y-75094281D01*
X111348718Y-75192299D01*
X111348714Y-75192301D01*
X111158735Y-75325326D01*
X111158729Y-75325331D01*
X110994731Y-75489329D01*
X110994726Y-75489335D01*
X110861701Y-75679314D01*
X110861698Y-75679320D01*
X110856381Y-75690723D01*
X110810207Y-75743162D01*
X110743013Y-75762312D01*
X110676133Y-75742095D01*
X110631619Y-75690723D01*
X110626301Y-75679320D01*
X110626298Y-75679314D01*
X110493273Y-75489335D01*
X110493268Y-75489329D01*
X110329269Y-75325330D01*
X110329263Y-75325326D01*
X110139282Y-75192299D01*
X109929079Y-75094280D01*
X109929076Y-75094279D01*
X109929074Y-75094278D01*
X109705051Y-75034251D01*
X109705044Y-75034250D01*
X109474002Y-75014037D01*
X109473998Y-75014037D01*
X109242955Y-75034250D01*
X109242948Y-75034251D01*
X109018917Y-75094281D01*
X108808718Y-75192299D01*
X108808714Y-75192301D01*
X108618735Y-75325326D01*
X108618729Y-75325331D01*
X108454731Y-75489329D01*
X108454726Y-75489335D01*
X108321701Y-75679314D01*
X108321698Y-75679320D01*
X108316381Y-75690723D01*
X108270207Y-75743162D01*
X108203013Y-75762312D01*
X108136133Y-75742095D01*
X108091619Y-75690723D01*
X108086301Y-75679320D01*
X108086298Y-75679314D01*
X107953273Y-75489335D01*
X107953268Y-75489329D01*
X107789269Y-75325330D01*
X107789263Y-75325326D01*
X107599282Y-75192299D01*
X107389079Y-75094280D01*
X107389076Y-75094279D01*
X107389074Y-75094278D01*
X107165051Y-75034251D01*
X107165044Y-75034250D01*
X106934002Y-75014037D01*
X106933998Y-75014037D01*
X106702955Y-75034250D01*
X106702948Y-75034251D01*
X106478917Y-75094281D01*
X106268718Y-75192299D01*
X106268714Y-75192301D01*
X106078735Y-75325326D01*
X106078729Y-75325331D01*
X105914731Y-75489329D01*
X105914726Y-75489335D01*
X105781701Y-75679314D01*
X105781698Y-75679320D01*
X105776381Y-75690723D01*
X105730207Y-75743162D01*
X105663013Y-75762312D01*
X105596133Y-75742095D01*
X105551619Y-75690723D01*
X105546301Y-75679320D01*
X105546298Y-75679314D01*
X105413273Y-75489335D01*
X105413268Y-75489329D01*
X105249269Y-75325330D01*
X105249263Y-75325326D01*
X105059282Y-75192299D01*
X104849079Y-75094280D01*
X104849076Y-75094279D01*
X104849074Y-75094278D01*
X104625051Y-75034251D01*
X104625044Y-75034250D01*
X104394002Y-75014037D01*
X104393998Y-75014037D01*
X104162955Y-75034250D01*
X104162948Y-75034251D01*
X103938917Y-75094281D01*
X103728718Y-75192299D01*
X103728714Y-75192301D01*
X103538735Y-75325326D01*
X103538729Y-75325331D01*
X103374731Y-75489329D01*
X103374726Y-75489335D01*
X103241701Y-75679314D01*
X103241698Y-75679320D01*
X103236381Y-75690723D01*
X103190207Y-75743162D01*
X103123013Y-75762312D01*
X103056133Y-75742095D01*
X103011619Y-75690723D01*
X103006301Y-75679320D01*
X103006298Y-75679314D01*
X102873273Y-75489335D01*
X102873268Y-75489329D01*
X102709269Y-75325330D01*
X102709263Y-75325326D01*
X102519282Y-75192299D01*
X102309079Y-75094280D01*
X102309076Y-75094279D01*
X102309074Y-75094278D01*
X102085051Y-75034251D01*
X102085044Y-75034250D01*
X101854002Y-75014037D01*
X101853998Y-75014037D01*
X101622955Y-75034250D01*
X101622948Y-75034251D01*
X101398917Y-75094281D01*
X101188718Y-75192299D01*
X101188714Y-75192301D01*
X100998735Y-75325326D01*
X100998729Y-75325331D01*
X100834731Y-75489329D01*
X100834726Y-75489335D01*
X100701701Y-75679314D01*
X100701698Y-75679320D01*
X100696381Y-75690723D01*
X100650207Y-75743162D01*
X100583013Y-75762312D01*
X100516133Y-75742095D01*
X100471619Y-75690723D01*
X100466301Y-75679320D01*
X100466298Y-75679314D01*
X100333273Y-75489335D01*
X100333268Y-75489329D01*
X100169269Y-75325330D01*
X100169263Y-75325326D01*
X99979282Y-75192299D01*
X99769079Y-75094280D01*
X99769076Y-75094279D01*
X99769074Y-75094278D01*
X99545051Y-75034251D01*
X99545044Y-75034250D01*
X99314002Y-75014037D01*
X99313998Y-75014037D01*
X99082955Y-75034250D01*
X99082948Y-75034251D01*
X98858917Y-75094281D01*
X98648718Y-75192299D01*
X98648714Y-75192301D01*
X98458735Y-75325326D01*
X98458729Y-75325331D01*
X98294731Y-75489329D01*
X98294726Y-75489335D01*
X98161701Y-75679314D01*
X98161699Y-75679318D01*
X98063681Y-75889517D01*
X98003651Y-76113548D01*
X98003650Y-76113555D01*
X97983437Y-76344598D01*
X97983437Y-76344601D01*
X98003650Y-76575644D01*
X98003652Y-76575655D01*
X98033739Y-76687943D01*
X98032076Y-76757793D01*
X98001649Y-76807714D01*
X97976187Y-76833178D01*
X97914865Y-76866665D01*
X97888502Y-76869500D01*
X96366301Y-76869500D01*
X96299262Y-76849815D01*
X96253507Y-76797011D01*
X96248595Y-76784504D01*
X96239744Y-76757793D01*
X96220814Y-76700666D01*
X96128712Y-76551344D01*
X96004656Y-76427288D01*
X95899643Y-76362516D01*
X95855336Y-76335187D01*
X95855331Y-76335185D01*
X95853862Y-76334698D01*
X95688797Y-76280001D01*
X95688795Y-76280000D01*
X95586010Y-76269500D01*
X94960998Y-76269500D01*
X94960980Y-76269501D01*
X94858203Y-76280000D01*
X94858200Y-76280001D01*
X94691668Y-76335185D01*
X94691663Y-76335187D01*
X94542342Y-76427289D01*
X94448681Y-76520951D01*
X94387358Y-76554436D01*
X94317666Y-76549452D01*
X94273319Y-76520951D01*
X94179657Y-76427289D01*
X94179656Y-76427288D01*
X94074643Y-76362516D01*
X94030336Y-76335187D01*
X94030331Y-76335185D01*
X94028862Y-76334698D01*
X93863797Y-76280001D01*
X93863795Y-76280000D01*
X93761010Y-76269500D01*
X93135998Y-76269500D01*
X93135980Y-76269501D01*
X93033203Y-76280000D01*
X93033200Y-76280001D01*
X92866668Y-76335185D01*
X92866663Y-76335187D01*
X92717342Y-76427289D01*
X92593289Y-76551342D01*
X92501187Y-76700663D01*
X92501185Y-76700668D01*
X92473405Y-76784504D01*
X92433632Y-76841949D01*
X92369116Y-76868772D01*
X92355699Y-76869500D01*
X90905499Y-76869500D01*
X90838460Y-76849815D01*
X90792705Y-76797011D01*
X90781499Y-76745500D01*
X90781499Y-76422129D01*
X90781498Y-76422123D01*
X90781497Y-76422116D01*
X90775091Y-76362517D01*
X90768408Y-76344600D01*
X90724797Y-76227671D01*
X90724793Y-76227664D01*
X90638547Y-76112455D01*
X90638544Y-76112452D01*
X90523335Y-76026206D01*
X90523328Y-76026202D01*
X90388482Y-75975908D01*
X90388483Y-75975908D01*
X90328883Y-75969501D01*
X90328881Y-75969500D01*
X90328873Y-75969500D01*
X90328864Y-75969500D01*
X88233129Y-75969500D01*
X88233123Y-75969501D01*
X88173516Y-75975908D01*
X88038671Y-76026202D01*
X88038664Y-76026206D01*
X87923455Y-76112452D01*
X87923452Y-76112455D01*
X87837206Y-76227664D01*
X87837202Y-76227671D01*
X87786908Y-76362517D01*
X87780501Y-76422116D01*
X87780501Y-76422123D01*
X87780500Y-76422135D01*
X87780500Y-78517870D01*
X87780501Y-78517876D01*
X87786908Y-78577483D01*
X87837202Y-78712328D01*
X87837206Y-78712335D01*
X87923452Y-78827544D01*
X87923455Y-78827547D01*
X88038664Y-78913793D01*
X88043361Y-78916358D01*
X88092766Y-78965764D01*
X88107617Y-79034037D01*
X88087742Y-79093011D01*
X87956826Y-79293393D01*
X87856936Y-79521118D01*
X87795892Y-79762175D01*
X87795890Y-79762187D01*
X87775357Y-80009994D01*
X84320500Y-80009994D01*
X84320500Y-70685577D01*
X84340185Y-70618538D01*
X84392989Y-70572783D01*
X84462147Y-70562839D01*
X84525703Y-70591864D01*
X84558521Y-70636840D01*
X84570539Y-70664958D01*
X84774863Y-71044655D01*
X84774867Y-71044661D01*
X84774867Y-71044662D01*
X85012394Y-71404501D01*
X85012404Y-71404514D01*
X85281225Y-71741607D01*
X85281237Y-71741620D01*
X85472911Y-71942095D01*
X85579210Y-72053274D01*
X85903920Y-72336965D01*
X86252753Y-72590407D01*
X86622900Y-72811560D01*
X86622903Y-72811561D01*
X86622904Y-72811562D01*
X86622906Y-72811563D01*
X87011372Y-72998639D01*
X87011386Y-72998645D01*
X87415055Y-73150144D01*
X87415059Y-73150145D01*
X87415069Y-73150149D01*
X87830711Y-73264859D01*
X88254964Y-73341850D01*
X88684409Y-73380500D01*
X88684416Y-73380500D01*
X89115584Y-73380500D01*
X89115591Y-73380500D01*
X89545036Y-73341850D01*
X89969289Y-73264859D01*
X90384931Y-73150149D01*
X90788619Y-72998643D01*
X91177100Y-72811560D01*
X91547247Y-72590407D01*
X91610298Y-72544598D01*
X97983437Y-72544598D01*
X97983437Y-72544601D01*
X98003650Y-72775644D01*
X98003651Y-72775651D01*
X98063678Y-72999674D01*
X98063679Y-72999676D01*
X98063680Y-72999679D01*
X98161699Y-73209882D01*
X98294730Y-73399869D01*
X98458731Y-73563870D01*
X98648718Y-73696901D01*
X98858921Y-73794920D01*
X99082950Y-73854949D01*
X99247985Y-73869387D01*
X99313998Y-73875163D01*
X99314000Y-73875163D01*
X99314002Y-73875163D01*
X99371762Y-73870109D01*
X99545050Y-73854949D01*
X99769079Y-73794920D01*
X99979282Y-73696901D01*
X100169269Y-73563870D01*
X100333270Y-73399869D01*
X100466301Y-73209882D01*
X100471618Y-73198478D01*
X100517790Y-73146040D01*
X100584984Y-73126888D01*
X100651865Y-73147104D01*
X100696381Y-73198478D01*
X100701699Y-73209882D01*
X100834730Y-73399869D01*
X100998731Y-73563870D01*
X101188718Y-73696901D01*
X101398921Y-73794920D01*
X101622950Y-73854949D01*
X101787985Y-73869387D01*
X101853998Y-73875163D01*
X101854000Y-73875163D01*
X101854002Y-73875163D01*
X101911762Y-73870109D01*
X102085050Y-73854949D01*
X102309079Y-73794920D01*
X102519282Y-73696901D01*
X102709269Y-73563870D01*
X102873270Y-73399869D01*
X103006301Y-73209882D01*
X103011618Y-73198478D01*
X103057790Y-73146040D01*
X103124984Y-73126888D01*
X103191865Y-73147104D01*
X103236381Y-73198478D01*
X103241699Y-73209882D01*
X103374730Y-73399869D01*
X103538731Y-73563870D01*
X103728718Y-73696901D01*
X103938921Y-73794920D01*
X104162950Y-73854949D01*
X104327985Y-73869387D01*
X104393998Y-73875163D01*
X104394000Y-73875163D01*
X104394002Y-73875163D01*
X104451762Y-73870109D01*
X104625050Y-73854949D01*
X104849079Y-73794920D01*
X105059282Y-73696901D01*
X105249269Y-73563870D01*
X105413270Y-73399869D01*
X105546301Y-73209882D01*
X105551618Y-73198478D01*
X105597790Y-73146040D01*
X105664984Y-73126888D01*
X105731865Y-73147104D01*
X105776381Y-73198478D01*
X105781699Y-73209882D01*
X105914730Y-73399869D01*
X106078731Y-73563870D01*
X106268718Y-73696901D01*
X106478921Y-73794920D01*
X106702950Y-73854949D01*
X106867985Y-73869387D01*
X106933998Y-73875163D01*
X106934000Y-73875163D01*
X106934002Y-73875163D01*
X106991762Y-73870109D01*
X107165050Y-73854949D01*
X107389079Y-73794920D01*
X107599282Y-73696901D01*
X107789269Y-73563870D01*
X107953270Y-73399869D01*
X108086301Y-73209882D01*
X108091618Y-73198478D01*
X108137790Y-73146040D01*
X108204984Y-73126888D01*
X108271865Y-73147104D01*
X108316381Y-73198478D01*
X108321699Y-73209882D01*
X108454730Y-73399869D01*
X108618731Y-73563870D01*
X108808718Y-73696901D01*
X109018921Y-73794920D01*
X109242950Y-73854949D01*
X109407985Y-73869387D01*
X109473998Y-73875163D01*
X109474000Y-73875163D01*
X109474002Y-73875163D01*
X109531762Y-73870109D01*
X109705050Y-73854949D01*
X109929079Y-73794920D01*
X110139282Y-73696901D01*
X110329269Y-73563870D01*
X110493270Y-73399869D01*
X110626301Y-73209882D01*
X110631618Y-73198478D01*
X110677790Y-73146040D01*
X110744984Y-73126888D01*
X110811865Y-73147104D01*
X110856381Y-73198478D01*
X110861699Y-73209882D01*
X110994730Y-73399869D01*
X111158731Y-73563870D01*
X111348718Y-73696901D01*
X111558921Y-73794920D01*
X111782950Y-73854949D01*
X111947985Y-73869387D01*
X112013998Y-73875163D01*
X112014000Y-73875163D01*
X112014002Y-73875163D01*
X112071762Y-73870109D01*
X112245050Y-73854949D01*
X112469079Y-73794920D01*
X112679282Y-73696901D01*
X112869269Y-73563870D01*
X113033270Y-73399869D01*
X113166301Y-73209882D01*
X113171618Y-73198478D01*
X113217790Y-73146040D01*
X113284984Y-73126888D01*
X113351865Y-73147104D01*
X113396381Y-73198478D01*
X113401699Y-73209882D01*
X113534730Y-73399869D01*
X113698731Y-73563870D01*
X113888718Y-73696901D01*
X114098921Y-73794920D01*
X114322950Y-73854949D01*
X114487985Y-73869387D01*
X114553998Y-73875163D01*
X114554000Y-73875163D01*
X114554002Y-73875163D01*
X114611762Y-73870109D01*
X114785050Y-73854949D01*
X115009079Y-73794920D01*
X115219282Y-73696901D01*
X115409269Y-73563870D01*
X115573270Y-73399869D01*
X115706301Y-73209882D01*
X115711618Y-73198478D01*
X115757790Y-73146040D01*
X115824984Y-73126888D01*
X115891865Y-73147104D01*
X115936381Y-73198478D01*
X115941699Y-73209882D01*
X116074730Y-73399869D01*
X116238731Y-73563870D01*
X116428718Y-73696901D01*
X116638921Y-73794920D01*
X116862950Y-73854949D01*
X117027985Y-73869387D01*
X117093998Y-73875163D01*
X117094000Y-73875163D01*
X117094002Y-73875163D01*
X117151762Y-73870109D01*
X117325050Y-73854949D01*
X117549079Y-73794920D01*
X117759282Y-73696901D01*
X117949269Y-73563870D01*
X118113270Y-73399869D01*
X118246301Y-73209882D01*
X118251618Y-73198478D01*
X118297790Y-73146040D01*
X118364984Y-73126888D01*
X118431865Y-73147104D01*
X118476381Y-73198478D01*
X118481699Y-73209882D01*
X118614730Y-73399869D01*
X118778731Y-73563870D01*
X118968718Y-73696901D01*
X119178921Y-73794920D01*
X119402950Y-73854949D01*
X119567985Y-73869387D01*
X119633998Y-73875163D01*
X119634000Y-73875163D01*
X119634002Y-73875163D01*
X119691762Y-73870109D01*
X119865050Y-73854949D01*
X120089079Y-73794920D01*
X120299282Y-73696901D01*
X120489269Y-73563870D01*
X120653270Y-73399869D01*
X120786301Y-73209882D01*
X120791618Y-73198478D01*
X120837790Y-73146040D01*
X120904984Y-73126888D01*
X120971865Y-73147104D01*
X121016381Y-73198478D01*
X121021699Y-73209882D01*
X121154730Y-73399869D01*
X121318731Y-73563870D01*
X121508718Y-73696901D01*
X121718921Y-73794920D01*
X121942950Y-73854949D01*
X122107985Y-73869387D01*
X122173998Y-73875163D01*
X122174000Y-73875163D01*
X122174002Y-73875163D01*
X122231762Y-73870109D01*
X122405050Y-73854949D01*
X122629079Y-73794920D01*
X122839282Y-73696901D01*
X123029269Y-73563870D01*
X123193270Y-73399869D01*
X123326301Y-73209882D01*
X123331618Y-73198478D01*
X123377790Y-73146040D01*
X123444984Y-73126888D01*
X123511865Y-73147104D01*
X123556381Y-73198478D01*
X123561699Y-73209882D01*
X123694730Y-73399869D01*
X123858731Y-73563870D01*
X124048718Y-73696901D01*
X124258921Y-73794920D01*
X124482950Y-73854949D01*
X124647985Y-73869387D01*
X124713998Y-73875163D01*
X124714000Y-73875163D01*
X124714002Y-73875163D01*
X124771762Y-73870109D01*
X124945050Y-73854949D01*
X125169079Y-73794920D01*
X125379282Y-73696901D01*
X125569269Y-73563870D01*
X125733270Y-73399869D01*
X125866301Y-73209882D01*
X125871618Y-73198478D01*
X125917790Y-73146040D01*
X125984984Y-73126888D01*
X126051865Y-73147104D01*
X126096381Y-73198478D01*
X126101699Y-73209882D01*
X126234730Y-73399869D01*
X126398731Y-73563870D01*
X126588718Y-73696901D01*
X126798921Y-73794920D01*
X127022950Y-73854949D01*
X127187985Y-73869387D01*
X127253998Y-73875163D01*
X127254000Y-73875163D01*
X127254002Y-73875163D01*
X127311762Y-73870109D01*
X127485050Y-73854949D01*
X127709079Y-73794920D01*
X127919282Y-73696901D01*
X128109269Y-73563870D01*
X128273270Y-73399869D01*
X128406301Y-73209882D01*
X128411618Y-73198478D01*
X128457790Y-73146040D01*
X128524984Y-73126888D01*
X128591865Y-73147104D01*
X128636381Y-73198478D01*
X128641699Y-73209882D01*
X128774730Y-73399869D01*
X128938731Y-73563870D01*
X129128718Y-73696901D01*
X129338921Y-73794920D01*
X129562950Y-73854949D01*
X129727985Y-73869387D01*
X129793998Y-73875163D01*
X129794000Y-73875163D01*
X129794002Y-73875163D01*
X129851762Y-73870109D01*
X130025050Y-73854949D01*
X130249079Y-73794920D01*
X130459282Y-73696901D01*
X130649269Y-73563870D01*
X130813270Y-73399869D01*
X130946301Y-73209882D01*
X130951618Y-73198478D01*
X130997790Y-73146040D01*
X131064984Y-73126888D01*
X131131865Y-73147104D01*
X131176381Y-73198478D01*
X131181699Y-73209882D01*
X131314730Y-73399869D01*
X131478731Y-73563870D01*
X131668718Y-73696901D01*
X131878921Y-73794920D01*
X132102950Y-73854949D01*
X132267985Y-73869387D01*
X132333998Y-73875163D01*
X132334000Y-73875163D01*
X132334002Y-73875163D01*
X132391762Y-73870109D01*
X132565050Y-73854949D01*
X132789079Y-73794920D01*
X132999282Y-73696901D01*
X133189269Y-73563870D01*
X133353270Y-73399869D01*
X133486301Y-73209882D01*
X133491618Y-73198478D01*
X133537790Y-73146040D01*
X133604984Y-73126888D01*
X133671865Y-73147104D01*
X133716381Y-73198478D01*
X133721699Y-73209882D01*
X133854730Y-73399869D01*
X134018731Y-73563870D01*
X134208718Y-73696901D01*
X134418921Y-73794920D01*
X134642950Y-73854949D01*
X134807985Y-73869387D01*
X134873998Y-73875163D01*
X134874000Y-73875163D01*
X134874002Y-73875163D01*
X134931762Y-73870109D01*
X135105050Y-73854949D01*
X135329079Y-73794920D01*
X135539282Y-73696901D01*
X135729269Y-73563870D01*
X135893270Y-73399869D01*
X136026301Y-73209882D01*
X136031618Y-73198478D01*
X136077790Y-73146040D01*
X136144984Y-73126888D01*
X136211865Y-73147104D01*
X136256381Y-73198478D01*
X136261699Y-73209882D01*
X136394730Y-73399869D01*
X136558731Y-73563870D01*
X136748718Y-73696901D01*
X136958921Y-73794920D01*
X137182950Y-73854949D01*
X137347985Y-73869387D01*
X137413998Y-73875163D01*
X137414000Y-73875163D01*
X137414002Y-73875163D01*
X137471762Y-73870109D01*
X137645050Y-73854949D01*
X137869079Y-73794920D01*
X138079282Y-73696901D01*
X138269269Y-73563870D01*
X138433270Y-73399869D01*
X138566301Y-73209882D01*
X138571618Y-73198478D01*
X138617790Y-73146040D01*
X138684984Y-73126888D01*
X138751865Y-73147104D01*
X138796381Y-73198478D01*
X138801699Y-73209882D01*
X138934730Y-73399869D01*
X139098731Y-73563870D01*
X139288718Y-73696901D01*
X139498921Y-73794920D01*
X139722950Y-73854949D01*
X139887985Y-73869387D01*
X139953998Y-73875163D01*
X139954000Y-73875163D01*
X139954002Y-73875163D01*
X140011762Y-73870109D01*
X140185050Y-73854949D01*
X140409079Y-73794920D01*
X140619282Y-73696901D01*
X140809269Y-73563870D01*
X140973270Y-73399869D01*
X141106301Y-73209882D01*
X141111618Y-73198478D01*
X141157790Y-73146040D01*
X141224984Y-73126888D01*
X141291865Y-73147104D01*
X141336381Y-73198478D01*
X141341699Y-73209882D01*
X141474730Y-73399869D01*
X141638731Y-73563870D01*
X141828718Y-73696901D01*
X142038921Y-73794920D01*
X142262950Y-73854949D01*
X142427985Y-73869387D01*
X142493998Y-73875163D01*
X142494000Y-73875163D01*
X142494002Y-73875163D01*
X142551762Y-73870109D01*
X142725050Y-73854949D01*
X142949079Y-73794920D01*
X143159282Y-73696901D01*
X143349269Y-73563870D01*
X143513270Y-73399869D01*
X143646301Y-73209882D01*
X143651618Y-73198478D01*
X143697790Y-73146040D01*
X143764984Y-73126888D01*
X143831865Y-73147104D01*
X143876381Y-73198478D01*
X143881699Y-73209882D01*
X144014730Y-73399869D01*
X144178731Y-73563870D01*
X144368718Y-73696901D01*
X144578921Y-73794920D01*
X144802950Y-73854949D01*
X144967985Y-73869387D01*
X145033998Y-73875163D01*
X145034000Y-73875163D01*
X145034002Y-73875163D01*
X145091762Y-73870109D01*
X145265050Y-73854949D01*
X145489079Y-73794920D01*
X145699282Y-73696901D01*
X145889269Y-73563870D01*
X146053270Y-73399869D01*
X146186301Y-73209882D01*
X146284320Y-72999679D01*
X146344349Y-72775650D01*
X146364563Y-72544600D01*
X146344349Y-72313550D01*
X146284320Y-72089521D01*
X146186301Y-71879319D01*
X146186299Y-71879316D01*
X146186298Y-71879314D01*
X146053273Y-71689335D01*
X146053268Y-71689329D01*
X145889269Y-71525330D01*
X145889263Y-71525326D01*
X145699282Y-71392299D01*
X145489079Y-71294280D01*
X145489076Y-71294279D01*
X145489074Y-71294278D01*
X145265051Y-71234251D01*
X145265044Y-71234250D01*
X145034002Y-71214037D01*
X145033998Y-71214037D01*
X144802955Y-71234250D01*
X144802948Y-71234251D01*
X144578917Y-71294281D01*
X144368718Y-71392299D01*
X144368714Y-71392301D01*
X144178735Y-71525326D01*
X144178729Y-71525331D01*
X144014731Y-71689329D01*
X144014726Y-71689335D01*
X143881701Y-71879314D01*
X143881698Y-71879320D01*
X143876381Y-71890723D01*
X143830207Y-71943162D01*
X143763013Y-71962312D01*
X143696133Y-71942095D01*
X143651619Y-71890723D01*
X143646301Y-71879320D01*
X143646298Y-71879314D01*
X143513273Y-71689335D01*
X143513268Y-71689329D01*
X143349269Y-71525330D01*
X143349263Y-71525326D01*
X143159282Y-71392299D01*
X142949079Y-71294280D01*
X142949076Y-71294279D01*
X142949074Y-71294278D01*
X142725051Y-71234251D01*
X142725044Y-71234250D01*
X142494002Y-71214037D01*
X142493998Y-71214037D01*
X142262955Y-71234250D01*
X142262948Y-71234251D01*
X142038917Y-71294281D01*
X141828718Y-71392299D01*
X141828714Y-71392301D01*
X141638735Y-71525326D01*
X141638729Y-71525331D01*
X141474731Y-71689329D01*
X141474726Y-71689335D01*
X141341701Y-71879314D01*
X141341698Y-71879320D01*
X141336381Y-71890723D01*
X141290207Y-71943162D01*
X141223013Y-71962312D01*
X141156133Y-71942095D01*
X141111619Y-71890723D01*
X141106301Y-71879320D01*
X141106298Y-71879314D01*
X140973273Y-71689335D01*
X140973268Y-71689329D01*
X140809269Y-71525330D01*
X140809263Y-71525326D01*
X140619282Y-71392299D01*
X140409079Y-71294280D01*
X140409076Y-71294279D01*
X140409074Y-71294278D01*
X140185051Y-71234251D01*
X140185044Y-71234250D01*
X139954002Y-71214037D01*
X139953998Y-71214037D01*
X139722955Y-71234250D01*
X139722948Y-71234251D01*
X139498917Y-71294281D01*
X139288718Y-71392299D01*
X139288714Y-71392301D01*
X139098735Y-71525326D01*
X139098729Y-71525331D01*
X138934731Y-71689329D01*
X138934726Y-71689335D01*
X138801701Y-71879314D01*
X138801698Y-71879320D01*
X138796381Y-71890723D01*
X138750207Y-71943162D01*
X138683013Y-71962312D01*
X138616133Y-71942095D01*
X138571619Y-71890723D01*
X138566301Y-71879320D01*
X138566298Y-71879314D01*
X138433273Y-71689335D01*
X138433268Y-71689329D01*
X138269269Y-71525330D01*
X138269263Y-71525326D01*
X138079282Y-71392299D01*
X137869079Y-71294280D01*
X137869076Y-71294279D01*
X137869074Y-71294278D01*
X137645051Y-71234251D01*
X137645044Y-71234250D01*
X137414002Y-71214037D01*
X137413998Y-71214037D01*
X137182955Y-71234250D01*
X137182948Y-71234251D01*
X136958917Y-71294281D01*
X136748718Y-71392299D01*
X136748714Y-71392301D01*
X136558735Y-71525326D01*
X136558729Y-71525331D01*
X136394731Y-71689329D01*
X136394726Y-71689335D01*
X136261701Y-71879314D01*
X136261698Y-71879320D01*
X136256381Y-71890723D01*
X136210207Y-71943162D01*
X136143013Y-71962312D01*
X136076133Y-71942095D01*
X136031619Y-71890723D01*
X136026301Y-71879320D01*
X136026298Y-71879314D01*
X135893273Y-71689335D01*
X135893268Y-71689329D01*
X135729269Y-71525330D01*
X135729263Y-71525326D01*
X135539282Y-71392299D01*
X135329079Y-71294280D01*
X135329076Y-71294279D01*
X135329074Y-71294278D01*
X135105051Y-71234251D01*
X135105044Y-71234250D01*
X134874002Y-71214037D01*
X134873998Y-71214037D01*
X134642955Y-71234250D01*
X134642948Y-71234251D01*
X134418917Y-71294281D01*
X134208718Y-71392299D01*
X134208714Y-71392301D01*
X134018735Y-71525326D01*
X134018729Y-71525331D01*
X133854731Y-71689329D01*
X133854726Y-71689335D01*
X133721701Y-71879314D01*
X133721698Y-71879320D01*
X133716381Y-71890723D01*
X133670207Y-71943162D01*
X133603013Y-71962312D01*
X133536133Y-71942095D01*
X133491619Y-71890723D01*
X133486301Y-71879320D01*
X133486298Y-71879314D01*
X133353273Y-71689335D01*
X133353268Y-71689329D01*
X133189269Y-71525330D01*
X133189263Y-71525326D01*
X132999282Y-71392299D01*
X132789079Y-71294280D01*
X132789076Y-71294279D01*
X132789074Y-71294278D01*
X132565051Y-71234251D01*
X132565044Y-71234250D01*
X132334002Y-71214037D01*
X132333998Y-71214037D01*
X132102955Y-71234250D01*
X132102948Y-71234251D01*
X131878917Y-71294281D01*
X131668718Y-71392299D01*
X131668714Y-71392301D01*
X131478735Y-71525326D01*
X131478729Y-71525331D01*
X131314731Y-71689329D01*
X131314726Y-71689335D01*
X131181701Y-71879314D01*
X131181698Y-71879320D01*
X131176381Y-71890723D01*
X131130207Y-71943162D01*
X131063013Y-71962312D01*
X130996133Y-71942095D01*
X130951619Y-71890723D01*
X130946301Y-71879320D01*
X130946298Y-71879314D01*
X130813273Y-71689335D01*
X130813268Y-71689329D01*
X130649269Y-71525330D01*
X130649263Y-71525326D01*
X130459282Y-71392299D01*
X130249079Y-71294280D01*
X130249076Y-71294279D01*
X130249074Y-71294278D01*
X130025051Y-71234251D01*
X130025044Y-71234250D01*
X129794002Y-71214037D01*
X129793998Y-71214037D01*
X129562955Y-71234250D01*
X129562948Y-71234251D01*
X129338917Y-71294281D01*
X129128718Y-71392299D01*
X129128714Y-71392301D01*
X128938735Y-71525326D01*
X128938729Y-71525331D01*
X128774731Y-71689329D01*
X128774726Y-71689335D01*
X128641701Y-71879314D01*
X128641698Y-71879320D01*
X128636381Y-71890723D01*
X128590207Y-71943162D01*
X128523013Y-71962312D01*
X128456133Y-71942095D01*
X128411619Y-71890723D01*
X128406301Y-71879320D01*
X128406298Y-71879314D01*
X128273273Y-71689335D01*
X128273268Y-71689329D01*
X128109269Y-71525330D01*
X128109263Y-71525326D01*
X127919282Y-71392299D01*
X127709079Y-71294280D01*
X127709076Y-71294279D01*
X127709074Y-71294278D01*
X127485051Y-71234251D01*
X127485044Y-71234250D01*
X127254002Y-71214037D01*
X127253998Y-71214037D01*
X127022955Y-71234250D01*
X127022948Y-71234251D01*
X126798917Y-71294281D01*
X126588718Y-71392299D01*
X126588714Y-71392301D01*
X126398735Y-71525326D01*
X126398729Y-71525331D01*
X126234731Y-71689329D01*
X126234726Y-71689335D01*
X126101701Y-71879314D01*
X126101698Y-71879320D01*
X126096381Y-71890723D01*
X126050207Y-71943162D01*
X125983013Y-71962312D01*
X125916133Y-71942095D01*
X125871619Y-71890723D01*
X125866301Y-71879320D01*
X125866298Y-71879314D01*
X125733273Y-71689335D01*
X125733268Y-71689329D01*
X125569269Y-71525330D01*
X125569263Y-71525326D01*
X125379282Y-71392299D01*
X125169079Y-71294280D01*
X125169076Y-71294279D01*
X125169074Y-71294278D01*
X124945051Y-71234251D01*
X124945044Y-71234250D01*
X124714002Y-71214037D01*
X124713998Y-71214037D01*
X124482955Y-71234250D01*
X124482948Y-71234251D01*
X124258917Y-71294281D01*
X124048718Y-71392299D01*
X124048714Y-71392301D01*
X123858735Y-71525326D01*
X123858729Y-71525331D01*
X123694731Y-71689329D01*
X123694726Y-71689335D01*
X123561701Y-71879314D01*
X123561698Y-71879320D01*
X123556381Y-71890723D01*
X123510207Y-71943162D01*
X123443013Y-71962312D01*
X123376133Y-71942095D01*
X123331619Y-71890723D01*
X123326301Y-71879320D01*
X123326298Y-71879314D01*
X123193273Y-71689335D01*
X123193268Y-71689329D01*
X123029269Y-71525330D01*
X123029263Y-71525326D01*
X122839282Y-71392299D01*
X122629079Y-71294280D01*
X122629076Y-71294279D01*
X122629074Y-71294278D01*
X122405051Y-71234251D01*
X122405044Y-71234250D01*
X122174002Y-71214037D01*
X122173998Y-71214037D01*
X121942955Y-71234250D01*
X121942948Y-71234251D01*
X121718917Y-71294281D01*
X121508718Y-71392299D01*
X121508714Y-71392301D01*
X121318735Y-71525326D01*
X121318729Y-71525331D01*
X121154731Y-71689329D01*
X121154726Y-71689335D01*
X121021701Y-71879314D01*
X121021698Y-71879320D01*
X121016381Y-71890723D01*
X120970207Y-71943162D01*
X120903013Y-71962312D01*
X120836133Y-71942095D01*
X120791619Y-71890723D01*
X120786301Y-71879320D01*
X120786298Y-71879314D01*
X120653273Y-71689335D01*
X120653268Y-71689329D01*
X120489269Y-71525330D01*
X120489263Y-71525326D01*
X120299282Y-71392299D01*
X120089079Y-71294280D01*
X120089076Y-71294279D01*
X120089074Y-71294278D01*
X119865051Y-71234251D01*
X119865044Y-71234250D01*
X119634002Y-71214037D01*
X119633998Y-71214037D01*
X119402955Y-71234250D01*
X119402948Y-71234251D01*
X119178917Y-71294281D01*
X118968718Y-71392299D01*
X118968714Y-71392301D01*
X118778735Y-71525326D01*
X118778729Y-71525331D01*
X118614731Y-71689329D01*
X118614726Y-71689335D01*
X118481701Y-71879314D01*
X118481698Y-71879320D01*
X118476381Y-71890723D01*
X118430207Y-71943162D01*
X118363013Y-71962312D01*
X118296133Y-71942095D01*
X118251619Y-71890723D01*
X118246301Y-71879320D01*
X118246298Y-71879314D01*
X118113273Y-71689335D01*
X118113268Y-71689329D01*
X117949269Y-71525330D01*
X117949263Y-71525326D01*
X117759282Y-71392299D01*
X117549079Y-71294280D01*
X117549076Y-71294279D01*
X117549074Y-71294278D01*
X117325051Y-71234251D01*
X117325044Y-71234250D01*
X117094002Y-71214037D01*
X117093998Y-71214037D01*
X116862955Y-71234250D01*
X116862948Y-71234251D01*
X116638917Y-71294281D01*
X116428718Y-71392299D01*
X116428714Y-71392301D01*
X116238735Y-71525326D01*
X116238729Y-71525331D01*
X116074731Y-71689329D01*
X116074726Y-71689335D01*
X115941701Y-71879314D01*
X115941698Y-71879320D01*
X115936381Y-71890723D01*
X115890207Y-71943162D01*
X115823013Y-71962312D01*
X115756133Y-71942095D01*
X115711619Y-71890723D01*
X115706301Y-71879320D01*
X115706298Y-71879314D01*
X115573273Y-71689335D01*
X115573268Y-71689329D01*
X115409269Y-71525330D01*
X115409263Y-71525326D01*
X115219282Y-71392299D01*
X115009079Y-71294280D01*
X115009076Y-71294279D01*
X115009074Y-71294278D01*
X114785051Y-71234251D01*
X114785044Y-71234250D01*
X114554002Y-71214037D01*
X114553998Y-71214037D01*
X114322955Y-71234250D01*
X114322948Y-71234251D01*
X114098917Y-71294281D01*
X113888718Y-71392299D01*
X113888714Y-71392301D01*
X113698735Y-71525326D01*
X113698729Y-71525331D01*
X113534731Y-71689329D01*
X113534726Y-71689335D01*
X113401701Y-71879314D01*
X113401698Y-71879320D01*
X113396381Y-71890723D01*
X113350207Y-71943162D01*
X113283013Y-71962312D01*
X113216133Y-71942095D01*
X113171619Y-71890723D01*
X113166301Y-71879320D01*
X113166298Y-71879314D01*
X113033273Y-71689335D01*
X113033268Y-71689329D01*
X112869269Y-71525330D01*
X112869263Y-71525326D01*
X112679282Y-71392299D01*
X112469079Y-71294280D01*
X112469076Y-71294279D01*
X112469074Y-71294278D01*
X112245051Y-71234251D01*
X112245044Y-71234250D01*
X112014002Y-71214037D01*
X112013998Y-71214037D01*
X111782955Y-71234250D01*
X111782948Y-71234251D01*
X111558917Y-71294281D01*
X111348718Y-71392299D01*
X111348714Y-71392301D01*
X111158735Y-71525326D01*
X111158729Y-71525331D01*
X110994731Y-71689329D01*
X110994726Y-71689335D01*
X110861701Y-71879314D01*
X110861698Y-71879320D01*
X110856381Y-71890723D01*
X110810207Y-71943162D01*
X110743013Y-71962312D01*
X110676133Y-71942095D01*
X110631619Y-71890723D01*
X110626301Y-71879320D01*
X110626298Y-71879314D01*
X110493273Y-71689335D01*
X110493268Y-71689329D01*
X110329269Y-71525330D01*
X110329263Y-71525326D01*
X110139282Y-71392299D01*
X109929079Y-71294280D01*
X109929076Y-71294279D01*
X109929074Y-71294278D01*
X109705051Y-71234251D01*
X109705044Y-71234250D01*
X109474002Y-71214037D01*
X109473998Y-71214037D01*
X109242955Y-71234250D01*
X109242948Y-71234251D01*
X109018917Y-71294281D01*
X108808718Y-71392299D01*
X108808714Y-71392301D01*
X108618735Y-71525326D01*
X108618729Y-71525331D01*
X108454731Y-71689329D01*
X108454726Y-71689335D01*
X108321701Y-71879314D01*
X108321698Y-71879320D01*
X108316381Y-71890723D01*
X108270207Y-71943162D01*
X108203013Y-71962312D01*
X108136133Y-71942095D01*
X108091619Y-71890723D01*
X108086301Y-71879320D01*
X108086298Y-71879314D01*
X107953273Y-71689335D01*
X107953268Y-71689329D01*
X107789269Y-71525330D01*
X107789263Y-71525326D01*
X107599282Y-71392299D01*
X107389079Y-71294280D01*
X107389076Y-71294279D01*
X107389074Y-71294278D01*
X107165051Y-71234251D01*
X107165044Y-71234250D01*
X106934002Y-71214037D01*
X106933998Y-71214037D01*
X106702955Y-71234250D01*
X106702948Y-71234251D01*
X106478917Y-71294281D01*
X106268718Y-71392299D01*
X106268714Y-71392301D01*
X106078735Y-71525326D01*
X106078729Y-71525331D01*
X105914731Y-71689329D01*
X105914726Y-71689335D01*
X105781701Y-71879314D01*
X105781698Y-71879320D01*
X105776381Y-71890723D01*
X105730207Y-71943162D01*
X105663013Y-71962312D01*
X105596133Y-71942095D01*
X105551619Y-71890723D01*
X105546301Y-71879320D01*
X105546298Y-71879314D01*
X105413273Y-71689335D01*
X105413268Y-71689329D01*
X105249269Y-71525330D01*
X105249263Y-71525326D01*
X105059282Y-71392299D01*
X104849079Y-71294280D01*
X104849076Y-71294279D01*
X104849074Y-71294278D01*
X104625051Y-71234251D01*
X104625044Y-71234250D01*
X104394002Y-71214037D01*
X104393998Y-71214037D01*
X104162955Y-71234250D01*
X104162948Y-71234251D01*
X103938917Y-71294281D01*
X103728718Y-71392299D01*
X103728714Y-71392301D01*
X103538735Y-71525326D01*
X103538729Y-71525331D01*
X103374731Y-71689329D01*
X103374726Y-71689335D01*
X103241701Y-71879314D01*
X103241698Y-71879320D01*
X103236381Y-71890723D01*
X103190207Y-71943162D01*
X103123013Y-71962312D01*
X103056133Y-71942095D01*
X103011619Y-71890723D01*
X103006301Y-71879320D01*
X103006298Y-71879314D01*
X102873273Y-71689335D01*
X102873268Y-71689329D01*
X102709269Y-71525330D01*
X102709263Y-71525326D01*
X102519282Y-71392299D01*
X102309079Y-71294280D01*
X102309076Y-71294279D01*
X102309074Y-71294278D01*
X102085051Y-71234251D01*
X102085044Y-71234250D01*
X101854002Y-71214037D01*
X101853998Y-71214037D01*
X101622955Y-71234250D01*
X101622948Y-71234251D01*
X101398917Y-71294281D01*
X101188718Y-71392299D01*
X101188714Y-71392301D01*
X100998735Y-71525326D01*
X100998729Y-71525331D01*
X100834731Y-71689329D01*
X100834726Y-71689335D01*
X100701701Y-71879314D01*
X100701698Y-71879320D01*
X100696381Y-71890723D01*
X100650207Y-71943162D01*
X100583013Y-71962312D01*
X100516133Y-71942095D01*
X100471619Y-71890723D01*
X100466301Y-71879320D01*
X100466298Y-71879314D01*
X100333273Y-71689335D01*
X100333268Y-71689329D01*
X100169269Y-71525330D01*
X100169263Y-71525326D01*
X99979282Y-71392299D01*
X99769079Y-71294280D01*
X99769076Y-71294279D01*
X99769074Y-71294278D01*
X99545051Y-71234251D01*
X99545044Y-71234250D01*
X99314002Y-71214037D01*
X99313998Y-71214037D01*
X99082955Y-71234250D01*
X99082948Y-71234251D01*
X98858917Y-71294281D01*
X98648718Y-71392299D01*
X98648714Y-71392301D01*
X98458735Y-71525326D01*
X98458729Y-71525331D01*
X98294731Y-71689329D01*
X98294726Y-71689335D01*
X98161701Y-71879314D01*
X98161699Y-71879318D01*
X98063681Y-72089517D01*
X98003651Y-72313548D01*
X98003650Y-72313555D01*
X97983437Y-72544598D01*
X91610298Y-72544598D01*
X91896080Y-72336965D01*
X92220790Y-72053274D01*
X92518764Y-71741619D01*
X92787601Y-71404507D01*
X93025137Y-71044655D01*
X93229461Y-70664958D01*
X93241479Y-70636842D01*
X93273632Y-70561614D01*
X93398926Y-70268475D01*
X93532168Y-69858397D01*
X93628115Y-69438026D01*
X93685994Y-69010747D01*
X93705339Y-68580000D01*
X93685994Y-68149253D01*
X93628115Y-67721974D01*
X93532168Y-67301603D01*
X93398926Y-66891525D01*
X93273632Y-66598385D01*
X93229466Y-66495052D01*
X93229462Y-66495044D01*
X93218365Y-66474422D01*
X93025137Y-66115345D01*
X93025132Y-66115337D01*
X92787605Y-65755498D01*
X92787595Y-65755485D01*
X92518774Y-65418392D01*
X92518762Y-65418379D01*
X92220794Y-65106730D01*
X92220793Y-65106729D01*
X92220790Y-65106726D01*
X91896080Y-64823035D01*
X91719416Y-64694681D01*
X91547256Y-64569599D01*
X91547251Y-64569596D01*
X91547247Y-64569593D01*
X91177100Y-64348440D01*
X91177095Y-64348437D01*
X91177093Y-64348436D01*
X90788627Y-64161360D01*
X90788613Y-64161354D01*
X90384944Y-64009855D01*
X90384919Y-64009847D01*
X89969295Y-63895142D01*
X89545043Y-63818151D01*
X89545040Y-63818150D01*
X89545036Y-63818150D01*
X89115591Y-63779500D01*
X88684409Y-63779500D01*
X88254964Y-63818150D01*
X88254960Y-63818150D01*
X88254956Y-63818151D01*
X87830704Y-63895142D01*
X87415080Y-64009847D01*
X87415055Y-64009855D01*
X87011386Y-64161354D01*
X87011372Y-64161360D01*
X86622906Y-64348436D01*
X86622904Y-64348437D01*
X86252743Y-64569599D01*
X85903931Y-64823026D01*
X85903914Y-64823039D01*
X85579210Y-65106726D01*
X85579205Y-65106730D01*
X85281237Y-65418379D01*
X85281225Y-65418392D01*
X85012404Y-65755485D01*
X85012394Y-65755498D01*
X84774867Y-66115337D01*
X84774867Y-66115338D01*
X84570537Y-66495044D01*
X84558521Y-66523158D01*
X84514072Y-66577066D01*
X84447534Y-66598385D01*
X84380033Y-66580347D01*
X84333000Y-66528678D01*
X84320500Y-66474422D01*
X84320500Y-63562573D01*
X105613500Y-63562573D01*
X105613500Y-63806626D01*
X105645688Y-64009855D01*
X105651679Y-64047676D01*
X105688617Y-64161360D01*
X105727097Y-64279787D01*
X105837896Y-64497242D01*
X105981339Y-64694676D01*
X105981343Y-64694681D01*
X106153918Y-64867256D01*
X106153923Y-64867260D01*
X106326136Y-64992379D01*
X106351361Y-65010706D01*
X106568815Y-65121504D01*
X106800924Y-65196921D01*
X107041973Y-65235100D01*
X107041974Y-65235100D01*
X107286026Y-65235100D01*
X107286027Y-65235100D01*
X107527076Y-65196921D01*
X107759185Y-65121504D01*
X107976639Y-65010706D01*
X108174083Y-64867255D01*
X108346655Y-64694683D01*
X108490106Y-64497239D01*
X108600904Y-64279785D01*
X108676321Y-64047676D01*
X108714500Y-63806627D01*
X108714500Y-63562573D01*
X168653500Y-63562573D01*
X168653500Y-63806626D01*
X168685688Y-64009855D01*
X168691679Y-64047676D01*
X168728617Y-64161360D01*
X168767097Y-64279787D01*
X168877896Y-64497242D01*
X169021339Y-64694676D01*
X169021343Y-64694681D01*
X169193918Y-64867256D01*
X169193923Y-64867260D01*
X169366136Y-64992379D01*
X169391361Y-65010706D01*
X169608815Y-65121504D01*
X169840924Y-65196921D01*
X170081973Y-65235100D01*
X170081974Y-65235100D01*
X170326026Y-65235100D01*
X170326027Y-65235100D01*
X170567076Y-65196921D01*
X170799185Y-65121504D01*
X171016639Y-65010706D01*
X171214083Y-64867255D01*
X171386655Y-64694683D01*
X171530106Y-64497239D01*
X171640904Y-64279785D01*
X171716321Y-64047676D01*
X171754500Y-63806627D01*
X171754500Y-63562573D01*
X171716321Y-63321524D01*
X171640904Y-63089415D01*
X171530106Y-62871961D01*
X171511779Y-62846736D01*
X171386660Y-62674523D01*
X171386656Y-62674518D01*
X171214081Y-62501943D01*
X171214076Y-62501939D01*
X171016642Y-62358496D01*
X171016641Y-62358495D01*
X171016639Y-62358494D01*
X170799185Y-62247696D01*
X170567076Y-62172279D01*
X170567074Y-62172278D01*
X170567072Y-62172278D01*
X170398769Y-62145621D01*
X170326027Y-62134100D01*
X170081973Y-62134100D01*
X170026093Y-62142950D01*
X169840927Y-62172278D01*
X169608812Y-62247697D01*
X169391357Y-62358496D01*
X169193923Y-62501939D01*
X169193918Y-62501943D01*
X169021343Y-62674518D01*
X169021339Y-62674523D01*
X168877896Y-62871957D01*
X168767097Y-63089412D01*
X168691678Y-63321527D01*
X168653500Y-63562573D01*
X108714500Y-63562573D01*
X108676321Y-63321524D01*
X108600904Y-63089415D01*
X108490106Y-62871961D01*
X108471779Y-62846736D01*
X108346660Y-62674523D01*
X108346656Y-62674518D01*
X108174081Y-62501943D01*
X108174076Y-62501939D01*
X107976642Y-62358496D01*
X107976641Y-62358495D01*
X107976639Y-62358494D01*
X107759185Y-62247696D01*
X107527076Y-62172279D01*
X107527074Y-62172278D01*
X107527072Y-62172278D01*
X107358769Y-62145621D01*
X107286027Y-62134100D01*
X107041973Y-62134100D01*
X106986093Y-62142950D01*
X106800927Y-62172278D01*
X106568812Y-62247697D01*
X106351357Y-62358496D01*
X106153923Y-62501939D01*
X106153918Y-62501943D01*
X105981343Y-62674518D01*
X105981339Y-62674523D01*
X105837896Y-62871957D01*
X105727097Y-63089412D01*
X105651678Y-63321527D01*
X105613500Y-63562573D01*
X84320500Y-63562573D01*
X84320500Y-61584500D01*
X84340185Y-61517461D01*
X84392989Y-61471706D01*
X84444500Y-61460500D01*
X192415500Y-61460500D01*
X192482539Y-61480185D01*
G37*
G04 #@! TD.AperFunction*
M02*
