G04 #@! TF.GenerationSoftware,KiCad,Pcbnew,8.0.4*
G04 #@! TF.CreationDate,2024-09-24T23:47:47-04:00*
G04 #@! TF.ProjectId,CommonSlotAdapter,436f6d6d-6f6e-4536-9c6f-744164617074,rev?*
G04 #@! TF.SameCoordinates,Original*
G04 #@! TF.FileFunction,Soldermask,Bot*
G04 #@! TF.FilePolarity,Negative*
%FSLAX46Y46*%
G04 Gerber Fmt 4.6, Leading zero omitted, Abs format (unit mm)*
G04 Created by KiCad (PCBNEW 8.0.4) date 2024-09-24 23:47:47*
%MOMM*%
%LPD*%
G01*
G04 APERTURE LIST*
%ADD10C,2.000000*%
%ADD11R,2.000000X2.000000*%
%ADD12C,2.600000*%
%ADD13C,1.853200*%
%ADD14C,5.919200*%
%ADD15C,8.203200*%
%ADD16C,8.600000*%
%ADD17C,1.875000*%
%ADD18C,2.500000*%
G04 APERTURE END LIST*
D10*
X89281000Y-82550000D03*
X89281000Y-80010000D03*
D11*
X89281000Y-77470000D03*
D12*
X107164000Y-63684600D03*
X170204000Y-63684600D03*
D13*
X178054000Y-72544600D03*
X175514000Y-72544600D03*
X172974000Y-72544600D03*
X170434000Y-72544600D03*
X167894000Y-72544600D03*
X165354000Y-72544600D03*
X162814000Y-72544600D03*
X160274000Y-72544600D03*
X157734000Y-72544600D03*
X155194000Y-72544600D03*
X152654000Y-72544600D03*
X150114000Y-72544600D03*
X147574000Y-72544600D03*
X145034000Y-72544600D03*
X142494000Y-72544600D03*
X139954000Y-72544600D03*
X137414000Y-72544600D03*
X134874000Y-72544600D03*
X132334000Y-72544600D03*
X129794000Y-72544600D03*
X127254000Y-72544600D03*
X124714000Y-72544600D03*
X122174000Y-72544600D03*
X119634000Y-72544600D03*
X117094000Y-72544600D03*
X114554000Y-72544600D03*
X112014000Y-72544600D03*
X109474000Y-72544600D03*
X106934000Y-72544600D03*
X104394000Y-72544600D03*
X101854000Y-72544600D03*
X99314000Y-72544600D03*
X99314000Y-76344600D03*
X101854000Y-76344600D03*
X104394000Y-76344600D03*
X106934000Y-76344600D03*
X109474000Y-76344600D03*
X112014000Y-76344600D03*
X114554000Y-76344600D03*
X117094000Y-76344600D03*
X119634000Y-76344600D03*
X122174000Y-76344600D03*
X124714000Y-76344600D03*
X127254000Y-76344600D03*
X129794000Y-76344600D03*
X132334000Y-76344600D03*
X134874000Y-76344600D03*
X137414000Y-76344600D03*
X139954000Y-76344600D03*
X142494000Y-76344600D03*
X145034000Y-76344600D03*
X147574000Y-76344600D03*
X150114000Y-76344600D03*
X152654000Y-76344600D03*
X155194000Y-76344600D03*
X157734000Y-76344600D03*
X160274000Y-76344600D03*
X162814000Y-76344600D03*
X165354000Y-76344600D03*
X167894000Y-76344600D03*
X170434000Y-76344600D03*
X172974000Y-76344600D03*
X175514000Y-76344600D03*
X178054000Y-76344600D03*
D14*
X139065000Y-91020000D03*
X139065000Y-83820000D03*
X127635000Y-91020000D03*
X127635000Y-83820000D03*
D15*
X104990000Y-86360000D03*
X115990000Y-86360000D03*
D16*
X187960000Y-91440000D03*
X88900000Y-91440000D03*
X187960000Y-68580000D03*
X88900000Y-68580000D03*
D17*
X172720000Y-81280000D03*
X172720000Y-88900000D03*
X175260000Y-81280000D03*
X175260000Y-88900000D03*
X177800000Y-81280000D03*
X177800000Y-88900000D03*
X180340000Y-81280000D03*
X180340000Y-88900000D03*
X147320000Y-81280000D03*
X147320000Y-88900000D03*
X149860000Y-81280000D03*
X149860000Y-88900000D03*
X152400000Y-81280000D03*
X152400000Y-88900000D03*
X154940000Y-81280000D03*
X154940000Y-88900000D03*
D18*
X167640000Y-93980000D03*
X167640000Y-83820000D03*
X160020000Y-93980000D03*
X160020000Y-83820000D03*
M02*
