M48
; DRILL file {KiCad 8.0.4} date 2024-09-24T23:47:49-0400
; FORMAT={-:-/ absolute / metric / decimal}
; #@! TF.CreationDate,2024-09-24T23:47:49-04:00
; #@! TF.GenerationSoftware,Kicad,Pcbnew,8.0.4
; #@! TF.FileFunction,Plated,1,2,PTH
FMAT,2
METRIC
; #@! TA.AperFunction,Plated,PTH,ComponentDrill
T1C1.000
; #@! TA.AperFunction,Plated,PTH,ComponentDrill
T2C1.100
; #@! TA.AperFunction,Plated,PTH,ComponentDrill
T3C1.320
; #@! TA.AperFunction,Plated,PTH,ComponentDrill
T4C1.475
; #@! TA.AperFunction,Plated,PTH,ComponentDrill
T5C4.300
; #@! TA.AperFunction,Plated,PTH,ComponentDrill
T6C4.700
; #@! TA.AperFunction,Plated,PTH,ComponentDrill
T7C6.200
%
G90
G05
T1
X89.281Y-77.47
X89.281Y-80.01
X89.281Y-82.55
T2
X99.314Y-72.545
X99.314Y-76.345
X101.854Y-72.545
X101.854Y-76.345
X104.394Y-72.545
X104.394Y-76.345
X106.934Y-72.545
X106.934Y-76.345
X109.474Y-72.545
X109.474Y-76.345
X112.014Y-72.545
X112.014Y-76.345
X114.554Y-72.545
X114.554Y-76.345
X117.094Y-72.545
X117.094Y-76.345
X119.634Y-72.545
X119.634Y-76.345
X122.174Y-72.545
X122.174Y-76.345
X124.714Y-72.545
X124.714Y-76.345
X127.254Y-72.545
X127.254Y-76.345
X129.794Y-72.545
X129.794Y-76.345
X132.334Y-72.545
X132.334Y-76.345
X134.874Y-72.545
X134.874Y-76.345
X137.414Y-72.545
X137.414Y-76.345
X139.954Y-72.545
X139.954Y-76.345
X142.494Y-72.545
X142.494Y-76.345
X145.034Y-72.545
X145.034Y-76.345
X147.574Y-72.545
X147.574Y-76.345
X150.114Y-72.545
X150.114Y-76.345
X152.654Y-72.545
X152.654Y-76.345
X155.194Y-72.545
X155.194Y-76.345
X157.734Y-72.545
X157.734Y-76.345
X160.274Y-72.545
X160.274Y-76.345
X162.814Y-72.545
X162.814Y-76.345
X165.354Y-72.545
X165.354Y-76.345
X167.894Y-72.545
X167.894Y-76.345
X170.434Y-72.545
X170.434Y-76.345
X172.974Y-72.545
X172.974Y-76.345
X175.514Y-72.545
X175.514Y-76.345
X178.054Y-72.545
X178.054Y-76.345
T3
X160.02Y-83.82
X160.02Y-93.98
X167.64Y-83.82
X167.64Y-93.98
T4
X147.32Y-81.28
X147.32Y-88.9
X149.86Y-81.28
X149.86Y-88.9
X152.4Y-81.28
X152.4Y-88.9
X154.94Y-81.28
X154.94Y-88.9
X172.72Y-81.28
X172.72Y-88.9
X175.26Y-81.28
X175.26Y-88.9
X177.8Y-81.28
X177.8Y-88.9
X180.34Y-81.28
X180.34Y-88.9
T5
X88.9Y-68.58
X88.9Y-91.44
X187.96Y-68.58
X187.96Y-91.44
T6
X127.635Y-83.82
X127.635Y-91.02
X139.065Y-83.82
X139.065Y-91.02
T7
X104.99Y-86.36
X115.99Y-86.36
M30
