G04 #@! TF.GenerationSoftware,KiCad,Pcbnew,8.0.4*
G04 #@! TF.CreationDate,2024-09-24T23:47:46-04:00*
G04 #@! TF.ProjectId,CommonSlotAdapter,436f6d6d-6f6e-4536-9c6f-744164617074,rev?*
G04 #@! TF.SameCoordinates,Original*
G04 #@! TF.FileFunction,Copper,L2,Bot*
G04 #@! TF.FilePolarity,Positive*
%FSLAX46Y46*%
G04 Gerber Fmt 4.6, Leading zero omitted, Abs format (unit mm)*
G04 Created by KiCad (PCBNEW 8.0.4) date 2024-09-24 23:47:47*
%MOMM*%
%LPD*%
G01*
G04 APERTURE LIST*
G04 #@! TA.AperFunction,ComponentPad*
%ADD10C,2.000000*%
G04 #@! TD*
G04 #@! TA.AperFunction,ComponentPad*
%ADD11R,2.000000X2.000000*%
G04 #@! TD*
G04 #@! TA.AperFunction,ComponentPad*
%ADD12C,1.650000*%
G04 #@! TD*
G04 #@! TA.AperFunction,ComponentPad*
%ADD13C,5.716000*%
G04 #@! TD*
G04 #@! TA.AperFunction,ComponentPad*
%ADD14C,8.000000*%
G04 #@! TD*
G04 #@! TA.AperFunction,ComponentPad*
%ADD15C,8.600000*%
G04 #@! TD*
G04 #@! TA.AperFunction,ComponentPad*
%ADD16C,1.875000*%
G04 #@! TD*
G04 #@! TA.AperFunction,ComponentPad*
%ADD17C,2.500000*%
G04 #@! TD*
G04 APERTURE END LIST*
D10*
X89281000Y-82550000D03*
X89281000Y-80010000D03*
D11*
X89281000Y-77470000D03*
D12*
X178054000Y-72544600D03*
X175514000Y-72544600D03*
X172974000Y-72544600D03*
X170434000Y-72544600D03*
X167894000Y-72544600D03*
X165354000Y-72544600D03*
X162814000Y-72544600D03*
X160274000Y-72544600D03*
X157734000Y-72544600D03*
X155194000Y-72544600D03*
X152654000Y-72544600D03*
X150114000Y-72544600D03*
X147574000Y-72544600D03*
X145034000Y-72544600D03*
X142494000Y-72544600D03*
X139954000Y-72544600D03*
X137414000Y-72544600D03*
X134874000Y-72544600D03*
X132334000Y-72544600D03*
X129794000Y-72544600D03*
X127254000Y-72544600D03*
X124714000Y-72544600D03*
X122174000Y-72544600D03*
X119634000Y-72544600D03*
X117094000Y-72544600D03*
X114554000Y-72544600D03*
X112014000Y-72544600D03*
X109474000Y-72544600D03*
X106934000Y-72544600D03*
X104394000Y-72544600D03*
X101854000Y-72544600D03*
X99314000Y-72544600D03*
X99314000Y-76344600D03*
X101854000Y-76344600D03*
X104394000Y-76344600D03*
X106934000Y-76344600D03*
X109474000Y-76344600D03*
X112014000Y-76344600D03*
X114554000Y-76344600D03*
X117094000Y-76344600D03*
X119634000Y-76344600D03*
X122174000Y-76344600D03*
X124714000Y-76344600D03*
X127254000Y-76344600D03*
X129794000Y-76344600D03*
X132334000Y-76344600D03*
X134874000Y-76344600D03*
X137414000Y-76344600D03*
X139954000Y-76344600D03*
X142494000Y-76344600D03*
X145034000Y-76344600D03*
X147574000Y-76344600D03*
X150114000Y-76344600D03*
X152654000Y-76344600D03*
X155194000Y-76344600D03*
X157734000Y-76344600D03*
X160274000Y-76344600D03*
X162814000Y-76344600D03*
X165354000Y-76344600D03*
X167894000Y-76344600D03*
X170434000Y-76344600D03*
X172974000Y-76344600D03*
X175514000Y-76344600D03*
X178054000Y-76344600D03*
D13*
X139065000Y-91020000D03*
X139065000Y-83820000D03*
X127635000Y-91020000D03*
X127635000Y-83820000D03*
D14*
X104990000Y-86360000D03*
X115990000Y-86360000D03*
D15*
X187960000Y-91440000D03*
X88900000Y-91440000D03*
X187960000Y-68580000D03*
X88900000Y-68580000D03*
D16*
X172720000Y-81280000D03*
X172720000Y-88900000D03*
X175260000Y-81280000D03*
X175260000Y-88900000D03*
X177800000Y-81280000D03*
X177800000Y-88900000D03*
X180340000Y-81280000D03*
X180340000Y-88900000D03*
X147320000Y-81280000D03*
X147320000Y-88900000D03*
X149860000Y-81280000D03*
X149860000Y-88900000D03*
X152400000Y-81280000D03*
X152400000Y-88900000D03*
X154940000Y-81280000D03*
X154940000Y-88900000D03*
D17*
X167640000Y-93980000D03*
X167640000Y-83820000D03*
X160020000Y-93980000D03*
X160020000Y-83820000D03*
G04 #@! TA.AperFunction,Conductor*
G36*
X192482539Y-61480185D02*
G01*
X192528294Y-61532989D01*
X192539500Y-61584500D01*
X192539500Y-66474422D01*
X192519815Y-66541461D01*
X192467011Y-66587216D01*
X192397853Y-66597160D01*
X192334297Y-66568135D01*
X192301479Y-66523158D01*
X192289462Y-66495044D01*
X192278365Y-66474422D01*
X192085137Y-66115345D01*
X192085132Y-66115337D01*
X191847605Y-65755498D01*
X191847595Y-65755485D01*
X191578774Y-65418392D01*
X191578762Y-65418379D01*
X191280794Y-65106730D01*
X191280793Y-65106729D01*
X191280790Y-65106726D01*
X190956080Y-64823035D01*
X190779416Y-64694681D01*
X190607256Y-64569599D01*
X190607251Y-64569596D01*
X190607247Y-64569593D01*
X190237100Y-64348440D01*
X190237095Y-64348437D01*
X190237093Y-64348436D01*
X189848627Y-64161360D01*
X189848613Y-64161354D01*
X189444944Y-64009855D01*
X189444919Y-64009847D01*
X189029295Y-63895142D01*
X188605043Y-63818151D01*
X188605040Y-63818150D01*
X188605036Y-63818150D01*
X188175591Y-63779500D01*
X187744409Y-63779500D01*
X187314964Y-63818150D01*
X187314960Y-63818150D01*
X187314956Y-63818151D01*
X186890704Y-63895142D01*
X186475080Y-64009847D01*
X186475055Y-64009855D01*
X186071386Y-64161354D01*
X186071372Y-64161360D01*
X185682906Y-64348436D01*
X185682904Y-64348437D01*
X185312743Y-64569599D01*
X184963931Y-64823026D01*
X184963914Y-64823039D01*
X184639210Y-65106726D01*
X184639205Y-65106730D01*
X184341237Y-65418379D01*
X184341225Y-65418392D01*
X184072404Y-65755485D01*
X184072394Y-65755498D01*
X183834867Y-66115337D01*
X183834867Y-66115338D01*
X183630537Y-66495044D01*
X183630533Y-66495052D01*
X183461076Y-66891519D01*
X183461073Y-66891527D01*
X183327830Y-67301608D01*
X183231885Y-67721972D01*
X183174006Y-68149253D01*
X183174005Y-68149262D01*
X183154661Y-68579996D01*
X183154661Y-68580003D01*
X183174005Y-69010737D01*
X183174006Y-69010746D01*
X183231885Y-69438027D01*
X183327830Y-69858391D01*
X183461073Y-70268472D01*
X183461076Y-70268480D01*
X183630533Y-70664947D01*
X183630537Y-70664955D01*
X183698647Y-70791523D01*
X183834863Y-71044655D01*
X183834867Y-71044661D01*
X183834867Y-71044662D01*
X184072394Y-71404501D01*
X184072404Y-71404514D01*
X184341225Y-71741607D01*
X184341237Y-71741620D01*
X184532911Y-71942095D01*
X184639210Y-72053274D01*
X184963920Y-72336965D01*
X185312753Y-72590407D01*
X185682900Y-72811560D01*
X185682903Y-72811561D01*
X185682904Y-72811562D01*
X185682906Y-72811563D01*
X186071372Y-72998639D01*
X186071386Y-72998645D01*
X186475055Y-73150144D01*
X186475059Y-73150145D01*
X186475069Y-73150149D01*
X186890711Y-73264859D01*
X187314964Y-73341850D01*
X187744409Y-73380500D01*
X187744416Y-73380500D01*
X188175584Y-73380500D01*
X188175591Y-73380500D01*
X188605036Y-73341850D01*
X189029289Y-73264859D01*
X189444931Y-73150149D01*
X189848619Y-72998643D01*
X190237100Y-72811560D01*
X190607247Y-72590407D01*
X190956080Y-72336965D01*
X191280790Y-72053274D01*
X191578764Y-71741619D01*
X191847601Y-71404507D01*
X192085137Y-71044655D01*
X192289461Y-70664958D01*
X192301478Y-70636841D01*
X192345927Y-70582934D01*
X192412464Y-70561614D01*
X192479966Y-70579652D01*
X192527000Y-70631320D01*
X192539500Y-70685577D01*
X192539500Y-89334422D01*
X192519815Y-89401461D01*
X192467011Y-89447216D01*
X192397853Y-89457160D01*
X192334297Y-89428135D01*
X192301479Y-89383158D01*
X192289462Y-89355044D01*
X192172393Y-89137494D01*
X192085137Y-88975345D01*
X192035406Y-88900005D01*
X191847605Y-88615498D01*
X191847595Y-88615485D01*
X191578774Y-88278392D01*
X191578762Y-88278379D01*
X191280794Y-87966730D01*
X191280793Y-87966729D01*
X191280790Y-87966726D01*
X191052387Y-87767176D01*
X190956085Y-87683039D01*
X190956068Y-87683026D01*
X190607256Y-87429599D01*
X190607251Y-87429596D01*
X190607247Y-87429593D01*
X190237100Y-87208440D01*
X190237095Y-87208437D01*
X190237093Y-87208436D01*
X189848627Y-87021360D01*
X189848613Y-87021354D01*
X189444944Y-86869855D01*
X189444919Y-86869847D01*
X189029295Y-86755142D01*
X188605043Y-86678151D01*
X188605040Y-86678150D01*
X188605036Y-86678150D01*
X188175591Y-86639500D01*
X187744409Y-86639500D01*
X187314964Y-86678150D01*
X187314960Y-86678150D01*
X187314956Y-86678151D01*
X186890704Y-86755142D01*
X186475080Y-86869847D01*
X186475055Y-86869855D01*
X186071386Y-87021354D01*
X186071372Y-87021360D01*
X185682906Y-87208436D01*
X185682904Y-87208437D01*
X185312743Y-87429599D01*
X184963931Y-87683026D01*
X184963914Y-87683039D01*
X184639210Y-87966726D01*
X184639205Y-87966730D01*
X184341237Y-88278379D01*
X184341225Y-88278392D01*
X184072404Y-88615485D01*
X184072394Y-88615498D01*
X183834867Y-88975337D01*
X183834867Y-88975338D01*
X183630537Y-89355044D01*
X183630533Y-89355052D01*
X183461076Y-89751519D01*
X183461073Y-89751527D01*
X183327830Y-90161608D01*
X183231885Y-90581972D01*
X183174006Y-91009253D01*
X183174005Y-91009262D01*
X183154661Y-91439996D01*
X183154661Y-91440003D01*
X183174005Y-91870737D01*
X183174006Y-91870746D01*
X183231885Y-92298027D01*
X183327830Y-92718391D01*
X183461073Y-93128472D01*
X183461076Y-93128480D01*
X183630533Y-93524947D01*
X183630537Y-93524955D01*
X183698647Y-93651523D01*
X183834863Y-93904655D01*
X183834867Y-93904661D01*
X183834867Y-93904662D01*
X184072394Y-94264501D01*
X184072404Y-94264514D01*
X184341225Y-94601607D01*
X184341235Y-94601618D01*
X184341236Y-94601619D01*
X184639210Y-94913274D01*
X184963920Y-95196965D01*
X185312753Y-95450407D01*
X185682900Y-95671560D01*
X185682903Y-95671561D01*
X185682904Y-95671562D01*
X185682906Y-95671563D01*
X185915926Y-95783780D01*
X185967785Y-95830602D01*
X185986098Y-95898030D01*
X185965050Y-95964653D01*
X185911324Y-96009322D01*
X185862124Y-96019500D01*
X90997876Y-96019500D01*
X90930837Y-95999815D01*
X90885082Y-95947011D01*
X90875138Y-95877853D01*
X90904163Y-95814297D01*
X90944074Y-95783780D01*
X91135916Y-95691393D01*
X91177100Y-95671560D01*
X91547247Y-95450407D01*
X91896080Y-95196965D01*
X92220790Y-94913274D01*
X92518764Y-94601619D01*
X92787601Y-94264507D01*
X92975406Y-93979995D01*
X158264592Y-93979995D01*
X158264592Y-93980004D01*
X158284196Y-94241620D01*
X158284197Y-94241625D01*
X158342576Y-94497402D01*
X158342578Y-94497411D01*
X158342580Y-94497416D01*
X158438432Y-94741643D01*
X158569614Y-94968857D01*
X158701736Y-95134533D01*
X158733198Y-95173985D01*
X158914753Y-95342441D01*
X158925521Y-95352433D01*
X159142296Y-95500228D01*
X159142301Y-95500230D01*
X159142302Y-95500231D01*
X159142303Y-95500232D01*
X159267843Y-95560688D01*
X159378673Y-95614061D01*
X159378674Y-95614061D01*
X159378677Y-95614063D01*
X159629385Y-95691396D01*
X159888818Y-95730500D01*
X160151182Y-95730500D01*
X160410615Y-95691396D01*
X160661323Y-95614063D01*
X160897704Y-95500228D01*
X161114479Y-95352433D01*
X161263733Y-95213945D01*
X161306801Y-95173985D01*
X161306801Y-95173983D01*
X161306805Y-95173981D01*
X161470386Y-94968857D01*
X161601568Y-94741643D01*
X161697420Y-94497416D01*
X161755802Y-94241630D01*
X161775408Y-93980000D01*
X161769762Y-93904662D01*
X161755803Y-93718379D01*
X161755802Y-93718374D01*
X161755802Y-93718370D01*
X161697420Y-93462584D01*
X161601568Y-93218357D01*
X161470386Y-92991143D01*
X161306805Y-92786019D01*
X161306804Y-92786018D01*
X161306801Y-92786014D01*
X161114479Y-92607567D01*
X160897704Y-92459772D01*
X160897700Y-92459770D01*
X160897697Y-92459768D01*
X160897696Y-92459767D01*
X160661325Y-92345938D01*
X160661327Y-92345938D01*
X160410623Y-92268606D01*
X160410619Y-92268605D01*
X160410615Y-92268604D01*
X160285823Y-92249794D01*
X160151187Y-92229500D01*
X160151182Y-92229500D01*
X159888818Y-92229500D01*
X159888812Y-92229500D01*
X159727247Y-92253853D01*
X159629385Y-92268604D01*
X159629382Y-92268605D01*
X159629376Y-92268606D01*
X159378673Y-92345938D01*
X159142303Y-92459767D01*
X159142302Y-92459768D01*
X158925520Y-92607567D01*
X158733198Y-92786014D01*
X158569614Y-92991143D01*
X158438432Y-93218356D01*
X158342582Y-93462578D01*
X158342576Y-93462597D01*
X158284197Y-93718374D01*
X158284196Y-93718379D01*
X158264592Y-93979995D01*
X92975406Y-93979995D01*
X93025137Y-93904655D01*
X93229461Y-93524958D01*
X93241479Y-93496842D01*
X93273632Y-93421614D01*
X93398926Y-93128475D01*
X93532168Y-92718397D01*
X93628115Y-92298026D01*
X93685994Y-91870747D01*
X93705339Y-91440000D01*
X93685994Y-91009253D01*
X93628115Y-90581974D01*
X93532168Y-90161603D01*
X93398926Y-89751525D01*
X93273632Y-89458385D01*
X93229466Y-89355052D01*
X93229462Y-89355044D01*
X93112393Y-89137494D01*
X93025137Y-88975345D01*
X92975406Y-88900005D01*
X92787605Y-88615498D01*
X92787595Y-88615485D01*
X92518774Y-88278392D01*
X92518762Y-88278379D01*
X92220794Y-87966730D01*
X92220793Y-87966729D01*
X92220790Y-87966726D01*
X91992387Y-87767176D01*
X91896085Y-87683039D01*
X91896068Y-87683026D01*
X91547256Y-87429599D01*
X91547251Y-87429596D01*
X91547247Y-87429593D01*
X91177100Y-87208440D01*
X91177095Y-87208437D01*
X91177093Y-87208436D01*
X90788627Y-87021360D01*
X90788613Y-87021354D01*
X90384944Y-86869855D01*
X90384919Y-86869847D01*
X89969295Y-86755142D01*
X89545043Y-86678151D01*
X89545040Y-86678150D01*
X89545036Y-86678150D01*
X89115591Y-86639500D01*
X88684409Y-86639500D01*
X88254964Y-86678150D01*
X88254960Y-86678150D01*
X88254956Y-86678151D01*
X87830704Y-86755142D01*
X87415080Y-86869847D01*
X87415055Y-86869855D01*
X87011386Y-87021354D01*
X87011372Y-87021360D01*
X86622906Y-87208436D01*
X86622904Y-87208437D01*
X86252743Y-87429599D01*
X85903931Y-87683026D01*
X85903914Y-87683039D01*
X85579210Y-87966726D01*
X85579205Y-87966730D01*
X85281237Y-88278379D01*
X85281225Y-88278392D01*
X85012404Y-88615485D01*
X85012394Y-88615498D01*
X84774867Y-88975337D01*
X84774867Y-88975338D01*
X84570537Y-89355044D01*
X84558521Y-89383158D01*
X84514072Y-89437066D01*
X84447534Y-89458385D01*
X84380033Y-89440347D01*
X84333000Y-89388678D01*
X84320500Y-89334422D01*
X84320500Y-86360000D01*
X111484693Y-86360000D01*
X111503912Y-86775697D01*
X111503912Y-86775702D01*
X111503913Y-86775707D01*
X111561403Y-87187845D01*
X111561405Y-87187853D01*
X111656679Y-87592933D01*
X111788929Y-87987514D01*
X111957010Y-88368177D01*
X111957020Y-88368198D01*
X112159506Y-88731731D01*
X112159509Y-88731735D01*
X112159511Y-88731739D01*
X112394687Y-89075054D01*
X112394689Y-89075056D01*
X112394696Y-89075066D01*
X112650533Y-89383158D01*
X112660538Y-89395206D01*
X112954794Y-89689462D01*
X112954805Y-89689471D01*
X113274933Y-89955303D01*
X113274939Y-89955307D01*
X113274946Y-89955313D01*
X113618261Y-90190489D01*
X113618267Y-90190492D01*
X113618268Y-90190493D01*
X113673751Y-90221397D01*
X113981812Y-90392985D01*
X114172153Y-90477029D01*
X114362485Y-90561070D01*
X114362488Y-90561071D01*
X114362495Y-90561074D01*
X114757064Y-90693320D01*
X115162152Y-90788596D01*
X115574303Y-90846088D01*
X115990000Y-90865307D01*
X116405697Y-90846088D01*
X116817848Y-90788596D01*
X117222936Y-90693320D01*
X117617505Y-90561074D01*
X117998188Y-90392985D01*
X118361739Y-90190489D01*
X118705054Y-89955313D01*
X119025206Y-89689462D01*
X119319462Y-89395206D01*
X119585313Y-89075054D01*
X119705232Y-88899994D01*
X145877072Y-88899994D01*
X145877072Y-88900005D01*
X145896751Y-89137494D01*
X145955254Y-89368518D01*
X146050982Y-89586757D01*
X146181322Y-89786259D01*
X146181325Y-89786263D01*
X146181327Y-89786265D01*
X146342731Y-89961597D01*
X146342734Y-89961599D01*
X146342737Y-89961602D01*
X146530784Y-90107965D01*
X146530790Y-90107969D01*
X146530793Y-90107971D01*
X146740382Y-90221395D01*
X146965782Y-90298775D01*
X147200844Y-90338000D01*
X147200845Y-90338000D01*
X147439155Y-90338000D01*
X147439156Y-90338000D01*
X147674218Y-90298775D01*
X147899618Y-90221395D01*
X148109207Y-90107971D01*
X148297269Y-89961597D01*
X148458673Y-89786265D01*
X148458677Y-89786259D01*
X148486191Y-89744146D01*
X148539338Y-89698789D01*
X148608569Y-89689365D01*
X148671905Y-89718867D01*
X148693809Y-89744146D01*
X148721322Y-89786259D01*
X148721325Y-89786263D01*
X148721327Y-89786265D01*
X148882731Y-89961597D01*
X148882734Y-89961599D01*
X148882737Y-89961602D01*
X149070784Y-90107965D01*
X149070790Y-90107969D01*
X149070793Y-90107971D01*
X149280382Y-90221395D01*
X149505782Y-90298775D01*
X149740844Y-90338000D01*
X149740845Y-90338000D01*
X149979155Y-90338000D01*
X149979156Y-90338000D01*
X150214218Y-90298775D01*
X150439618Y-90221395D01*
X150649207Y-90107971D01*
X150837269Y-89961597D01*
X150998673Y-89786265D01*
X150998677Y-89786259D01*
X151026191Y-89744146D01*
X151079338Y-89698789D01*
X151148569Y-89689365D01*
X151211905Y-89718867D01*
X151233809Y-89744146D01*
X151261322Y-89786259D01*
X151261325Y-89786263D01*
X151261327Y-89786265D01*
X151422731Y-89961597D01*
X151422734Y-89961599D01*
X151422737Y-89961602D01*
X151610784Y-90107965D01*
X151610790Y-90107969D01*
X151610793Y-90107971D01*
X151820382Y-90221395D01*
X152045782Y-90298775D01*
X152280844Y-90338000D01*
X152280845Y-90338000D01*
X152519155Y-90338000D01*
X152519156Y-90338000D01*
X152754218Y-90298775D01*
X152979618Y-90221395D01*
X153189207Y-90107971D01*
X153377269Y-89961597D01*
X153538673Y-89786265D01*
X153538677Y-89786259D01*
X153566191Y-89744146D01*
X153619338Y-89698789D01*
X153688569Y-89689365D01*
X153751905Y-89718867D01*
X153773809Y-89744146D01*
X153801322Y-89786259D01*
X153801325Y-89786263D01*
X153801327Y-89786265D01*
X153962731Y-89961597D01*
X153962734Y-89961599D01*
X153962737Y-89961602D01*
X154150784Y-90107965D01*
X154150790Y-90107969D01*
X154150793Y-90107971D01*
X154360382Y-90221395D01*
X154585782Y-90298775D01*
X154820844Y-90338000D01*
X154820845Y-90338000D01*
X155059155Y-90338000D01*
X155059156Y-90338000D01*
X155294218Y-90298775D01*
X155519618Y-90221395D01*
X155729207Y-90107971D01*
X155917269Y-89961597D01*
X156078673Y-89786265D01*
X156209017Y-89586758D01*
X156304746Y-89368518D01*
X156363248Y-89137498D01*
X156382928Y-88900000D01*
X156363248Y-88662502D01*
X156304746Y-88431482D01*
X156209017Y-88213242D01*
X156135824Y-88101211D01*
X156078677Y-88013740D01*
X156078674Y-88013737D01*
X156078673Y-88013735D01*
X155917269Y-87838403D01*
X155917264Y-87838399D01*
X155917262Y-87838397D01*
X155729215Y-87692034D01*
X155729209Y-87692030D01*
X155519619Y-87578605D01*
X155519610Y-87578602D01*
X155294220Y-87501225D01*
X155137510Y-87475075D01*
X155059156Y-87462000D01*
X154820844Y-87462000D01*
X154762078Y-87471806D01*
X154585779Y-87501225D01*
X154360389Y-87578602D01*
X154360380Y-87578605D01*
X154150790Y-87692030D01*
X154150784Y-87692034D01*
X153962737Y-87838397D01*
X153962734Y-87838400D01*
X153801322Y-88013740D01*
X153773809Y-88055854D01*
X153720662Y-88101211D01*
X153651431Y-88110635D01*
X153588095Y-88081133D01*
X153566191Y-88055854D01*
X153538677Y-88013740D01*
X153538674Y-88013737D01*
X153538673Y-88013735D01*
X153377269Y-87838403D01*
X153377264Y-87838399D01*
X153377262Y-87838397D01*
X153189215Y-87692034D01*
X153189209Y-87692030D01*
X152979619Y-87578605D01*
X152979610Y-87578602D01*
X152754220Y-87501225D01*
X152597510Y-87475075D01*
X152519156Y-87462000D01*
X152280844Y-87462000D01*
X152222078Y-87471806D01*
X152045779Y-87501225D01*
X151820389Y-87578602D01*
X151820380Y-87578605D01*
X151610790Y-87692030D01*
X151610784Y-87692034D01*
X151422737Y-87838397D01*
X151422734Y-87838400D01*
X151261322Y-88013740D01*
X151233809Y-88055854D01*
X151180662Y-88101211D01*
X151111431Y-88110635D01*
X151048095Y-88081133D01*
X151026191Y-88055854D01*
X150998677Y-88013740D01*
X150998674Y-88013737D01*
X150998673Y-88013735D01*
X150837269Y-87838403D01*
X150837264Y-87838399D01*
X150837262Y-87838397D01*
X150649215Y-87692034D01*
X150649209Y-87692030D01*
X150439619Y-87578605D01*
X150439610Y-87578602D01*
X150214220Y-87501225D01*
X150057510Y-87475075D01*
X149979156Y-87462000D01*
X149740844Y-87462000D01*
X149682078Y-87471806D01*
X149505779Y-87501225D01*
X149280389Y-87578602D01*
X149280380Y-87578605D01*
X149070790Y-87692030D01*
X149070784Y-87692034D01*
X148882737Y-87838397D01*
X148882734Y-87838400D01*
X148721322Y-88013740D01*
X148693809Y-88055854D01*
X148640662Y-88101211D01*
X148571431Y-88110635D01*
X148508095Y-88081133D01*
X148486191Y-88055854D01*
X148458677Y-88013740D01*
X148458674Y-88013737D01*
X148458673Y-88013735D01*
X148297269Y-87838403D01*
X148297264Y-87838399D01*
X148297262Y-87838397D01*
X148109215Y-87692034D01*
X148109209Y-87692030D01*
X147899619Y-87578605D01*
X147899610Y-87578602D01*
X147674220Y-87501225D01*
X147517510Y-87475075D01*
X147439156Y-87462000D01*
X147200844Y-87462000D01*
X147142078Y-87471806D01*
X146965779Y-87501225D01*
X146740389Y-87578602D01*
X146740380Y-87578605D01*
X146530790Y-87692030D01*
X146530784Y-87692034D01*
X146342737Y-87838397D01*
X146342734Y-87838400D01*
X146181322Y-88013740D01*
X146050982Y-88213242D01*
X145955254Y-88431481D01*
X145896751Y-88662505D01*
X145877072Y-88899994D01*
X119705232Y-88899994D01*
X119820489Y-88731739D01*
X120022985Y-88368188D01*
X120191074Y-87987505D01*
X120323320Y-87592936D01*
X120418596Y-87187848D01*
X120476088Y-86775697D01*
X120495307Y-86360000D01*
X120476088Y-85944303D01*
X120418596Y-85532152D01*
X120323320Y-85127064D01*
X120191074Y-84732495D01*
X120022985Y-84351812D01*
X119872489Y-84081620D01*
X119820493Y-83988268D01*
X119820492Y-83988267D01*
X119820489Y-83988261D01*
X119705226Y-83819997D01*
X124271567Y-83819997D01*
X124271567Y-83820002D01*
X124291283Y-84183648D01*
X124350203Y-84543044D01*
X124350204Y-84543047D01*
X124447629Y-84893943D01*
X124447630Y-84893945D01*
X124582426Y-85232259D01*
X124582431Y-85232269D01*
X124741415Y-85532146D01*
X124753021Y-85554036D01*
X124753023Y-85554040D01*
X124957393Y-85855462D01*
X125193162Y-86133030D01*
X125457558Y-86383480D01*
X125457559Y-86383481D01*
X125629672Y-86514317D01*
X125747485Y-86603876D01*
X126059540Y-86791634D01*
X126059544Y-86791635D01*
X126059548Y-86791638D01*
X126228603Y-86869851D01*
X126390065Y-86944551D01*
X126735186Y-87060836D01*
X127090857Y-87139125D01*
X127452907Y-87178500D01*
X127452913Y-87178500D01*
X127817087Y-87178500D01*
X127817093Y-87178500D01*
X128179143Y-87139125D01*
X128534814Y-87060836D01*
X128879935Y-86944551D01*
X129210460Y-86791634D01*
X129522515Y-86603876D01*
X129812440Y-86383481D01*
X130076837Y-86133031D01*
X130312606Y-85855463D01*
X130516982Y-85554031D01*
X130687569Y-85232269D01*
X130822368Y-84893949D01*
X130919798Y-84543039D01*
X130978716Y-84183651D01*
X130998433Y-83820000D01*
X130998433Y-83819997D01*
X135701567Y-83819997D01*
X135701567Y-83820002D01*
X135721283Y-84183648D01*
X135780203Y-84543044D01*
X135780204Y-84543047D01*
X135877629Y-84893943D01*
X135877630Y-84893945D01*
X136012426Y-85232259D01*
X136012431Y-85232269D01*
X136171415Y-85532146D01*
X136183021Y-85554036D01*
X136183023Y-85554040D01*
X136387393Y-85855462D01*
X136623162Y-86133030D01*
X136887558Y-86383480D01*
X136887559Y-86383481D01*
X137059672Y-86514317D01*
X137177485Y-86603876D01*
X137489540Y-86791634D01*
X137489544Y-86791635D01*
X137489548Y-86791638D01*
X137658603Y-86869851D01*
X137820065Y-86944551D01*
X138165186Y-87060836D01*
X138520857Y-87139125D01*
X138882907Y-87178500D01*
X138882913Y-87178500D01*
X139247087Y-87178500D01*
X139247093Y-87178500D01*
X139609143Y-87139125D01*
X139964814Y-87060836D01*
X140309935Y-86944551D01*
X140640460Y-86791634D01*
X140952515Y-86603876D01*
X141242440Y-86383481D01*
X141506837Y-86133031D01*
X141742606Y-85855463D01*
X141946982Y-85554031D01*
X142117569Y-85232269D01*
X142252368Y-84893949D01*
X142349798Y-84543039D01*
X142408716Y-84183651D01*
X142428433Y-83820000D01*
X142428433Y-83819995D01*
X158264592Y-83819995D01*
X158264592Y-83820004D01*
X158284196Y-84081620D01*
X158284197Y-84081625D01*
X158342576Y-84337402D01*
X158342578Y-84337411D01*
X158342580Y-84337416D01*
X158438432Y-84581643D01*
X158569614Y-84808857D01*
X158637473Y-84893949D01*
X158733198Y-85013985D01*
X158855072Y-85127066D01*
X158925521Y-85192433D01*
X159142296Y-85340228D01*
X159142301Y-85340230D01*
X159142302Y-85340231D01*
X159142303Y-85340232D01*
X159267843Y-85400688D01*
X159378673Y-85454061D01*
X159378674Y-85454061D01*
X159378677Y-85454063D01*
X159629385Y-85531396D01*
X159888818Y-85570500D01*
X160151182Y-85570500D01*
X160410615Y-85531396D01*
X160661323Y-85454063D01*
X160897704Y-85340228D01*
X161114479Y-85192433D01*
X161306805Y-85013981D01*
X161470386Y-84808857D01*
X161601568Y-84581643D01*
X161697420Y-84337416D01*
X161755802Y-84081630D01*
X161761202Y-84009570D01*
X161775408Y-83820004D01*
X161775408Y-83819995D01*
X161755803Y-83558379D01*
X161755802Y-83558374D01*
X161755802Y-83558370D01*
X161697420Y-83302584D01*
X161601568Y-83058357D01*
X161470386Y-82831143D01*
X161306805Y-82626019D01*
X161306804Y-82626018D01*
X161306801Y-82626014D01*
X161114479Y-82447567D01*
X160897704Y-82299772D01*
X160897700Y-82299770D01*
X160897697Y-82299768D01*
X160897696Y-82299767D01*
X160661325Y-82185938D01*
X160661327Y-82185938D01*
X160410623Y-82108606D01*
X160410619Y-82108605D01*
X160410615Y-82108604D01*
X160260445Y-82085969D01*
X160151187Y-82069500D01*
X160151182Y-82069500D01*
X159888818Y-82069500D01*
X159888812Y-82069500D01*
X159727247Y-82093853D01*
X159629385Y-82108604D01*
X159629382Y-82108605D01*
X159629376Y-82108606D01*
X159378673Y-82185938D01*
X159142303Y-82299767D01*
X159142302Y-82299768D01*
X159142296Y-82299771D01*
X159142296Y-82299772D01*
X159138766Y-82302179D01*
X158925520Y-82447567D01*
X158733198Y-82626014D01*
X158569614Y-82831143D01*
X158438432Y-83058356D01*
X158342582Y-83302578D01*
X158342576Y-83302597D01*
X158284197Y-83558374D01*
X158284196Y-83558379D01*
X158264592Y-83819995D01*
X142428433Y-83819995D01*
X142418941Y-83644943D01*
X142414248Y-83558370D01*
X142408716Y-83456349D01*
X142349798Y-83096961D01*
X142266742Y-82797821D01*
X142252370Y-82746056D01*
X142252369Y-82746054D01*
X142117573Y-82407740D01*
X142117564Y-82407722D01*
X141946982Y-82085969D01*
X141946978Y-82085963D01*
X141946976Y-82085959D01*
X141742606Y-81784537D01*
X141506837Y-81506969D01*
X141267223Y-81279994D01*
X145877072Y-81279994D01*
X145877072Y-81280005D01*
X145896751Y-81517494D01*
X145955254Y-81748518D01*
X146050982Y-81966757D01*
X146181322Y-82166259D01*
X146181325Y-82166263D01*
X146181327Y-82166265D01*
X146342731Y-82341597D01*
X146342734Y-82341599D01*
X146342737Y-82341602D01*
X146530784Y-82487965D01*
X146530790Y-82487969D01*
X146530793Y-82487971D01*
X146740382Y-82601395D01*
X146965782Y-82678775D01*
X147200844Y-82718000D01*
X147200845Y-82718000D01*
X147439155Y-82718000D01*
X147439156Y-82718000D01*
X147674218Y-82678775D01*
X147899618Y-82601395D01*
X148109207Y-82487971D01*
X148297269Y-82341597D01*
X148458673Y-82166265D01*
X148486191Y-82124146D01*
X148539338Y-82078789D01*
X148608569Y-82069365D01*
X148671905Y-82098867D01*
X148693809Y-82124146D01*
X148721322Y-82166259D01*
X148721325Y-82166263D01*
X148721327Y-82166265D01*
X148882731Y-82341597D01*
X148882734Y-82341599D01*
X148882737Y-82341602D01*
X149070784Y-82487965D01*
X149070790Y-82487969D01*
X149070793Y-82487971D01*
X149280382Y-82601395D01*
X149505782Y-82678775D01*
X149740844Y-82718000D01*
X149740845Y-82718000D01*
X149979155Y-82718000D01*
X149979156Y-82718000D01*
X150214218Y-82678775D01*
X150439618Y-82601395D01*
X150649207Y-82487971D01*
X150837269Y-82341597D01*
X150998673Y-82166265D01*
X151026191Y-82124146D01*
X151079338Y-82078789D01*
X151148569Y-82069365D01*
X151211905Y-82098867D01*
X151233809Y-82124146D01*
X151261322Y-82166259D01*
X151261325Y-82166263D01*
X151261327Y-82166265D01*
X151422731Y-82341597D01*
X151422734Y-82341599D01*
X151422737Y-82341602D01*
X151610784Y-82487965D01*
X151610790Y-82487969D01*
X151610793Y-82487971D01*
X151820382Y-82601395D01*
X152045782Y-82678775D01*
X152280844Y-82718000D01*
X152280845Y-82718000D01*
X152519155Y-82718000D01*
X152519156Y-82718000D01*
X152754218Y-82678775D01*
X152979618Y-82601395D01*
X153189207Y-82487971D01*
X153377269Y-82341597D01*
X153538673Y-82166265D01*
X153566191Y-82124146D01*
X153619338Y-82078789D01*
X153688569Y-82069365D01*
X153751905Y-82098867D01*
X153773809Y-82124146D01*
X153801322Y-82166259D01*
X153801325Y-82166263D01*
X153801327Y-82166265D01*
X153962731Y-82341597D01*
X153962734Y-82341599D01*
X153962737Y-82341602D01*
X154150784Y-82487965D01*
X154150790Y-82487969D01*
X154150793Y-82487971D01*
X154360382Y-82601395D01*
X154585782Y-82678775D01*
X154820844Y-82718000D01*
X154820845Y-82718000D01*
X155059155Y-82718000D01*
X155059156Y-82718000D01*
X155294218Y-82678775D01*
X155519618Y-82601395D01*
X155729207Y-82487971D01*
X155917269Y-82341597D01*
X156078673Y-82166265D01*
X156209017Y-81966758D01*
X156304746Y-81748518D01*
X156363248Y-81517498D01*
X156371994Y-81411943D01*
X156382928Y-81280005D01*
X156382928Y-81279994D01*
X156363248Y-81042505D01*
X156363248Y-81042502D01*
X156304746Y-80811482D01*
X156209017Y-80593242D01*
X156148671Y-80500875D01*
X156078677Y-80393740D01*
X156078674Y-80393737D01*
X156078673Y-80393735D01*
X155917269Y-80218403D01*
X155917264Y-80218399D01*
X155917262Y-80218397D01*
X155729215Y-80072034D01*
X155729209Y-80072030D01*
X155519619Y-79958605D01*
X155519610Y-79958602D01*
X155294220Y-79881225D01*
X155137510Y-79855075D01*
X155059156Y-79842000D01*
X154820844Y-79842000D01*
X154762078Y-79851806D01*
X154585779Y-79881225D01*
X154360389Y-79958602D01*
X154360380Y-79958605D01*
X154150790Y-80072030D01*
X154150784Y-80072034D01*
X153962737Y-80218397D01*
X153962734Y-80218400D01*
X153801322Y-80393740D01*
X153773809Y-80435854D01*
X153720662Y-80481211D01*
X153651431Y-80490635D01*
X153588095Y-80461133D01*
X153566191Y-80435854D01*
X153538677Y-80393740D01*
X153538674Y-80393737D01*
X153538673Y-80393735D01*
X153377269Y-80218403D01*
X153377264Y-80218399D01*
X153377262Y-80218397D01*
X153189215Y-80072034D01*
X153189209Y-80072030D01*
X152979619Y-79958605D01*
X152979610Y-79958602D01*
X152754220Y-79881225D01*
X152597510Y-79855075D01*
X152519156Y-79842000D01*
X152280844Y-79842000D01*
X152222078Y-79851806D01*
X152045779Y-79881225D01*
X151820389Y-79958602D01*
X151820380Y-79958605D01*
X151610790Y-80072030D01*
X151610784Y-80072034D01*
X151422737Y-80218397D01*
X151422734Y-80218400D01*
X151261322Y-80393740D01*
X151233809Y-80435854D01*
X151180662Y-80481211D01*
X151111431Y-80490635D01*
X151048095Y-80461133D01*
X151026191Y-80435854D01*
X150998677Y-80393740D01*
X150998674Y-80393737D01*
X150998673Y-80393735D01*
X150837269Y-80218403D01*
X150837264Y-80218399D01*
X150837262Y-80218397D01*
X150649215Y-80072034D01*
X150649209Y-80072030D01*
X150439619Y-79958605D01*
X150439610Y-79958602D01*
X150214220Y-79881225D01*
X150057510Y-79855075D01*
X149979156Y-79842000D01*
X149740844Y-79842000D01*
X149682078Y-79851806D01*
X149505779Y-79881225D01*
X149280389Y-79958602D01*
X149280380Y-79958605D01*
X149070790Y-80072030D01*
X149070784Y-80072034D01*
X148882737Y-80218397D01*
X148882734Y-80218400D01*
X148721322Y-80393740D01*
X148693809Y-80435854D01*
X148640662Y-80481211D01*
X148571431Y-80490635D01*
X148508095Y-80461133D01*
X148486191Y-80435854D01*
X148458677Y-80393740D01*
X148458674Y-80393737D01*
X148458673Y-80393735D01*
X148297269Y-80218403D01*
X148297264Y-80218399D01*
X148297262Y-80218397D01*
X148109215Y-80072034D01*
X148109209Y-80072030D01*
X147899619Y-79958605D01*
X147899610Y-79958602D01*
X147674220Y-79881225D01*
X147517510Y-79855075D01*
X147439156Y-79842000D01*
X147200844Y-79842000D01*
X147142078Y-79851806D01*
X146965779Y-79881225D01*
X146740389Y-79958602D01*
X146740380Y-79958605D01*
X146530790Y-80072030D01*
X146530784Y-80072034D01*
X146342737Y-80218397D01*
X146342734Y-80218400D01*
X146181322Y-80393740D01*
X146050982Y-80593242D01*
X145955254Y-80811481D01*
X145896751Y-81042505D01*
X145877072Y-81279994D01*
X141267223Y-81279994D01*
X141242441Y-81256519D01*
X141242440Y-81256518D01*
X140952512Y-81036122D01*
X140640464Y-80848368D01*
X140640451Y-80848361D01*
X140309945Y-80695453D01*
X140309940Y-80695451D01*
X140309935Y-80695449D01*
X140141708Y-80638766D01*
X139964813Y-80579163D01*
X139609141Y-80500874D01*
X139247094Y-80461500D01*
X139247093Y-80461500D01*
X138882907Y-80461500D01*
X138882905Y-80461500D01*
X138520858Y-80500874D01*
X138165186Y-80579163D01*
X137898399Y-80669055D01*
X137820065Y-80695449D01*
X137820062Y-80695450D01*
X137820054Y-80695453D01*
X137489548Y-80848361D01*
X137489535Y-80848368D01*
X137177487Y-81036122D01*
X136887559Y-81256518D01*
X136887558Y-81256519D01*
X136623162Y-81506969D01*
X136387393Y-81784537D01*
X136183023Y-82085959D01*
X136183021Y-82085963D01*
X136012435Y-82407722D01*
X136012426Y-82407740D01*
X135877630Y-82746054D01*
X135877629Y-82746056D01*
X135780204Y-83096952D01*
X135780203Y-83096955D01*
X135721283Y-83456351D01*
X135701567Y-83819997D01*
X130998433Y-83819997D01*
X130988941Y-83644943D01*
X130984248Y-83558370D01*
X130978716Y-83456349D01*
X130919798Y-83096961D01*
X130836742Y-82797821D01*
X130822370Y-82746056D01*
X130822369Y-82746054D01*
X130687573Y-82407740D01*
X130687564Y-82407722D01*
X130516982Y-82085969D01*
X130516978Y-82085963D01*
X130516976Y-82085959D01*
X130312606Y-81784537D01*
X130076837Y-81506969D01*
X129812441Y-81256519D01*
X129812440Y-81256518D01*
X129522512Y-81036122D01*
X129210464Y-80848368D01*
X129210451Y-80848361D01*
X128879945Y-80695453D01*
X128879940Y-80695451D01*
X128879935Y-80695449D01*
X128711708Y-80638766D01*
X128534813Y-80579163D01*
X128179141Y-80500874D01*
X127817094Y-80461500D01*
X127817093Y-80461500D01*
X127452907Y-80461500D01*
X127452905Y-80461500D01*
X127090858Y-80500874D01*
X126735186Y-80579163D01*
X126468399Y-80669055D01*
X126390065Y-80695449D01*
X126390062Y-80695450D01*
X126390054Y-80695453D01*
X126059548Y-80848361D01*
X126059535Y-80848368D01*
X125747487Y-81036122D01*
X125457559Y-81256518D01*
X125457558Y-81256519D01*
X125193162Y-81506969D01*
X124957393Y-81784537D01*
X124753023Y-82085959D01*
X124753021Y-82085963D01*
X124582435Y-82407722D01*
X124582426Y-82407740D01*
X124447630Y-82746054D01*
X124447629Y-82746056D01*
X124350204Y-83096952D01*
X124350203Y-83096955D01*
X124291283Y-83456351D01*
X124271567Y-83819997D01*
X119705226Y-83819997D01*
X119585313Y-83644946D01*
X119585307Y-83644939D01*
X119585303Y-83644933D01*
X119319471Y-83324805D01*
X119319462Y-83324794D01*
X119025206Y-83030538D01*
X119025194Y-83030528D01*
X118705066Y-82764696D01*
X118705056Y-82764689D01*
X118705054Y-82764687D01*
X118361739Y-82529511D01*
X118361735Y-82529509D01*
X118361731Y-82529506D01*
X117998198Y-82327020D01*
X117998177Y-82327010D01*
X117617514Y-82158929D01*
X117222933Y-82026679D01*
X116817853Y-81931405D01*
X116817845Y-81931403D01*
X116405707Y-81873913D01*
X116405702Y-81873912D01*
X116405697Y-81873912D01*
X115990000Y-81854693D01*
X115574303Y-81873912D01*
X115574297Y-81873912D01*
X115574292Y-81873913D01*
X115162154Y-81931403D01*
X115162146Y-81931405D01*
X114757066Y-82026679D01*
X114362485Y-82158929D01*
X113981822Y-82327010D01*
X113981801Y-82327020D01*
X113618268Y-82529506D01*
X113618262Y-82529510D01*
X113274943Y-82764689D01*
X113274933Y-82764696D01*
X112954805Y-83030528D01*
X112954785Y-83030546D01*
X112660546Y-83324785D01*
X112660528Y-83324805D01*
X112394696Y-83644933D01*
X112394689Y-83644943D01*
X112159510Y-83988262D01*
X112159506Y-83988268D01*
X111957020Y-84351801D01*
X111957010Y-84351822D01*
X111788929Y-84732485D01*
X111656679Y-85127066D01*
X111561405Y-85532146D01*
X111561403Y-85532154D01*
X111503913Y-85944292D01*
X111503912Y-85944297D01*
X111503912Y-85944303D01*
X111484693Y-86360000D01*
X84320500Y-86360000D01*
X84320500Y-80009994D01*
X87775357Y-80009994D01*
X87775357Y-80010005D01*
X87795890Y-80257812D01*
X87795892Y-80257824D01*
X87856936Y-80498881D01*
X87956826Y-80726606D01*
X88092833Y-80934782D01*
X88092836Y-80934785D01*
X88261256Y-81117738D01*
X88344008Y-81182147D01*
X88384821Y-81238857D01*
X88388496Y-81308630D01*
X88353864Y-81369313D01*
X88344014Y-81377848D01*
X88285400Y-81423469D01*
X88261257Y-81442261D01*
X88092833Y-81625217D01*
X87956826Y-81833393D01*
X87856936Y-82061118D01*
X87795892Y-82302175D01*
X87795890Y-82302187D01*
X87775357Y-82549994D01*
X87775357Y-82550005D01*
X87795890Y-82797812D01*
X87795892Y-82797824D01*
X87856936Y-83038881D01*
X87956826Y-83266606D01*
X88092833Y-83474782D01*
X88092836Y-83474785D01*
X88261256Y-83657738D01*
X88457491Y-83810474D01*
X88676190Y-83928828D01*
X88911386Y-84009571D01*
X89156665Y-84050500D01*
X89405335Y-84050500D01*
X89650614Y-84009571D01*
X89885810Y-83928828D01*
X90104509Y-83810474D01*
X90300744Y-83657738D01*
X90469164Y-83474785D01*
X90605173Y-83266607D01*
X90705063Y-83038881D01*
X90766108Y-82797821D01*
X90768853Y-82764696D01*
X90786643Y-82550005D01*
X90786643Y-82549994D01*
X90766109Y-82302187D01*
X90766107Y-82302175D01*
X90705063Y-82061118D01*
X90605173Y-81833393D01*
X90469166Y-81625217D01*
X90447557Y-81601744D01*
X90300744Y-81442262D01*
X90217991Y-81377852D01*
X90177179Y-81321143D01*
X90173504Y-81251370D01*
X90208136Y-81190687D01*
X90217985Y-81182151D01*
X90300744Y-81117738D01*
X90469164Y-80934785D01*
X90605173Y-80726607D01*
X90705063Y-80498881D01*
X90766108Y-80257821D01*
X90766109Y-80257812D01*
X90786643Y-80010005D01*
X90786643Y-80009994D01*
X90766109Y-79762187D01*
X90766107Y-79762175D01*
X90705063Y-79521118D01*
X90605174Y-79293396D01*
X90605173Y-79293393D01*
X90474256Y-79093009D01*
X90454070Y-79026122D01*
X90473250Y-78958936D01*
X90518642Y-78916356D01*
X90523323Y-78913798D01*
X90523331Y-78913796D01*
X90638546Y-78827546D01*
X90724796Y-78712331D01*
X90775091Y-78577483D01*
X90781500Y-78517873D01*
X90781499Y-76422128D01*
X90775091Y-76362517D01*
X90768408Y-76344600D01*
X90768407Y-76344598D01*
X97983437Y-76344598D01*
X97983437Y-76344601D01*
X98003650Y-76575644D01*
X98003651Y-76575651D01*
X98063678Y-76799674D01*
X98063679Y-76799676D01*
X98063680Y-76799679D01*
X98161699Y-77009882D01*
X98294730Y-77199869D01*
X98458731Y-77363870D01*
X98648718Y-77496901D01*
X98858921Y-77594920D01*
X99082950Y-77654949D01*
X99247985Y-77669387D01*
X99313998Y-77675163D01*
X99314000Y-77675163D01*
X99314002Y-77675163D01*
X99371762Y-77670109D01*
X99545050Y-77654949D01*
X99769079Y-77594920D01*
X99979282Y-77496901D01*
X100169269Y-77363870D01*
X100333270Y-77199869D01*
X100466301Y-77009882D01*
X100471618Y-76998478D01*
X100517790Y-76946040D01*
X100584984Y-76926888D01*
X100651865Y-76947104D01*
X100696381Y-76998478D01*
X100701699Y-77009882D01*
X100834730Y-77199869D01*
X100998731Y-77363870D01*
X101188718Y-77496901D01*
X101398921Y-77594920D01*
X101622950Y-77654949D01*
X101787985Y-77669387D01*
X101853998Y-77675163D01*
X101854000Y-77675163D01*
X101854002Y-77675163D01*
X101911762Y-77670109D01*
X102085050Y-77654949D01*
X102309079Y-77594920D01*
X102519282Y-77496901D01*
X102709269Y-77363870D01*
X102873270Y-77199869D01*
X103006301Y-77009882D01*
X103011618Y-76998478D01*
X103057790Y-76946040D01*
X103124984Y-76926888D01*
X103191865Y-76947104D01*
X103236381Y-76998478D01*
X103241699Y-77009882D01*
X103374730Y-77199869D01*
X103538731Y-77363870D01*
X103728718Y-77496901D01*
X103938921Y-77594920D01*
X104162950Y-77654949D01*
X104327985Y-77669387D01*
X104393998Y-77675163D01*
X104394000Y-77675163D01*
X104394002Y-77675163D01*
X104451762Y-77670109D01*
X104625050Y-77654949D01*
X104849079Y-77594920D01*
X105059282Y-77496901D01*
X105249269Y-77363870D01*
X105413270Y-77199869D01*
X105546301Y-77009882D01*
X105551618Y-76998478D01*
X105597790Y-76946040D01*
X105664984Y-76926888D01*
X105731865Y-76947104D01*
X105776381Y-76998478D01*
X105781699Y-77009882D01*
X105914730Y-77199869D01*
X106078731Y-77363870D01*
X106268718Y-77496901D01*
X106478921Y-77594920D01*
X106702950Y-77654949D01*
X106867985Y-77669387D01*
X106933998Y-77675163D01*
X106934000Y-77675163D01*
X106934002Y-77675163D01*
X106991762Y-77670109D01*
X107165050Y-77654949D01*
X107389079Y-77594920D01*
X107599282Y-77496901D01*
X107789269Y-77363870D01*
X107953270Y-77199869D01*
X108086301Y-77009882D01*
X108091618Y-76998478D01*
X108137790Y-76946040D01*
X108204984Y-76926888D01*
X108271865Y-76947104D01*
X108316381Y-76998478D01*
X108321699Y-77009882D01*
X108454730Y-77199869D01*
X108618731Y-77363870D01*
X108808718Y-77496901D01*
X109018921Y-77594920D01*
X109242950Y-77654949D01*
X109407985Y-77669387D01*
X109473998Y-77675163D01*
X109474000Y-77675163D01*
X109474002Y-77675163D01*
X109531762Y-77670109D01*
X109705050Y-77654949D01*
X109929079Y-77594920D01*
X110139282Y-77496901D01*
X110329269Y-77363870D01*
X110493270Y-77199869D01*
X110626301Y-77009882D01*
X110631618Y-76998478D01*
X110677790Y-76946040D01*
X110744984Y-76926888D01*
X110811865Y-76947104D01*
X110856381Y-76998478D01*
X110861699Y-77009882D01*
X110994730Y-77199869D01*
X111158731Y-77363870D01*
X111348718Y-77496901D01*
X111558921Y-77594920D01*
X111782950Y-77654949D01*
X111947985Y-77669387D01*
X112013998Y-77675163D01*
X112014000Y-77675163D01*
X112014002Y-77675163D01*
X112071762Y-77670109D01*
X112245050Y-77654949D01*
X112469079Y-77594920D01*
X112679282Y-77496901D01*
X112869269Y-77363870D01*
X113033270Y-77199869D01*
X113166301Y-77009882D01*
X113264320Y-76799679D01*
X113324349Y-76575650D01*
X113341675Y-76377607D01*
X113344563Y-76344601D01*
X113344563Y-76344598D01*
X146243437Y-76344598D01*
X146243437Y-76344601D01*
X146263650Y-76575644D01*
X146263651Y-76575651D01*
X146323678Y-76799674D01*
X146323679Y-76799676D01*
X146323680Y-76799679D01*
X146421699Y-77009882D01*
X146554730Y-77199869D01*
X146718731Y-77363870D01*
X146908718Y-77496901D01*
X147118921Y-77594920D01*
X147342950Y-77654949D01*
X147507985Y-77669387D01*
X147573998Y-77675163D01*
X147574000Y-77675163D01*
X147574002Y-77675163D01*
X147631762Y-77670109D01*
X147805050Y-77654949D01*
X148029079Y-77594920D01*
X148239282Y-77496901D01*
X148429269Y-77363870D01*
X148593270Y-77199869D01*
X148726301Y-77009882D01*
X148731618Y-76998478D01*
X148777790Y-76946040D01*
X148844984Y-76926888D01*
X148911865Y-76947104D01*
X148956381Y-76998478D01*
X148961699Y-77009882D01*
X149094730Y-77199869D01*
X149258731Y-77363870D01*
X149448718Y-77496901D01*
X149658921Y-77594920D01*
X149882950Y-77654949D01*
X150047985Y-77669387D01*
X150113998Y-77675163D01*
X150114000Y-77675163D01*
X150114002Y-77675163D01*
X150171762Y-77670109D01*
X150345050Y-77654949D01*
X150569079Y-77594920D01*
X150779282Y-77496901D01*
X150969269Y-77363870D01*
X151133270Y-77199869D01*
X151266301Y-77009882D01*
X151271618Y-76998478D01*
X151317790Y-76946040D01*
X151384984Y-76926888D01*
X151451865Y-76947104D01*
X151496381Y-76998478D01*
X151501699Y-77009882D01*
X151634730Y-77199869D01*
X151798731Y-77363870D01*
X151988718Y-77496901D01*
X152198921Y-77594920D01*
X152422950Y-77654949D01*
X152587985Y-77669387D01*
X152653998Y-77675163D01*
X152654000Y-77675163D01*
X152654002Y-77675163D01*
X152711762Y-77670109D01*
X152885050Y-77654949D01*
X153109079Y-77594920D01*
X153319282Y-77496901D01*
X153509269Y-77363870D01*
X153673270Y-77199869D01*
X153806301Y-77009882D01*
X153811618Y-76998478D01*
X153857790Y-76946040D01*
X153924984Y-76926888D01*
X153991865Y-76947104D01*
X154036381Y-76998478D01*
X154041699Y-77009882D01*
X154174730Y-77199869D01*
X154338731Y-77363870D01*
X154528718Y-77496901D01*
X154738921Y-77594920D01*
X154962950Y-77654949D01*
X155127985Y-77669387D01*
X155193998Y-77675163D01*
X155194000Y-77675163D01*
X155194002Y-77675163D01*
X155251762Y-77670109D01*
X155425050Y-77654949D01*
X155649079Y-77594920D01*
X155859282Y-77496901D01*
X156049269Y-77363870D01*
X156213270Y-77199869D01*
X156346301Y-77009882D01*
X156351618Y-76998478D01*
X156397790Y-76946040D01*
X156464984Y-76926888D01*
X156531865Y-76947104D01*
X156576381Y-76998478D01*
X156581699Y-77009882D01*
X156714730Y-77199869D01*
X156878731Y-77363870D01*
X157068718Y-77496901D01*
X157278921Y-77594920D01*
X157502950Y-77654949D01*
X157667985Y-77669387D01*
X157733998Y-77675163D01*
X157734000Y-77675163D01*
X157734002Y-77675163D01*
X157791762Y-77670109D01*
X157965050Y-77654949D01*
X158189079Y-77594920D01*
X158399282Y-77496901D01*
X158589269Y-77363870D01*
X158753270Y-77199869D01*
X158886301Y-77009882D01*
X158891618Y-76998478D01*
X158937790Y-76946040D01*
X159004984Y-76926888D01*
X159071865Y-76947104D01*
X159116381Y-76998478D01*
X159121699Y-77009882D01*
X159254730Y-77199869D01*
X159418731Y-77363870D01*
X159608718Y-77496901D01*
X159818921Y-77594920D01*
X160042950Y-77654949D01*
X160207985Y-77669387D01*
X160273998Y-77675163D01*
X160274000Y-77675163D01*
X160274002Y-77675163D01*
X160331762Y-77670109D01*
X160505050Y-77654949D01*
X160729079Y-77594920D01*
X160939282Y-77496901D01*
X161129269Y-77363870D01*
X161293270Y-77199869D01*
X161426301Y-77009882D01*
X161431618Y-76998478D01*
X161477790Y-76946040D01*
X161544984Y-76926888D01*
X161611865Y-76947104D01*
X161656381Y-76998478D01*
X161661699Y-77009882D01*
X161794730Y-77199869D01*
X161958731Y-77363870D01*
X162148718Y-77496901D01*
X162358921Y-77594920D01*
X162582950Y-77654949D01*
X162747985Y-77669387D01*
X162813998Y-77675163D01*
X162814000Y-77675163D01*
X162814002Y-77675163D01*
X162871762Y-77670109D01*
X163045050Y-77654949D01*
X163269079Y-77594920D01*
X163479282Y-77496901D01*
X163669269Y-77363870D01*
X163833270Y-77199869D01*
X163966301Y-77009882D01*
X163971618Y-76998478D01*
X164017790Y-76946040D01*
X164084984Y-76926888D01*
X164151865Y-76947104D01*
X164196381Y-76998478D01*
X164201699Y-77009882D01*
X164334730Y-77199869D01*
X164498731Y-77363870D01*
X164688718Y-77496901D01*
X164898921Y-77594920D01*
X165122950Y-77654949D01*
X165287985Y-77669387D01*
X165353998Y-77675163D01*
X165354000Y-77675163D01*
X165354002Y-77675163D01*
X165411762Y-77670109D01*
X165585050Y-77654949D01*
X165809079Y-77594920D01*
X166019282Y-77496901D01*
X166209269Y-77363870D01*
X166373270Y-77199869D01*
X166506301Y-77009882D01*
X166511618Y-76998478D01*
X166557790Y-76946040D01*
X166624984Y-76926888D01*
X166691865Y-76947104D01*
X166736381Y-76998478D01*
X166741699Y-77009882D01*
X166874730Y-77199869D01*
X167038731Y-77363870D01*
X167228718Y-77496901D01*
X167438921Y-77594920D01*
X167662950Y-77654949D01*
X167827985Y-77669387D01*
X167893998Y-77675163D01*
X167894000Y-77675163D01*
X167894002Y-77675163D01*
X167951762Y-77670109D01*
X168125050Y-77654949D01*
X168349079Y-77594920D01*
X168559282Y-77496901D01*
X168749269Y-77363870D01*
X168913270Y-77199869D01*
X169046301Y-77009882D01*
X169051618Y-76998478D01*
X169097790Y-76946040D01*
X169164984Y-76926888D01*
X169231865Y-76947104D01*
X169276381Y-76998478D01*
X169281699Y-77009882D01*
X169414730Y-77199869D01*
X169578731Y-77363870D01*
X169768718Y-77496901D01*
X169978921Y-77594920D01*
X170202950Y-77654949D01*
X170367985Y-77669387D01*
X170433998Y-77675163D01*
X170434000Y-77675163D01*
X170434002Y-77675163D01*
X170491762Y-77670109D01*
X170665050Y-77654949D01*
X170889079Y-77594920D01*
X171099282Y-77496901D01*
X171289269Y-77363870D01*
X171453270Y-77199869D01*
X171586301Y-77009882D01*
X171591618Y-76998478D01*
X171637790Y-76946040D01*
X171704984Y-76926888D01*
X171771865Y-76947104D01*
X171816381Y-76998478D01*
X171821699Y-77009882D01*
X171954730Y-77199869D01*
X172118731Y-77363870D01*
X172308718Y-77496901D01*
X172518921Y-77594920D01*
X172742950Y-77654949D01*
X172907985Y-77669387D01*
X172973998Y-77675163D01*
X172974000Y-77675163D01*
X172974002Y-77675163D01*
X173031762Y-77670109D01*
X173205050Y-77654949D01*
X173429079Y-77594920D01*
X173639282Y-77496901D01*
X173829269Y-77363870D01*
X173993270Y-77199869D01*
X174126301Y-77009882D01*
X174131618Y-76998478D01*
X174177790Y-76946040D01*
X174244984Y-76926888D01*
X174311865Y-76947104D01*
X174356381Y-76998478D01*
X174361699Y-77009882D01*
X174494730Y-77199869D01*
X174658731Y-77363870D01*
X174848718Y-77496901D01*
X175058921Y-77594920D01*
X175282950Y-77654949D01*
X175447985Y-77669387D01*
X175513998Y-77675163D01*
X175514000Y-77675163D01*
X175514002Y-77675163D01*
X175571762Y-77670109D01*
X175745050Y-77654949D01*
X175969079Y-77594920D01*
X176179282Y-77496901D01*
X176369269Y-77363870D01*
X176533270Y-77199869D01*
X176666301Y-77009882D01*
X176671618Y-76998478D01*
X176717790Y-76946040D01*
X176784984Y-76926888D01*
X176851865Y-76947104D01*
X176896381Y-76998478D01*
X176901699Y-77009882D01*
X177034730Y-77199869D01*
X177198731Y-77363870D01*
X177388718Y-77496901D01*
X177598921Y-77594920D01*
X177822950Y-77654949D01*
X177987985Y-77669387D01*
X178053998Y-77675163D01*
X178054000Y-77675163D01*
X178054002Y-77675163D01*
X178111762Y-77670109D01*
X178285050Y-77654949D01*
X178509079Y-77594920D01*
X178719282Y-77496901D01*
X178909269Y-77363870D01*
X179073270Y-77199869D01*
X179206301Y-77009882D01*
X179304320Y-76799679D01*
X179364349Y-76575650D01*
X179381675Y-76377607D01*
X179384563Y-76344601D01*
X179384563Y-76344598D01*
X179374333Y-76227669D01*
X179364349Y-76113550D01*
X179304320Y-75889521D01*
X179206301Y-75679319D01*
X179206299Y-75679316D01*
X179206298Y-75679314D01*
X179073273Y-75489335D01*
X179073268Y-75489329D01*
X178909269Y-75325330D01*
X178909263Y-75325326D01*
X178719282Y-75192299D01*
X178509079Y-75094280D01*
X178509076Y-75094279D01*
X178509074Y-75094278D01*
X178285051Y-75034251D01*
X178285044Y-75034250D01*
X178054002Y-75014037D01*
X178053998Y-75014037D01*
X177822955Y-75034250D01*
X177822948Y-75034251D01*
X177598917Y-75094281D01*
X177388718Y-75192299D01*
X177388714Y-75192301D01*
X177198735Y-75325326D01*
X177198729Y-75325331D01*
X177034731Y-75489329D01*
X177034726Y-75489335D01*
X176901701Y-75679314D01*
X176901698Y-75679320D01*
X176896381Y-75690723D01*
X176850207Y-75743162D01*
X176783013Y-75762312D01*
X176716133Y-75742095D01*
X176671619Y-75690723D01*
X176666301Y-75679320D01*
X176666298Y-75679314D01*
X176533273Y-75489335D01*
X176533268Y-75489329D01*
X176369269Y-75325330D01*
X176369263Y-75325326D01*
X176179282Y-75192299D01*
X175969079Y-75094280D01*
X175969076Y-75094279D01*
X175969074Y-75094278D01*
X175745051Y-75034251D01*
X175745044Y-75034250D01*
X175514002Y-75014037D01*
X175513998Y-75014037D01*
X175282955Y-75034250D01*
X175282948Y-75034251D01*
X175058917Y-75094281D01*
X174848718Y-75192299D01*
X174848714Y-75192301D01*
X174658735Y-75325326D01*
X174658729Y-75325331D01*
X174494731Y-75489329D01*
X174494726Y-75489335D01*
X174361701Y-75679314D01*
X174361698Y-75679320D01*
X174356381Y-75690723D01*
X174310207Y-75743162D01*
X174243013Y-75762312D01*
X174176133Y-75742095D01*
X174131619Y-75690723D01*
X174126301Y-75679320D01*
X174126298Y-75679314D01*
X173993273Y-75489335D01*
X173993268Y-75489329D01*
X173829269Y-75325330D01*
X173829263Y-75325326D01*
X173639282Y-75192299D01*
X173429079Y-75094280D01*
X173429076Y-75094279D01*
X173429074Y-75094278D01*
X173205051Y-75034251D01*
X173205044Y-75034250D01*
X172974002Y-75014037D01*
X172973998Y-75014037D01*
X172742955Y-75034250D01*
X172742948Y-75034251D01*
X172518917Y-75094281D01*
X172308718Y-75192299D01*
X172308714Y-75192301D01*
X172118735Y-75325326D01*
X172118729Y-75325331D01*
X171954731Y-75489329D01*
X171954726Y-75489335D01*
X171821701Y-75679314D01*
X171821698Y-75679320D01*
X171816381Y-75690723D01*
X171770207Y-75743162D01*
X171703013Y-75762312D01*
X171636133Y-75742095D01*
X171591619Y-75690723D01*
X171586301Y-75679320D01*
X171586298Y-75679314D01*
X171453273Y-75489335D01*
X171453268Y-75489329D01*
X171289269Y-75325330D01*
X171289263Y-75325326D01*
X171099282Y-75192299D01*
X170889079Y-75094280D01*
X170889076Y-75094279D01*
X170889074Y-75094278D01*
X170665051Y-75034251D01*
X170665044Y-75034250D01*
X170434002Y-75014037D01*
X170433998Y-75014037D01*
X170202955Y-75034250D01*
X170202948Y-75034251D01*
X169978917Y-75094281D01*
X169768718Y-75192299D01*
X169768714Y-75192301D01*
X169578735Y-75325326D01*
X169578729Y-75325331D01*
X169414731Y-75489329D01*
X169414726Y-75489335D01*
X169281701Y-75679314D01*
X169281698Y-75679320D01*
X169276381Y-75690723D01*
X169230207Y-75743162D01*
X169163013Y-75762312D01*
X169096133Y-75742095D01*
X169051619Y-75690723D01*
X169046301Y-75679320D01*
X169046298Y-75679314D01*
X168913273Y-75489335D01*
X168913268Y-75489329D01*
X168749269Y-75325330D01*
X168749263Y-75325326D01*
X168559282Y-75192299D01*
X168349079Y-75094280D01*
X168349076Y-75094279D01*
X168349074Y-75094278D01*
X168125051Y-75034251D01*
X168125044Y-75034250D01*
X167894002Y-75014037D01*
X167893998Y-75014037D01*
X167662955Y-75034250D01*
X167662948Y-75034251D01*
X167438917Y-75094281D01*
X167228718Y-75192299D01*
X167228714Y-75192301D01*
X167038735Y-75325326D01*
X167038729Y-75325331D01*
X166874731Y-75489329D01*
X166874726Y-75489335D01*
X166741701Y-75679314D01*
X166741698Y-75679320D01*
X166736381Y-75690723D01*
X166690207Y-75743162D01*
X166623013Y-75762312D01*
X166556133Y-75742095D01*
X166511619Y-75690723D01*
X166506301Y-75679320D01*
X166506298Y-75679314D01*
X166373273Y-75489335D01*
X166373268Y-75489329D01*
X166209269Y-75325330D01*
X166209263Y-75325326D01*
X166019282Y-75192299D01*
X165809079Y-75094280D01*
X165809076Y-75094279D01*
X165809074Y-75094278D01*
X165585051Y-75034251D01*
X165585044Y-75034250D01*
X165354002Y-75014037D01*
X165353998Y-75014037D01*
X165122955Y-75034250D01*
X165122948Y-75034251D01*
X164898917Y-75094281D01*
X164688718Y-75192299D01*
X164688714Y-75192301D01*
X164498735Y-75325326D01*
X164498729Y-75325331D01*
X164334731Y-75489329D01*
X164334726Y-75489335D01*
X164201701Y-75679314D01*
X164201698Y-75679320D01*
X164196381Y-75690723D01*
X164150207Y-75743162D01*
X164083013Y-75762312D01*
X164016133Y-75742095D01*
X163971619Y-75690723D01*
X163966301Y-75679320D01*
X163966298Y-75679314D01*
X163833273Y-75489335D01*
X163833268Y-75489329D01*
X163669269Y-75325330D01*
X163669263Y-75325326D01*
X163479282Y-75192299D01*
X163269079Y-75094280D01*
X163269076Y-75094279D01*
X163269074Y-75094278D01*
X163045051Y-75034251D01*
X163045044Y-75034250D01*
X162814002Y-75014037D01*
X162813998Y-75014037D01*
X162582955Y-75034250D01*
X162582948Y-75034251D01*
X162358917Y-75094281D01*
X162148718Y-75192299D01*
X162148714Y-75192301D01*
X161958735Y-75325326D01*
X161958729Y-75325331D01*
X161794731Y-75489329D01*
X161794726Y-75489335D01*
X161661701Y-75679314D01*
X161661698Y-75679320D01*
X161656381Y-75690723D01*
X161610207Y-75743162D01*
X161543013Y-75762312D01*
X161476133Y-75742095D01*
X161431619Y-75690723D01*
X161426301Y-75679320D01*
X161426298Y-75679314D01*
X161293273Y-75489335D01*
X161293268Y-75489329D01*
X161129269Y-75325330D01*
X161129263Y-75325326D01*
X160939282Y-75192299D01*
X160729079Y-75094280D01*
X160729076Y-75094279D01*
X160729074Y-75094278D01*
X160505051Y-75034251D01*
X160505044Y-75034250D01*
X160274002Y-75014037D01*
X160273998Y-75014037D01*
X160042955Y-75034250D01*
X160042948Y-75034251D01*
X159818917Y-75094281D01*
X159608718Y-75192299D01*
X159608714Y-75192301D01*
X159418735Y-75325326D01*
X159418729Y-75325331D01*
X159254731Y-75489329D01*
X159254726Y-75489335D01*
X159121701Y-75679314D01*
X159121698Y-75679320D01*
X159116381Y-75690723D01*
X159070207Y-75743162D01*
X159003013Y-75762312D01*
X158936133Y-75742095D01*
X158891619Y-75690723D01*
X158886301Y-75679320D01*
X158886298Y-75679314D01*
X158753273Y-75489335D01*
X158753268Y-75489329D01*
X158589269Y-75325330D01*
X158589263Y-75325326D01*
X158399282Y-75192299D01*
X158189079Y-75094280D01*
X158189076Y-75094279D01*
X158189074Y-75094278D01*
X157965051Y-75034251D01*
X157965044Y-75034250D01*
X157734002Y-75014037D01*
X157733998Y-75014037D01*
X157502955Y-75034250D01*
X157502948Y-75034251D01*
X157278917Y-75094281D01*
X157068718Y-75192299D01*
X157068714Y-75192301D01*
X156878735Y-75325326D01*
X156878729Y-75325331D01*
X156714731Y-75489329D01*
X156714726Y-75489335D01*
X156581701Y-75679314D01*
X156581698Y-75679320D01*
X156576381Y-75690723D01*
X156530207Y-75743162D01*
X156463013Y-75762312D01*
X156396133Y-75742095D01*
X156351619Y-75690723D01*
X156346301Y-75679320D01*
X156346298Y-75679314D01*
X156213273Y-75489335D01*
X156213268Y-75489329D01*
X156049269Y-75325330D01*
X156049263Y-75325326D01*
X155859282Y-75192299D01*
X155649079Y-75094280D01*
X155649076Y-75094279D01*
X155649074Y-75094278D01*
X155425051Y-75034251D01*
X155425044Y-75034250D01*
X155194002Y-75014037D01*
X155193998Y-75014037D01*
X154962955Y-75034250D01*
X154962948Y-75034251D01*
X154738917Y-75094281D01*
X154528718Y-75192299D01*
X154528714Y-75192301D01*
X154338735Y-75325326D01*
X154338729Y-75325331D01*
X154174731Y-75489329D01*
X154174726Y-75489335D01*
X154041701Y-75679314D01*
X154041698Y-75679320D01*
X154036381Y-75690723D01*
X153990207Y-75743162D01*
X153923013Y-75762312D01*
X153856133Y-75742095D01*
X153811619Y-75690723D01*
X153806301Y-75679320D01*
X153806298Y-75679314D01*
X153673273Y-75489335D01*
X153673268Y-75489329D01*
X153509269Y-75325330D01*
X153509263Y-75325326D01*
X153319282Y-75192299D01*
X153109079Y-75094280D01*
X153109076Y-75094279D01*
X153109074Y-75094278D01*
X152885051Y-75034251D01*
X152885044Y-75034250D01*
X152654002Y-75014037D01*
X152653998Y-75014037D01*
X152422955Y-75034250D01*
X152422948Y-75034251D01*
X152198917Y-75094281D01*
X151988718Y-75192299D01*
X151988714Y-75192301D01*
X151798735Y-75325326D01*
X151798729Y-75325331D01*
X151634731Y-75489329D01*
X151634726Y-75489335D01*
X151501701Y-75679314D01*
X151501698Y-75679320D01*
X151496381Y-75690723D01*
X151450207Y-75743162D01*
X151383013Y-75762312D01*
X151316133Y-75742095D01*
X151271619Y-75690723D01*
X151266301Y-75679320D01*
X151266298Y-75679314D01*
X151133273Y-75489335D01*
X151133268Y-75489329D01*
X150969269Y-75325330D01*
X150969263Y-75325326D01*
X150779282Y-75192299D01*
X150569079Y-75094280D01*
X150569076Y-75094279D01*
X150569074Y-75094278D01*
X150345051Y-75034251D01*
X150345044Y-75034250D01*
X150114002Y-75014037D01*
X150113998Y-75014037D01*
X149882955Y-75034250D01*
X149882948Y-75034251D01*
X149658917Y-75094281D01*
X149448718Y-75192299D01*
X149448714Y-75192301D01*
X149258735Y-75325326D01*
X149258729Y-75325331D01*
X149094731Y-75489329D01*
X149094726Y-75489335D01*
X148961701Y-75679314D01*
X148961698Y-75679320D01*
X148956381Y-75690723D01*
X148910207Y-75743162D01*
X148843013Y-75762312D01*
X148776133Y-75742095D01*
X148731619Y-75690723D01*
X148726301Y-75679320D01*
X148726298Y-75679314D01*
X148593273Y-75489335D01*
X148593268Y-75489329D01*
X148429269Y-75325330D01*
X148429263Y-75325326D01*
X148239282Y-75192299D01*
X148029079Y-75094280D01*
X148029076Y-75094279D01*
X148029074Y-75094278D01*
X147805051Y-75034251D01*
X147805044Y-75034250D01*
X147574002Y-75014037D01*
X147573998Y-75014037D01*
X147342955Y-75034250D01*
X147342948Y-75034251D01*
X147118917Y-75094281D01*
X146908718Y-75192299D01*
X146908714Y-75192301D01*
X146718735Y-75325326D01*
X146718729Y-75325331D01*
X146554731Y-75489329D01*
X146554726Y-75489335D01*
X146421701Y-75679314D01*
X146421699Y-75679318D01*
X146323681Y-75889517D01*
X146263651Y-76113548D01*
X146263650Y-76113555D01*
X146243437Y-76344598D01*
X113344563Y-76344598D01*
X113334333Y-76227669D01*
X113324349Y-76113550D01*
X113264320Y-75889521D01*
X113166301Y-75679319D01*
X113166299Y-75679316D01*
X113166298Y-75679314D01*
X113033273Y-75489335D01*
X113033268Y-75489329D01*
X112869269Y-75325330D01*
X112869263Y-75325326D01*
X112679282Y-75192299D01*
X112469079Y-75094280D01*
X112469076Y-75094279D01*
X112469074Y-75094278D01*
X112245051Y-75034251D01*
X112245044Y-75034250D01*
X112014002Y-75014037D01*
X112013998Y-75014037D01*
X111782955Y-75034250D01*
X111782948Y-75034251D01*
X111558917Y-75094281D01*
X111348718Y-75192299D01*
X111348714Y-75192301D01*
X111158735Y-75325326D01*
X111158729Y-75325331D01*
X110994731Y-75489329D01*
X110994726Y-75489335D01*
X110861701Y-75679314D01*
X110861698Y-75679320D01*
X110856381Y-75690723D01*
X110810207Y-75743162D01*
X110743013Y-75762312D01*
X110676133Y-75742095D01*
X110631619Y-75690723D01*
X110626301Y-75679320D01*
X110626298Y-75679314D01*
X110493273Y-75489335D01*
X110493268Y-75489329D01*
X110329269Y-75325330D01*
X110329263Y-75325326D01*
X110139282Y-75192299D01*
X109929079Y-75094280D01*
X109929076Y-75094279D01*
X109929074Y-75094278D01*
X109705051Y-75034251D01*
X109705044Y-75034250D01*
X109474002Y-75014037D01*
X109473998Y-75014037D01*
X109242955Y-75034250D01*
X109242948Y-75034251D01*
X109018917Y-75094281D01*
X108808718Y-75192299D01*
X108808714Y-75192301D01*
X108618735Y-75325326D01*
X108618729Y-75325331D01*
X108454731Y-75489329D01*
X108454726Y-75489335D01*
X108321701Y-75679314D01*
X108321698Y-75679320D01*
X108316381Y-75690723D01*
X108270207Y-75743162D01*
X108203013Y-75762312D01*
X108136133Y-75742095D01*
X108091619Y-75690723D01*
X108086301Y-75679320D01*
X108086298Y-75679314D01*
X107953273Y-75489335D01*
X107953268Y-75489329D01*
X107789269Y-75325330D01*
X107789263Y-75325326D01*
X107599282Y-75192299D01*
X107389079Y-75094280D01*
X107389076Y-75094279D01*
X107389074Y-75094278D01*
X107165051Y-75034251D01*
X107165044Y-75034250D01*
X106934002Y-75014037D01*
X106933998Y-75014037D01*
X106702955Y-75034250D01*
X106702948Y-75034251D01*
X106478917Y-75094281D01*
X106268718Y-75192299D01*
X106268714Y-75192301D01*
X106078735Y-75325326D01*
X106078729Y-75325331D01*
X105914731Y-75489329D01*
X105914726Y-75489335D01*
X105781701Y-75679314D01*
X105781698Y-75679320D01*
X105776381Y-75690723D01*
X105730207Y-75743162D01*
X105663013Y-75762312D01*
X105596133Y-75742095D01*
X105551619Y-75690723D01*
X105546301Y-75679320D01*
X105546298Y-75679314D01*
X105413273Y-75489335D01*
X105413268Y-75489329D01*
X105249269Y-75325330D01*
X105249263Y-75325326D01*
X105059282Y-75192299D01*
X104849079Y-75094280D01*
X104849076Y-75094279D01*
X104849074Y-75094278D01*
X104625051Y-75034251D01*
X104625044Y-75034250D01*
X104394002Y-75014037D01*
X104393998Y-75014037D01*
X104162955Y-75034250D01*
X104162948Y-75034251D01*
X103938917Y-75094281D01*
X103728718Y-75192299D01*
X103728714Y-75192301D01*
X103538735Y-75325326D01*
X103538729Y-75325331D01*
X103374731Y-75489329D01*
X103374726Y-75489335D01*
X103241701Y-75679314D01*
X103241698Y-75679320D01*
X103236381Y-75690723D01*
X103190207Y-75743162D01*
X103123013Y-75762312D01*
X103056133Y-75742095D01*
X103011619Y-75690723D01*
X103006301Y-75679320D01*
X103006298Y-75679314D01*
X102873273Y-75489335D01*
X102873268Y-75489329D01*
X102709269Y-75325330D01*
X102709263Y-75325326D01*
X102519282Y-75192299D01*
X102309079Y-75094280D01*
X102309076Y-75094279D01*
X102309074Y-75094278D01*
X102085051Y-75034251D01*
X102085044Y-75034250D01*
X101854002Y-75014037D01*
X101853998Y-75014037D01*
X101622955Y-75034250D01*
X101622948Y-75034251D01*
X101398917Y-75094281D01*
X101188718Y-75192299D01*
X101188714Y-75192301D01*
X100998735Y-75325326D01*
X100998729Y-75325331D01*
X100834731Y-75489329D01*
X100834726Y-75489335D01*
X100701701Y-75679314D01*
X100701698Y-75679320D01*
X100696381Y-75690723D01*
X100650207Y-75743162D01*
X100583013Y-75762312D01*
X100516133Y-75742095D01*
X100471619Y-75690723D01*
X100466301Y-75679320D01*
X100466298Y-75679314D01*
X100333273Y-75489335D01*
X100333268Y-75489329D01*
X100169269Y-75325330D01*
X100169263Y-75325326D01*
X99979282Y-75192299D01*
X99769079Y-75094280D01*
X99769076Y-75094279D01*
X99769074Y-75094278D01*
X99545051Y-75034251D01*
X99545044Y-75034250D01*
X99314002Y-75014037D01*
X99313998Y-75014037D01*
X99082955Y-75034250D01*
X99082948Y-75034251D01*
X98858917Y-75094281D01*
X98648718Y-75192299D01*
X98648714Y-75192301D01*
X98458735Y-75325326D01*
X98458729Y-75325331D01*
X98294731Y-75489329D01*
X98294726Y-75489335D01*
X98161701Y-75679314D01*
X98161699Y-75679318D01*
X98063681Y-75889517D01*
X98003651Y-76113548D01*
X98003650Y-76113555D01*
X97983437Y-76344598D01*
X90768407Y-76344598D01*
X90724797Y-76227671D01*
X90724793Y-76227664D01*
X90638547Y-76112455D01*
X90638544Y-76112452D01*
X90523335Y-76026206D01*
X90523328Y-76026202D01*
X90388482Y-75975908D01*
X90388483Y-75975908D01*
X90328883Y-75969501D01*
X90328881Y-75969500D01*
X90328873Y-75969500D01*
X90328864Y-75969500D01*
X88233129Y-75969500D01*
X88233123Y-75969501D01*
X88173516Y-75975908D01*
X88038671Y-76026202D01*
X88038664Y-76026206D01*
X87923455Y-76112452D01*
X87923452Y-76112455D01*
X87837206Y-76227664D01*
X87837202Y-76227671D01*
X87786908Y-76362517D01*
X87780501Y-76422116D01*
X87780501Y-76422123D01*
X87780500Y-76422135D01*
X87780500Y-78517870D01*
X87780501Y-78517876D01*
X87786908Y-78577483D01*
X87837202Y-78712328D01*
X87837206Y-78712335D01*
X87923452Y-78827544D01*
X87923455Y-78827547D01*
X88038664Y-78913793D01*
X88043361Y-78916358D01*
X88092766Y-78965764D01*
X88107617Y-79034037D01*
X88087742Y-79093011D01*
X87956826Y-79293393D01*
X87856936Y-79521118D01*
X87795892Y-79762175D01*
X87795890Y-79762187D01*
X87775357Y-80009994D01*
X84320500Y-80009994D01*
X84320500Y-70685577D01*
X84340185Y-70618538D01*
X84392989Y-70572783D01*
X84462147Y-70562839D01*
X84525703Y-70591864D01*
X84558521Y-70636840D01*
X84570539Y-70664958D01*
X84774863Y-71044655D01*
X84774867Y-71044661D01*
X84774867Y-71044662D01*
X85012394Y-71404501D01*
X85012404Y-71404514D01*
X85281225Y-71741607D01*
X85281237Y-71741620D01*
X85472911Y-71942095D01*
X85579210Y-72053274D01*
X85903920Y-72336965D01*
X86252753Y-72590407D01*
X86622900Y-72811560D01*
X86622903Y-72811561D01*
X86622904Y-72811562D01*
X86622906Y-72811563D01*
X87011372Y-72998639D01*
X87011386Y-72998645D01*
X87415055Y-73150144D01*
X87415059Y-73150145D01*
X87415069Y-73150149D01*
X87830711Y-73264859D01*
X88254964Y-73341850D01*
X88684409Y-73380500D01*
X88684416Y-73380500D01*
X89115584Y-73380500D01*
X89115591Y-73380500D01*
X89545036Y-73341850D01*
X89969289Y-73264859D01*
X90384931Y-73150149D01*
X90788619Y-72998643D01*
X91177100Y-72811560D01*
X91547247Y-72590407D01*
X91610298Y-72544598D01*
X97983437Y-72544598D01*
X97983437Y-72544601D01*
X98003650Y-72775644D01*
X98003651Y-72775651D01*
X98063678Y-72999674D01*
X98063679Y-72999676D01*
X98063680Y-72999679D01*
X98161699Y-73209882D01*
X98294730Y-73399869D01*
X98458731Y-73563870D01*
X98648718Y-73696901D01*
X98858921Y-73794920D01*
X99082950Y-73854949D01*
X99247985Y-73869387D01*
X99313998Y-73875163D01*
X99314000Y-73875163D01*
X99314002Y-73875163D01*
X99371762Y-73870109D01*
X99545050Y-73854949D01*
X99769079Y-73794920D01*
X99979282Y-73696901D01*
X100169269Y-73563870D01*
X100333270Y-73399869D01*
X100466301Y-73209882D01*
X100471618Y-73198478D01*
X100517790Y-73146040D01*
X100584984Y-73126888D01*
X100651865Y-73147104D01*
X100696381Y-73198478D01*
X100701699Y-73209882D01*
X100834730Y-73399869D01*
X100998731Y-73563870D01*
X101188718Y-73696901D01*
X101398921Y-73794920D01*
X101622950Y-73854949D01*
X101787985Y-73869387D01*
X101853998Y-73875163D01*
X101854000Y-73875163D01*
X101854002Y-73875163D01*
X101911762Y-73870109D01*
X102085050Y-73854949D01*
X102309079Y-73794920D01*
X102519282Y-73696901D01*
X102709269Y-73563870D01*
X102873270Y-73399869D01*
X103006301Y-73209882D01*
X103011618Y-73198478D01*
X103057790Y-73146040D01*
X103124984Y-73126888D01*
X103191865Y-73147104D01*
X103236381Y-73198478D01*
X103241699Y-73209882D01*
X103374730Y-73399869D01*
X103538731Y-73563870D01*
X103728718Y-73696901D01*
X103938921Y-73794920D01*
X104162950Y-73854949D01*
X104327985Y-73869387D01*
X104393998Y-73875163D01*
X104394000Y-73875163D01*
X104394002Y-73875163D01*
X104451762Y-73870109D01*
X104625050Y-73854949D01*
X104849079Y-73794920D01*
X105059282Y-73696901D01*
X105249269Y-73563870D01*
X105413270Y-73399869D01*
X105546301Y-73209882D01*
X105551618Y-73198478D01*
X105597790Y-73146040D01*
X105664984Y-73126888D01*
X105731865Y-73147104D01*
X105776381Y-73198478D01*
X105781699Y-73209882D01*
X105914730Y-73399869D01*
X106078731Y-73563870D01*
X106268718Y-73696901D01*
X106478921Y-73794920D01*
X106702950Y-73854949D01*
X106867985Y-73869387D01*
X106933998Y-73875163D01*
X106934000Y-73875163D01*
X106934002Y-73875163D01*
X106991762Y-73870109D01*
X107165050Y-73854949D01*
X107389079Y-73794920D01*
X107599282Y-73696901D01*
X107789269Y-73563870D01*
X107953270Y-73399869D01*
X108086301Y-73209882D01*
X108091618Y-73198478D01*
X108137790Y-73146040D01*
X108204984Y-73126888D01*
X108271865Y-73147104D01*
X108316381Y-73198478D01*
X108321699Y-73209882D01*
X108454730Y-73399869D01*
X108618731Y-73563870D01*
X108808718Y-73696901D01*
X109018921Y-73794920D01*
X109242950Y-73854949D01*
X109407985Y-73869387D01*
X109473998Y-73875163D01*
X109474000Y-73875163D01*
X109474002Y-73875163D01*
X109531762Y-73870109D01*
X109705050Y-73854949D01*
X109929079Y-73794920D01*
X110139282Y-73696901D01*
X110329269Y-73563870D01*
X110493270Y-73399869D01*
X110626301Y-73209882D01*
X110631618Y-73198478D01*
X110677790Y-73146040D01*
X110744984Y-73126888D01*
X110811865Y-73147104D01*
X110856381Y-73198478D01*
X110861699Y-73209882D01*
X110994730Y-73399869D01*
X111158731Y-73563870D01*
X111348718Y-73696901D01*
X111558921Y-73794920D01*
X111782950Y-73854949D01*
X111947985Y-73869387D01*
X112013998Y-73875163D01*
X112014000Y-73875163D01*
X112014002Y-73875163D01*
X112071762Y-73870109D01*
X112245050Y-73854949D01*
X112469079Y-73794920D01*
X112679282Y-73696901D01*
X112869269Y-73563870D01*
X113033270Y-73399869D01*
X113166301Y-73209882D01*
X113264320Y-72999679D01*
X113324349Y-72775650D01*
X113344563Y-72544600D01*
X113344563Y-72544598D01*
X146243437Y-72544598D01*
X146243437Y-72544601D01*
X146263650Y-72775644D01*
X146263651Y-72775651D01*
X146323678Y-72999674D01*
X146323679Y-72999676D01*
X146323680Y-72999679D01*
X146421699Y-73209882D01*
X146554730Y-73399869D01*
X146718731Y-73563870D01*
X146908718Y-73696901D01*
X147118921Y-73794920D01*
X147342950Y-73854949D01*
X147507985Y-73869387D01*
X147573998Y-73875163D01*
X147574000Y-73875163D01*
X147574002Y-73875163D01*
X147631762Y-73870109D01*
X147805050Y-73854949D01*
X148029079Y-73794920D01*
X148239282Y-73696901D01*
X148429269Y-73563870D01*
X148593270Y-73399869D01*
X148726301Y-73209882D01*
X148731618Y-73198478D01*
X148777790Y-73146040D01*
X148844984Y-73126888D01*
X148911865Y-73147104D01*
X148956381Y-73198478D01*
X148961699Y-73209882D01*
X149094730Y-73399869D01*
X149258731Y-73563870D01*
X149448718Y-73696901D01*
X149658921Y-73794920D01*
X149882950Y-73854949D01*
X150047985Y-73869387D01*
X150113998Y-73875163D01*
X150114000Y-73875163D01*
X150114002Y-73875163D01*
X150171762Y-73870109D01*
X150345050Y-73854949D01*
X150569079Y-73794920D01*
X150779282Y-73696901D01*
X150969269Y-73563870D01*
X151133270Y-73399869D01*
X151266301Y-73209882D01*
X151271618Y-73198478D01*
X151317790Y-73146040D01*
X151384984Y-73126888D01*
X151451865Y-73147104D01*
X151496381Y-73198478D01*
X151501699Y-73209882D01*
X151634730Y-73399869D01*
X151798731Y-73563870D01*
X151988718Y-73696901D01*
X152198921Y-73794920D01*
X152422950Y-73854949D01*
X152587985Y-73869387D01*
X152653998Y-73875163D01*
X152654000Y-73875163D01*
X152654002Y-73875163D01*
X152711762Y-73870109D01*
X152885050Y-73854949D01*
X153109079Y-73794920D01*
X153319282Y-73696901D01*
X153509269Y-73563870D01*
X153673270Y-73399869D01*
X153806301Y-73209882D01*
X153811618Y-73198478D01*
X153857790Y-73146040D01*
X153924984Y-73126888D01*
X153991865Y-73147104D01*
X154036381Y-73198478D01*
X154041699Y-73209882D01*
X154174730Y-73399869D01*
X154338731Y-73563870D01*
X154528718Y-73696901D01*
X154738921Y-73794920D01*
X154962950Y-73854949D01*
X155127985Y-73869387D01*
X155193998Y-73875163D01*
X155194000Y-73875163D01*
X155194002Y-73875163D01*
X155251762Y-73870109D01*
X155425050Y-73854949D01*
X155649079Y-73794920D01*
X155859282Y-73696901D01*
X156049269Y-73563870D01*
X156213270Y-73399869D01*
X156346301Y-73209882D01*
X156351618Y-73198478D01*
X156397790Y-73146040D01*
X156464984Y-73126888D01*
X156531865Y-73147104D01*
X156576381Y-73198478D01*
X156581699Y-73209882D01*
X156714730Y-73399869D01*
X156878731Y-73563870D01*
X157068718Y-73696901D01*
X157278921Y-73794920D01*
X157502950Y-73854949D01*
X157667985Y-73869387D01*
X157733998Y-73875163D01*
X157734000Y-73875163D01*
X157734002Y-73875163D01*
X157791762Y-73870109D01*
X157965050Y-73854949D01*
X158189079Y-73794920D01*
X158399282Y-73696901D01*
X158589269Y-73563870D01*
X158753270Y-73399869D01*
X158886301Y-73209882D01*
X158891618Y-73198478D01*
X158937790Y-73146040D01*
X159004984Y-73126888D01*
X159071865Y-73147104D01*
X159116381Y-73198478D01*
X159121699Y-73209882D01*
X159254730Y-73399869D01*
X159418731Y-73563870D01*
X159608718Y-73696901D01*
X159818921Y-73794920D01*
X160042950Y-73854949D01*
X160207985Y-73869387D01*
X160273998Y-73875163D01*
X160274000Y-73875163D01*
X160274002Y-73875163D01*
X160331762Y-73870109D01*
X160505050Y-73854949D01*
X160729079Y-73794920D01*
X160939282Y-73696901D01*
X161129269Y-73563870D01*
X161293270Y-73399869D01*
X161426301Y-73209882D01*
X161431618Y-73198478D01*
X161477790Y-73146040D01*
X161544984Y-73126888D01*
X161611865Y-73147104D01*
X161656381Y-73198478D01*
X161661699Y-73209882D01*
X161794730Y-73399869D01*
X161958731Y-73563870D01*
X162148718Y-73696901D01*
X162358921Y-73794920D01*
X162582950Y-73854949D01*
X162747985Y-73869387D01*
X162813998Y-73875163D01*
X162814000Y-73875163D01*
X162814002Y-73875163D01*
X162871762Y-73870109D01*
X163045050Y-73854949D01*
X163269079Y-73794920D01*
X163479282Y-73696901D01*
X163669269Y-73563870D01*
X163833270Y-73399869D01*
X163966301Y-73209882D01*
X163971618Y-73198478D01*
X164017790Y-73146040D01*
X164084984Y-73126888D01*
X164151865Y-73147104D01*
X164196381Y-73198478D01*
X164201699Y-73209882D01*
X164334730Y-73399869D01*
X164498731Y-73563870D01*
X164688718Y-73696901D01*
X164898921Y-73794920D01*
X165122950Y-73854949D01*
X165287985Y-73869387D01*
X165353998Y-73875163D01*
X165354000Y-73875163D01*
X165354002Y-73875163D01*
X165411762Y-73870109D01*
X165585050Y-73854949D01*
X165809079Y-73794920D01*
X166019282Y-73696901D01*
X166209269Y-73563870D01*
X166373270Y-73399869D01*
X166506301Y-73209882D01*
X166511618Y-73198478D01*
X166557790Y-73146040D01*
X166624984Y-73126888D01*
X166691865Y-73147104D01*
X166736381Y-73198478D01*
X166741699Y-73209882D01*
X166874730Y-73399869D01*
X167038731Y-73563870D01*
X167228718Y-73696901D01*
X167438921Y-73794920D01*
X167662950Y-73854949D01*
X167827985Y-73869387D01*
X167893998Y-73875163D01*
X167894000Y-73875163D01*
X167894002Y-73875163D01*
X167951762Y-73870109D01*
X168125050Y-73854949D01*
X168349079Y-73794920D01*
X168559282Y-73696901D01*
X168749269Y-73563870D01*
X168913270Y-73399869D01*
X169046301Y-73209882D01*
X169051618Y-73198478D01*
X169097790Y-73146040D01*
X169164984Y-73126888D01*
X169231865Y-73147104D01*
X169276381Y-73198478D01*
X169281699Y-73209882D01*
X169414730Y-73399869D01*
X169578731Y-73563870D01*
X169768718Y-73696901D01*
X169978921Y-73794920D01*
X170202950Y-73854949D01*
X170367985Y-73869387D01*
X170433998Y-73875163D01*
X170434000Y-73875163D01*
X170434002Y-73875163D01*
X170491762Y-73870109D01*
X170665050Y-73854949D01*
X170889079Y-73794920D01*
X171099282Y-73696901D01*
X171289269Y-73563870D01*
X171453270Y-73399869D01*
X171586301Y-73209882D01*
X171591618Y-73198478D01*
X171637790Y-73146040D01*
X171704984Y-73126888D01*
X171771865Y-73147104D01*
X171816381Y-73198478D01*
X171821699Y-73209882D01*
X171954730Y-73399869D01*
X172118731Y-73563870D01*
X172308718Y-73696901D01*
X172518921Y-73794920D01*
X172742950Y-73854949D01*
X172907985Y-73869387D01*
X172973998Y-73875163D01*
X172974000Y-73875163D01*
X172974002Y-73875163D01*
X173031762Y-73870109D01*
X173205050Y-73854949D01*
X173429079Y-73794920D01*
X173639282Y-73696901D01*
X173829269Y-73563870D01*
X173993270Y-73399869D01*
X174126301Y-73209882D01*
X174131618Y-73198478D01*
X174177790Y-73146040D01*
X174244984Y-73126888D01*
X174311865Y-73147104D01*
X174356381Y-73198478D01*
X174361699Y-73209882D01*
X174494730Y-73399869D01*
X174658731Y-73563870D01*
X174848718Y-73696901D01*
X175058921Y-73794920D01*
X175282950Y-73854949D01*
X175447985Y-73869387D01*
X175513998Y-73875163D01*
X175514000Y-73875163D01*
X175514002Y-73875163D01*
X175571762Y-73870109D01*
X175745050Y-73854949D01*
X175969079Y-73794920D01*
X176179282Y-73696901D01*
X176369269Y-73563870D01*
X176533270Y-73399869D01*
X176666301Y-73209882D01*
X176671618Y-73198478D01*
X176717790Y-73146040D01*
X176784984Y-73126888D01*
X176851865Y-73147104D01*
X176896381Y-73198478D01*
X176901699Y-73209882D01*
X177034730Y-73399869D01*
X177198731Y-73563870D01*
X177388718Y-73696901D01*
X177598921Y-73794920D01*
X177822950Y-73854949D01*
X177987985Y-73869387D01*
X178053998Y-73875163D01*
X178054000Y-73875163D01*
X178054002Y-73875163D01*
X178111762Y-73870109D01*
X178285050Y-73854949D01*
X178509079Y-73794920D01*
X178719282Y-73696901D01*
X178909269Y-73563870D01*
X179073270Y-73399869D01*
X179206301Y-73209882D01*
X179304320Y-72999679D01*
X179364349Y-72775650D01*
X179384563Y-72544600D01*
X179364349Y-72313550D01*
X179304320Y-72089521D01*
X179206301Y-71879319D01*
X179206299Y-71879316D01*
X179206298Y-71879314D01*
X179073273Y-71689335D01*
X179073268Y-71689329D01*
X178909269Y-71525330D01*
X178909263Y-71525326D01*
X178719282Y-71392299D01*
X178509079Y-71294280D01*
X178509076Y-71294279D01*
X178509074Y-71294278D01*
X178285051Y-71234251D01*
X178285044Y-71234250D01*
X178054002Y-71214037D01*
X178053998Y-71214037D01*
X177822955Y-71234250D01*
X177822948Y-71234251D01*
X177598917Y-71294281D01*
X177388718Y-71392299D01*
X177388714Y-71392301D01*
X177198735Y-71525326D01*
X177198729Y-71525331D01*
X177034731Y-71689329D01*
X177034726Y-71689335D01*
X176901701Y-71879314D01*
X176901698Y-71879320D01*
X176896381Y-71890723D01*
X176850207Y-71943162D01*
X176783013Y-71962312D01*
X176716133Y-71942095D01*
X176671619Y-71890723D01*
X176666301Y-71879320D01*
X176666298Y-71879314D01*
X176533273Y-71689335D01*
X176533268Y-71689329D01*
X176369269Y-71525330D01*
X176369263Y-71525326D01*
X176179282Y-71392299D01*
X175969079Y-71294280D01*
X175969076Y-71294279D01*
X175969074Y-71294278D01*
X175745051Y-71234251D01*
X175745044Y-71234250D01*
X175514002Y-71214037D01*
X175513998Y-71214037D01*
X175282955Y-71234250D01*
X175282948Y-71234251D01*
X175058917Y-71294281D01*
X174848718Y-71392299D01*
X174848714Y-71392301D01*
X174658735Y-71525326D01*
X174658729Y-71525331D01*
X174494731Y-71689329D01*
X174494726Y-71689335D01*
X174361701Y-71879314D01*
X174361698Y-71879320D01*
X174356381Y-71890723D01*
X174310207Y-71943162D01*
X174243013Y-71962312D01*
X174176133Y-71942095D01*
X174131619Y-71890723D01*
X174126301Y-71879320D01*
X174126298Y-71879314D01*
X173993273Y-71689335D01*
X173993268Y-71689329D01*
X173829269Y-71525330D01*
X173829263Y-71525326D01*
X173639282Y-71392299D01*
X173429079Y-71294280D01*
X173429076Y-71294279D01*
X173429074Y-71294278D01*
X173205051Y-71234251D01*
X173205044Y-71234250D01*
X172974002Y-71214037D01*
X172973998Y-71214037D01*
X172742955Y-71234250D01*
X172742948Y-71234251D01*
X172518917Y-71294281D01*
X172308718Y-71392299D01*
X172308714Y-71392301D01*
X172118735Y-71525326D01*
X172118729Y-71525331D01*
X171954731Y-71689329D01*
X171954726Y-71689335D01*
X171821701Y-71879314D01*
X171821698Y-71879320D01*
X171816381Y-71890723D01*
X171770207Y-71943162D01*
X171703013Y-71962312D01*
X171636133Y-71942095D01*
X171591619Y-71890723D01*
X171586301Y-71879320D01*
X171586298Y-71879314D01*
X171453273Y-71689335D01*
X171453268Y-71689329D01*
X171289269Y-71525330D01*
X171289263Y-71525326D01*
X171099282Y-71392299D01*
X170889079Y-71294280D01*
X170889076Y-71294279D01*
X170889074Y-71294278D01*
X170665051Y-71234251D01*
X170665044Y-71234250D01*
X170434002Y-71214037D01*
X170433998Y-71214037D01*
X170202955Y-71234250D01*
X170202948Y-71234251D01*
X169978917Y-71294281D01*
X169768718Y-71392299D01*
X169768714Y-71392301D01*
X169578735Y-71525326D01*
X169578729Y-71525331D01*
X169414731Y-71689329D01*
X169414726Y-71689335D01*
X169281701Y-71879314D01*
X169281698Y-71879320D01*
X169276381Y-71890723D01*
X169230207Y-71943162D01*
X169163013Y-71962312D01*
X169096133Y-71942095D01*
X169051619Y-71890723D01*
X169046301Y-71879320D01*
X169046298Y-71879314D01*
X168913273Y-71689335D01*
X168913268Y-71689329D01*
X168749269Y-71525330D01*
X168749263Y-71525326D01*
X168559282Y-71392299D01*
X168349079Y-71294280D01*
X168349076Y-71294279D01*
X168349074Y-71294278D01*
X168125051Y-71234251D01*
X168125044Y-71234250D01*
X167894002Y-71214037D01*
X167893998Y-71214037D01*
X167662955Y-71234250D01*
X167662948Y-71234251D01*
X167438917Y-71294281D01*
X167228718Y-71392299D01*
X167228714Y-71392301D01*
X167038735Y-71525326D01*
X167038729Y-71525331D01*
X166874731Y-71689329D01*
X166874726Y-71689335D01*
X166741701Y-71879314D01*
X166741698Y-71879320D01*
X166736381Y-71890723D01*
X166690207Y-71943162D01*
X166623013Y-71962312D01*
X166556133Y-71942095D01*
X166511619Y-71890723D01*
X166506301Y-71879320D01*
X166506298Y-71879314D01*
X166373273Y-71689335D01*
X166373268Y-71689329D01*
X166209269Y-71525330D01*
X166209263Y-71525326D01*
X166019282Y-71392299D01*
X165809079Y-71294280D01*
X165809076Y-71294279D01*
X165809074Y-71294278D01*
X165585051Y-71234251D01*
X165585044Y-71234250D01*
X165354002Y-71214037D01*
X165353998Y-71214037D01*
X165122955Y-71234250D01*
X165122948Y-71234251D01*
X164898917Y-71294281D01*
X164688718Y-71392299D01*
X164688714Y-71392301D01*
X164498735Y-71525326D01*
X164498729Y-71525331D01*
X164334731Y-71689329D01*
X164334726Y-71689335D01*
X164201701Y-71879314D01*
X164201698Y-71879320D01*
X164196381Y-71890723D01*
X164150207Y-71943162D01*
X164083013Y-71962312D01*
X164016133Y-71942095D01*
X163971619Y-71890723D01*
X163966301Y-71879320D01*
X163966298Y-71879314D01*
X163833273Y-71689335D01*
X163833268Y-71689329D01*
X163669269Y-71525330D01*
X163669263Y-71525326D01*
X163479282Y-71392299D01*
X163269079Y-71294280D01*
X163269076Y-71294279D01*
X163269074Y-71294278D01*
X163045051Y-71234251D01*
X163045044Y-71234250D01*
X162814002Y-71214037D01*
X162813998Y-71214037D01*
X162582955Y-71234250D01*
X162582948Y-71234251D01*
X162358917Y-71294281D01*
X162148718Y-71392299D01*
X162148714Y-71392301D01*
X161958735Y-71525326D01*
X161958729Y-71525331D01*
X161794731Y-71689329D01*
X161794726Y-71689335D01*
X161661701Y-71879314D01*
X161661698Y-71879320D01*
X161656381Y-71890723D01*
X161610207Y-71943162D01*
X161543013Y-71962312D01*
X161476133Y-71942095D01*
X161431619Y-71890723D01*
X161426301Y-71879320D01*
X161426298Y-71879314D01*
X161293273Y-71689335D01*
X161293268Y-71689329D01*
X161129269Y-71525330D01*
X161129263Y-71525326D01*
X160939282Y-71392299D01*
X160729079Y-71294280D01*
X160729076Y-71294279D01*
X160729074Y-71294278D01*
X160505051Y-71234251D01*
X160505044Y-71234250D01*
X160274002Y-71214037D01*
X160273998Y-71214037D01*
X160042955Y-71234250D01*
X160042948Y-71234251D01*
X159818917Y-71294281D01*
X159608718Y-71392299D01*
X159608714Y-71392301D01*
X159418735Y-71525326D01*
X159418729Y-71525331D01*
X159254731Y-71689329D01*
X159254726Y-71689335D01*
X159121701Y-71879314D01*
X159121698Y-71879320D01*
X159116381Y-71890723D01*
X159070207Y-71943162D01*
X159003013Y-71962312D01*
X158936133Y-71942095D01*
X158891619Y-71890723D01*
X158886301Y-71879320D01*
X158886298Y-71879314D01*
X158753273Y-71689335D01*
X158753268Y-71689329D01*
X158589269Y-71525330D01*
X158589263Y-71525326D01*
X158399282Y-71392299D01*
X158189079Y-71294280D01*
X158189076Y-71294279D01*
X158189074Y-71294278D01*
X157965051Y-71234251D01*
X157965044Y-71234250D01*
X157734002Y-71214037D01*
X157733998Y-71214037D01*
X157502955Y-71234250D01*
X157502948Y-71234251D01*
X157278917Y-71294281D01*
X157068718Y-71392299D01*
X157068714Y-71392301D01*
X156878735Y-71525326D01*
X156878729Y-71525331D01*
X156714731Y-71689329D01*
X156714726Y-71689335D01*
X156581701Y-71879314D01*
X156581698Y-71879320D01*
X156576381Y-71890723D01*
X156530207Y-71943162D01*
X156463013Y-71962312D01*
X156396133Y-71942095D01*
X156351619Y-71890723D01*
X156346301Y-71879320D01*
X156346298Y-71879314D01*
X156213273Y-71689335D01*
X156213268Y-71689329D01*
X156049269Y-71525330D01*
X156049263Y-71525326D01*
X155859282Y-71392299D01*
X155649079Y-71294280D01*
X155649076Y-71294279D01*
X155649074Y-71294278D01*
X155425051Y-71234251D01*
X155425044Y-71234250D01*
X155194002Y-71214037D01*
X155193998Y-71214037D01*
X154962955Y-71234250D01*
X154962948Y-71234251D01*
X154738917Y-71294281D01*
X154528718Y-71392299D01*
X154528714Y-71392301D01*
X154338735Y-71525326D01*
X154338729Y-71525331D01*
X154174731Y-71689329D01*
X154174726Y-71689335D01*
X154041701Y-71879314D01*
X154041698Y-71879320D01*
X154036381Y-71890723D01*
X153990207Y-71943162D01*
X153923013Y-71962312D01*
X153856133Y-71942095D01*
X153811619Y-71890723D01*
X153806301Y-71879320D01*
X153806298Y-71879314D01*
X153673273Y-71689335D01*
X153673268Y-71689329D01*
X153509269Y-71525330D01*
X153509263Y-71525326D01*
X153319282Y-71392299D01*
X153109079Y-71294280D01*
X153109076Y-71294279D01*
X153109074Y-71294278D01*
X152885051Y-71234251D01*
X152885044Y-71234250D01*
X152654002Y-71214037D01*
X152653998Y-71214037D01*
X152422955Y-71234250D01*
X152422948Y-71234251D01*
X152198917Y-71294281D01*
X151988718Y-71392299D01*
X151988714Y-71392301D01*
X151798735Y-71525326D01*
X151798729Y-71525331D01*
X151634731Y-71689329D01*
X151634726Y-71689335D01*
X151501701Y-71879314D01*
X151501698Y-71879320D01*
X151496381Y-71890723D01*
X151450207Y-71943162D01*
X151383013Y-71962312D01*
X151316133Y-71942095D01*
X151271619Y-71890723D01*
X151266301Y-71879320D01*
X151266298Y-71879314D01*
X151133273Y-71689335D01*
X151133268Y-71689329D01*
X150969269Y-71525330D01*
X150969263Y-71525326D01*
X150779282Y-71392299D01*
X150569079Y-71294280D01*
X150569076Y-71294279D01*
X150569074Y-71294278D01*
X150345051Y-71234251D01*
X150345044Y-71234250D01*
X150114002Y-71214037D01*
X150113998Y-71214037D01*
X149882955Y-71234250D01*
X149882948Y-71234251D01*
X149658917Y-71294281D01*
X149448718Y-71392299D01*
X149448714Y-71392301D01*
X149258735Y-71525326D01*
X149258729Y-71525331D01*
X149094731Y-71689329D01*
X149094726Y-71689335D01*
X148961701Y-71879314D01*
X148961698Y-71879320D01*
X148956381Y-71890723D01*
X148910207Y-71943162D01*
X148843013Y-71962312D01*
X148776133Y-71942095D01*
X148731619Y-71890723D01*
X148726301Y-71879320D01*
X148726298Y-71879314D01*
X148593273Y-71689335D01*
X148593268Y-71689329D01*
X148429269Y-71525330D01*
X148429263Y-71525326D01*
X148239282Y-71392299D01*
X148029079Y-71294280D01*
X148029076Y-71294279D01*
X148029074Y-71294278D01*
X147805051Y-71234251D01*
X147805044Y-71234250D01*
X147574002Y-71214037D01*
X147573998Y-71214037D01*
X147342955Y-71234250D01*
X147342948Y-71234251D01*
X147118917Y-71294281D01*
X146908718Y-71392299D01*
X146908714Y-71392301D01*
X146718735Y-71525326D01*
X146718729Y-71525331D01*
X146554731Y-71689329D01*
X146554726Y-71689335D01*
X146421701Y-71879314D01*
X146421699Y-71879318D01*
X146323681Y-72089517D01*
X146263651Y-72313548D01*
X146263650Y-72313555D01*
X146243437Y-72544598D01*
X113344563Y-72544598D01*
X113324349Y-72313550D01*
X113264320Y-72089521D01*
X113166301Y-71879319D01*
X113166299Y-71879316D01*
X113166298Y-71879314D01*
X113033273Y-71689335D01*
X113033268Y-71689329D01*
X112869269Y-71525330D01*
X112869263Y-71525326D01*
X112679282Y-71392299D01*
X112469079Y-71294280D01*
X112469076Y-71294279D01*
X112469074Y-71294278D01*
X112245051Y-71234251D01*
X112245044Y-71234250D01*
X112014002Y-71214037D01*
X112013998Y-71214037D01*
X111782955Y-71234250D01*
X111782948Y-71234251D01*
X111558917Y-71294281D01*
X111348718Y-71392299D01*
X111348714Y-71392301D01*
X111158735Y-71525326D01*
X111158729Y-71525331D01*
X110994731Y-71689329D01*
X110994726Y-71689335D01*
X110861701Y-71879314D01*
X110861698Y-71879320D01*
X110856381Y-71890723D01*
X110810207Y-71943162D01*
X110743013Y-71962312D01*
X110676133Y-71942095D01*
X110631619Y-71890723D01*
X110626301Y-71879320D01*
X110626298Y-71879314D01*
X110493273Y-71689335D01*
X110493268Y-71689329D01*
X110329269Y-71525330D01*
X110329263Y-71525326D01*
X110139282Y-71392299D01*
X109929079Y-71294280D01*
X109929076Y-71294279D01*
X109929074Y-71294278D01*
X109705051Y-71234251D01*
X109705044Y-71234250D01*
X109474002Y-71214037D01*
X109473998Y-71214037D01*
X109242955Y-71234250D01*
X109242948Y-71234251D01*
X109018917Y-71294281D01*
X108808718Y-71392299D01*
X108808714Y-71392301D01*
X108618735Y-71525326D01*
X108618729Y-71525331D01*
X108454731Y-71689329D01*
X108454726Y-71689335D01*
X108321701Y-71879314D01*
X108321698Y-71879320D01*
X108316381Y-71890723D01*
X108270207Y-71943162D01*
X108203013Y-71962312D01*
X108136133Y-71942095D01*
X108091619Y-71890723D01*
X108086301Y-71879320D01*
X108086298Y-71879314D01*
X107953273Y-71689335D01*
X107953268Y-71689329D01*
X107789269Y-71525330D01*
X107789263Y-71525326D01*
X107599282Y-71392299D01*
X107389079Y-71294280D01*
X107389076Y-71294279D01*
X107389074Y-71294278D01*
X107165051Y-71234251D01*
X107165044Y-71234250D01*
X106934002Y-71214037D01*
X106933998Y-71214037D01*
X106702955Y-71234250D01*
X106702948Y-71234251D01*
X106478917Y-71294281D01*
X106268718Y-71392299D01*
X106268714Y-71392301D01*
X106078735Y-71525326D01*
X106078729Y-71525331D01*
X105914731Y-71689329D01*
X105914726Y-71689335D01*
X105781701Y-71879314D01*
X105781698Y-71879320D01*
X105776381Y-71890723D01*
X105730207Y-71943162D01*
X105663013Y-71962312D01*
X105596133Y-71942095D01*
X105551619Y-71890723D01*
X105546301Y-71879320D01*
X105546298Y-71879314D01*
X105413273Y-71689335D01*
X105413268Y-71689329D01*
X105249269Y-71525330D01*
X105249263Y-71525326D01*
X105059282Y-71392299D01*
X104849079Y-71294280D01*
X104849076Y-71294279D01*
X104849074Y-71294278D01*
X104625051Y-71234251D01*
X104625044Y-71234250D01*
X104394002Y-71214037D01*
X104393998Y-71214037D01*
X104162955Y-71234250D01*
X104162948Y-71234251D01*
X103938917Y-71294281D01*
X103728718Y-71392299D01*
X103728714Y-71392301D01*
X103538735Y-71525326D01*
X103538729Y-71525331D01*
X103374731Y-71689329D01*
X103374726Y-71689335D01*
X103241701Y-71879314D01*
X103241698Y-71879320D01*
X103236381Y-71890723D01*
X103190207Y-71943162D01*
X103123013Y-71962312D01*
X103056133Y-71942095D01*
X103011619Y-71890723D01*
X103006301Y-71879320D01*
X103006298Y-71879314D01*
X102873273Y-71689335D01*
X102873268Y-71689329D01*
X102709269Y-71525330D01*
X102709263Y-71525326D01*
X102519282Y-71392299D01*
X102309079Y-71294280D01*
X102309076Y-71294279D01*
X102309074Y-71294278D01*
X102085051Y-71234251D01*
X102085044Y-71234250D01*
X101854002Y-71214037D01*
X101853998Y-71214037D01*
X101622955Y-71234250D01*
X101622948Y-71234251D01*
X101398917Y-71294281D01*
X101188718Y-71392299D01*
X101188714Y-71392301D01*
X100998735Y-71525326D01*
X100998729Y-71525331D01*
X100834731Y-71689329D01*
X100834726Y-71689335D01*
X100701701Y-71879314D01*
X100701698Y-71879320D01*
X100696381Y-71890723D01*
X100650207Y-71943162D01*
X100583013Y-71962312D01*
X100516133Y-71942095D01*
X100471619Y-71890723D01*
X100466301Y-71879320D01*
X100466298Y-71879314D01*
X100333273Y-71689335D01*
X100333268Y-71689329D01*
X100169269Y-71525330D01*
X100169263Y-71525326D01*
X99979282Y-71392299D01*
X99769079Y-71294280D01*
X99769076Y-71294279D01*
X99769074Y-71294278D01*
X99545051Y-71234251D01*
X99545044Y-71234250D01*
X99314002Y-71214037D01*
X99313998Y-71214037D01*
X99082955Y-71234250D01*
X99082948Y-71234251D01*
X98858917Y-71294281D01*
X98648718Y-71392299D01*
X98648714Y-71392301D01*
X98458735Y-71525326D01*
X98458729Y-71525331D01*
X98294731Y-71689329D01*
X98294726Y-71689335D01*
X98161701Y-71879314D01*
X98161699Y-71879318D01*
X98063681Y-72089517D01*
X98003651Y-72313548D01*
X98003650Y-72313555D01*
X97983437Y-72544598D01*
X91610298Y-72544598D01*
X91896080Y-72336965D01*
X92220790Y-72053274D01*
X92518764Y-71741619D01*
X92787601Y-71404507D01*
X93025137Y-71044655D01*
X93229461Y-70664958D01*
X93241479Y-70636842D01*
X93273632Y-70561614D01*
X93398926Y-70268475D01*
X93532168Y-69858397D01*
X93628115Y-69438026D01*
X93685994Y-69010747D01*
X93705339Y-68580000D01*
X93685994Y-68149253D01*
X93628115Y-67721974D01*
X93532168Y-67301603D01*
X93398926Y-66891525D01*
X93273632Y-66598385D01*
X93229466Y-66495052D01*
X93229462Y-66495044D01*
X93218365Y-66474422D01*
X93025137Y-66115345D01*
X93025132Y-66115337D01*
X92787605Y-65755498D01*
X92787595Y-65755485D01*
X92518774Y-65418392D01*
X92518762Y-65418379D01*
X92220794Y-65106730D01*
X92220793Y-65106729D01*
X92220790Y-65106726D01*
X91896080Y-64823035D01*
X91719416Y-64694681D01*
X91547256Y-64569599D01*
X91547251Y-64569596D01*
X91547247Y-64569593D01*
X91177100Y-64348440D01*
X91177095Y-64348437D01*
X91177093Y-64348436D01*
X90788627Y-64161360D01*
X90788613Y-64161354D01*
X90384944Y-64009855D01*
X90384919Y-64009847D01*
X89969295Y-63895142D01*
X89545043Y-63818151D01*
X89545040Y-63818150D01*
X89545036Y-63818150D01*
X89115591Y-63779500D01*
X88684409Y-63779500D01*
X88254964Y-63818150D01*
X88254960Y-63818150D01*
X88254956Y-63818151D01*
X87830704Y-63895142D01*
X87415080Y-64009847D01*
X87415055Y-64009855D01*
X87011386Y-64161354D01*
X87011372Y-64161360D01*
X86622906Y-64348436D01*
X86622904Y-64348437D01*
X86252743Y-64569599D01*
X85903931Y-64823026D01*
X85903914Y-64823039D01*
X85579210Y-65106726D01*
X85579205Y-65106730D01*
X85281237Y-65418379D01*
X85281225Y-65418392D01*
X85012404Y-65755485D01*
X85012394Y-65755498D01*
X84774867Y-66115337D01*
X84774867Y-66115338D01*
X84570537Y-66495044D01*
X84558521Y-66523158D01*
X84514072Y-66577066D01*
X84447534Y-66598385D01*
X84380033Y-66580347D01*
X84333000Y-66528678D01*
X84320500Y-66474422D01*
X84320500Y-63562573D01*
X105613500Y-63562573D01*
X105613500Y-63806626D01*
X105645688Y-64009855D01*
X105651679Y-64047676D01*
X105688617Y-64161360D01*
X105727097Y-64279787D01*
X105837896Y-64497242D01*
X105981339Y-64694676D01*
X105981343Y-64694681D01*
X106153918Y-64867256D01*
X106153923Y-64867260D01*
X106326136Y-64992379D01*
X106351361Y-65010706D01*
X106568815Y-65121504D01*
X106800924Y-65196921D01*
X107041973Y-65235100D01*
X107041974Y-65235100D01*
X107286026Y-65235100D01*
X107286027Y-65235100D01*
X107527076Y-65196921D01*
X107759185Y-65121504D01*
X107976639Y-65010706D01*
X108174083Y-64867255D01*
X108346655Y-64694683D01*
X108490106Y-64497239D01*
X108600904Y-64279785D01*
X108676321Y-64047676D01*
X108714500Y-63806627D01*
X108714500Y-63562573D01*
X168653500Y-63562573D01*
X168653500Y-63806626D01*
X168685688Y-64009855D01*
X168691679Y-64047676D01*
X168728617Y-64161360D01*
X168767097Y-64279787D01*
X168877896Y-64497242D01*
X169021339Y-64694676D01*
X169021343Y-64694681D01*
X169193918Y-64867256D01*
X169193923Y-64867260D01*
X169366136Y-64992379D01*
X169391361Y-65010706D01*
X169608815Y-65121504D01*
X169840924Y-65196921D01*
X170081973Y-65235100D01*
X170081974Y-65235100D01*
X170326026Y-65235100D01*
X170326027Y-65235100D01*
X170567076Y-65196921D01*
X170799185Y-65121504D01*
X171016639Y-65010706D01*
X171214083Y-64867255D01*
X171386655Y-64694683D01*
X171530106Y-64497239D01*
X171640904Y-64279785D01*
X171716321Y-64047676D01*
X171754500Y-63806627D01*
X171754500Y-63562573D01*
X171716321Y-63321524D01*
X171640904Y-63089415D01*
X171530106Y-62871961D01*
X171511779Y-62846736D01*
X171386660Y-62674523D01*
X171386656Y-62674518D01*
X171214081Y-62501943D01*
X171214076Y-62501939D01*
X171016642Y-62358496D01*
X171016641Y-62358495D01*
X171016639Y-62358494D01*
X170799185Y-62247696D01*
X170567076Y-62172279D01*
X170567074Y-62172278D01*
X170567072Y-62172278D01*
X170398769Y-62145621D01*
X170326027Y-62134100D01*
X170081973Y-62134100D01*
X170026093Y-62142950D01*
X169840927Y-62172278D01*
X169608812Y-62247697D01*
X169391357Y-62358496D01*
X169193923Y-62501939D01*
X169193918Y-62501943D01*
X169021343Y-62674518D01*
X169021339Y-62674523D01*
X168877896Y-62871957D01*
X168767097Y-63089412D01*
X168691678Y-63321527D01*
X168653500Y-63562573D01*
X108714500Y-63562573D01*
X108676321Y-63321524D01*
X108600904Y-63089415D01*
X108490106Y-62871961D01*
X108471779Y-62846736D01*
X108346660Y-62674523D01*
X108346656Y-62674518D01*
X108174081Y-62501943D01*
X108174076Y-62501939D01*
X107976642Y-62358496D01*
X107976641Y-62358495D01*
X107976639Y-62358494D01*
X107759185Y-62247696D01*
X107527076Y-62172279D01*
X107527074Y-62172278D01*
X107527072Y-62172278D01*
X107358769Y-62145621D01*
X107286027Y-62134100D01*
X107041973Y-62134100D01*
X106986093Y-62142950D01*
X106800927Y-62172278D01*
X106568812Y-62247697D01*
X106351357Y-62358496D01*
X106153923Y-62501939D01*
X106153918Y-62501943D01*
X105981343Y-62674518D01*
X105981339Y-62674523D01*
X105837896Y-62871957D01*
X105727097Y-63089412D01*
X105651678Y-63321527D01*
X105613500Y-63562573D01*
X84320500Y-63562573D01*
X84320500Y-61584500D01*
X84340185Y-61517461D01*
X84392989Y-61471706D01*
X84444500Y-61460500D01*
X192415500Y-61460500D01*
X192482539Y-61480185D01*
G37*
G04 #@! TD.AperFunction*
M02*
